<svg xmlns="http://www.w3.org/2000/svg" width="472.842" height="757.636" viewBox="0 0 472.842 757.636">
  <g id="Group_5909" data-name="Group 5909" transform="translate(-71.856 -1641.722)">
    <g id="Group_4486" data-name="Group 4486" transform="translate(3178.938 2436.684) rotate(31)">
      <path id="Path_15042" data-name="Path 15042" d="M-2637.6,1231.4l-11.362,67.412-11.363-67.412a11.435,11.435,0,0,1,10.078-12.645,11.436,11.436,0,0,1,12.648,10.078A12.094,12.094,0,0,1-2637.6,1231.4Z" transform="translate(29.297 15.851)" fill="#c6372e"/>
      <path id="Path_15043" data-name="Path 15043" d="M-2660.326,1366.849l11.362-67.411,11.361,67.411a11.433,11.433,0,0,1-10.078,12.646,11.433,11.433,0,0,1-12.645-10.078A11.979,11.979,0,0,1-2660.326,1366.849Z" transform="translate(29.297 32.657)" fill="#c6372e"/>
      <path id="Path_15044" data-name="Path 15044" d="M-2576.3,1305.556l-67.41-11.362,67.41-11.362a11.434,11.434,0,0,1,12.646,10.078,11.435,11.435,0,0,1-10.078,12.647A12.106,12.106,0,0,1-2576.3,1305.556Z" transform="translate(32.768 29.186)" fill="#c6372e"/>
      <path id="Path_15045" data-name="Path 15045" d="M-2711.757,1282.827l67.412,11.362-67.412,11.362a11.434,11.434,0,0,1-12.645-10.078,11.433,11.433,0,0,1,10.078-12.646A12,12,0,0,1-2711.757,1282.827Z" transform="translate(15.963 29.186)" fill="#c6372e"/>
      <path id="Path_15046" data-name="Path 15046" d="M-2606.2,1353.026l-39.632-55.7,55.7,39.631a11.434,11.434,0,0,1,1.817,16.068,11.433,11.433,0,0,1-16.067,1.817A11.948,11.948,0,0,1-2606.2,1353.026Z" transform="translate(32.328 32.218)" fill="#c6372e"/>
      <path id="Path_15047" data-name="Path 15047" d="M-2685.329,1241.753l39.633,55.7-55.7-39.631a11.436,11.436,0,0,1-1.816-16.069,11.435,11.435,0,0,1,16.069-1.816A12,12,0,0,1-2685.329,1241.753Z" transform="translate(19.868 19.757)" fill="#c6372e"/>
      <path id="Path_15048" data-name="Path 15048" d="M-2701.4,1336.957l55.7-39.633-39.632,55.7a11.436,11.436,0,0,1-16.069,1.817,11.434,11.434,0,0,1-1.816-16.069A11.9,11.9,0,0,1-2701.4,1336.957Z" transform="translate(19.868 32.217)" fill="#c6372e"/>
      <path id="Path_15049" data-name="Path 15049" d="M-2590.127,1257.824l-55.7,39.633,39.631-55.7a11.433,11.433,0,0,1,16.068-1.816,11.435,11.435,0,0,1,1.817,16.068A11.989,11.989,0,0,1-2590.127,1257.824Z" transform="translate(32.329 19.757)" fill="#c6372e"/>
      <path id="Path_15050" data-name="Path 15050" d="M-2697.754,1384.989l39.011-56.136-18.456,65.823a11.434,11.434,0,0,1-14.506,7.145,11.436,11.436,0,0,1-7.145-14.507A12.006,12.006,0,0,1-2697.754,1384.989Z" transform="translate(21.168 38.778)" fill="#c6372e"/>
      <path id="Path_15051" data-name="Path 15051" d="M-2597.1,1215.066l-39.01,56.138,18.454-65.823a11.436,11.436,0,0,1,14.508-7.146,11.437,11.437,0,0,1,7.144,14.508A12.026,12.026,0,0,1-2597.1,1215.066Z" transform="translate(34.352 11.47)" fill="#c6372e"/>
      <path id="Path_15052" data-name="Path 15052" d="M-2637.055,1155.333l-12.019,67.3-10.7-67.518a11.435,11.435,0,0,1,10.2-12.547,11.434,11.434,0,0,1,12.548,10.2A12.053,12.053,0,0,1-2637.055,1155.333Z" transform="translate(29.414 0)" fill="#c6372e"/>
      <path id="Path_15053" data-name="Path 15053" d="M-2662.422,1442.541l12.019-67.3,10.7,67.518a11.433,11.433,0,0,1-10.2,12.547,11.436,11.436,0,0,1-12.548-10.2A12.041,12.041,0,0,1-2662.422,1442.541Z" transform="translate(28.858 48.432)" fill="#c6372e"/>
      <path id="Path_15054" data-name="Path 15054" d="M-2743.791,1191.317l41.7,54.172-57.15-37.511a11.433,11.433,0,0,1-2.418-15.988,11.433,11.433,0,0,1,15.988-2.42A12.036,12.036,0,0,1-2743.791,1191.317Z" transform="translate(7.76 9.33)" fill="#c6372e"/>
      <path id="Path_15055" data-name="Path 15055" d="M-2548.979,1402.771l-41.7-54.172,57.151,37.51a11.436,11.436,0,0,1,2.419,15.99,11.436,11.436,0,0,1-15.99,2.418A12.063,12.063,0,0,1-2548.979,1402.771Z" transform="translate(43.806 42.887)" fill="#c6372e"/>
      <path id="Path_15056" data-name="Path 15056" d="M-2788.121,1278.476l67.036,13.4-67.724,9.313a11.433,11.433,0,0,1-12.335-10.455,11.434,11.434,0,0,1,10.457-12.335A11.924,11.924,0,0,1-2788.121,1278.476Z" transform="translate(0 28.271)" fill="#c6372e"/>
      <path id="Path_15057" data-name="Path 15057" d="M-2501.5,1309.535l-67.036-13.4,67.724-9.314a11.434,11.434,0,0,1,12.335,10.456,11.434,11.434,0,0,1-10.456,12.335A12.1,12.1,0,0,1-2501.5,1309.535Z" transform="translate(48.413 30.024)" fill="#c6372e"/>
      <path id="Path_15058" data-name="Path 15058" d="M-2754.672,1392.056l55.164-40.375-38.882,56.226a11.435,11.435,0,0,1-16.043,2.032,11.435,11.435,0,0,1-2.031-16.042A12.079,12.079,0,0,1-2754.672,1392.056Z" transform="translate(8.807 43.529)" fill="#c6372e"/>
      <path id="Path_15059" data-name="Path 15059" d="M-2538.52,1202.463l-55.166,40.376,38.883-56.227a11.435,11.435,0,0,1,16.043-2.031,11.433,11.433,0,0,1,2.031,16.041A11.98,11.98,0,0,1-2538.52,1202.463Z" transform="translate(43.179 8.257)" fill="#c6372e"/>
      <path id="Path_15060" data-name="Path 15060" d="M-2740.514,1319.895l67.313-11.923-59.686,33.329a11.435,11.435,0,0,1-15.3-5.249,11.433,11.433,0,0,1,5.248-15.294A11.946,11.946,0,0,1-2740.514,1319.895Z" transform="translate(10.787 34.433)" fill="#c6372e"/>
      <path id="Path_15061" data-name="Path 15061" d="M-2548.231,1273.428l-67.314,11.923,59.686-33.329a11.435,11.435,0,0,1,15.3,5.248,11.436,11.436,0,0,1-5.25,15.3A12.069,12.069,0,0,1-2548.231,1273.428Z" transform="translate(38.631 22.548)" fill="#c6372e"/>
      <path id="Path_15062" data-name="Path 15062" d="M-2731.32,1249.909l57.552,36.889-66.464-15.987a11.433,11.433,0,0,1-7.681-14.229,11.435,11.435,0,0,1,14.23-7.681A12.056,12.056,0,0,1-2731.32,1249.909Z" transform="translate(10.985 22.041)" fill="#c6372e"/>
      <path id="Path_15063" data-name="Path 15063" d="M-2557.688,1344.083l-57.553-36.889,66.466,15.986a11.433,11.433,0,0,1,7.68,14.23,11.434,11.434,0,0,1-14.23,7.681A12.1,12.1,0,0,1-2557.688,1344.083Z" transform="translate(38.694 34.271)" fill="#c6372e"/>
      <path id="Path_15064" data-name="Path 15064" d="M-2671.786,1204.253l12.358,67.235-33.714-59.469a11.432,11.432,0,0,1,5.15-15.328,11.434,11.434,0,0,1,15.328,5.149A12.2,12.2,0,0,1-2671.786,1204.253Z" transform="translate(22.233 11.027)" fill="#c6372e"/>
      <path id="Path_15065" data-name="Path 15065" d="M-2624.063,1396.218l-12.357-67.235,33.714,59.47a11.435,11.435,0,0,1-5.15,15.328,11.433,11.433,0,0,1-15.329-5.15A11.972,11.972,0,0,1-2624.063,1396.218Z" transform="translate(34.286 38.805)" fill="#c6372e"/>
      <path id="Path_15066" data-name="Path 15066" d="M-2600,1177.821c-11.36,0-11.379,17.657,0,17.657C-2588.634,1195.479-2588.615,1177.821-2600,1177.821Z" transform="translate(40.092 7.349)" fill="#c6372e"/>
      <path id="Path_15067" data-name="Path 15067" d="M-2545.44,1252.365v.735c0,11.361,17.657,11.38,17.657,0v-.735C-2527.784,1241-2545.44,1240.985-2545.44,1252.365Z" transform="translate(53.219 21.087)" fill="#c6372e"/>
      <path id="Path_15068" data-name="Path 15068" d="M-2535.447,1331.885c-11.361,0-11.379,17.656,0,17.656C-2524.086,1349.541-2524.068,1331.885-2535.447,1331.885Z" transform="translate(53.524 39.409)" fill="#c6372e"/>
      <path id="Path_15069" data-name="Path 15069" d="M-2608.52,1399.478c-11.361,0-11.379,17.656,0,17.656C-2597.159,1417.134-2597.14,1399.478-2608.52,1399.478Z" transform="translate(38.318 53.475)" fill="#c6372e"/>
      <path id="Path_15070" data-name="Path 15070" d="M-2701.689,1396.434c-11.36,0-11.379,17.656,0,17.656C-2690.328,1414.09-2690.309,1396.434-2701.689,1396.434Z" transform="translate(18.93 52.841)" fill="#c6372e"/>
      <path id="Path_15071" data-name="Path 15071" d="M-2761.366,1329.449c-11.36,0-11.379,17.656,0,17.656C-2750.005,1347.105-2749.988,1329.449-2761.366,1329.449Z" transform="translate(6.512 38.902)" fill="#c6372e"/>
      <path id="Path_15072" data-name="Path 15072" d="M-2760.757,1239.325c-11.361,0-11.38,17.656,0,17.656C-2749.4,1256.981-2749.377,1239.325-2760.757,1239.325Z" transform="translate(6.638 20.148)" fill="#c6372e"/>
      <path id="Path_15073" data-name="Path 15073" d="M-2693.772,1174.168c-11.361,0-11.38,17.655,0,17.655C-2682.413,1191.823-2682.393,1174.168-2693.772,1174.168Z" transform="translate(20.577 6.589)" fill="#c6372e"/>
    </g>
    <g id="Group_4509" data-name="Group 4509" transform="translate(331.454 2234.411) rotate(-157)">
      <path id="Path_15074" data-name="Path 15074" d="M76.164,134.858a7.935,7.935,0,0,0-2.008,3.292c-.5,1.226-.673,2.748-1.549,3.713a42.468,42.468,0,0,0-5.886,5.117,21.229,21.229,0,0,1-4.693,3.8q.4,19.6-.139,39.194a9.447,9.447,0,0,0,3.587-3.307c.612-.5,1.728-.3,2.589-.517a2.957,2.957,0,0,0,2.1-1.279c.81-1.584,1.528-3.061,3.511-3.394l.275-.046a3.8,3.8,0,0,1,4.341,4.464c-.42,2.178-2.236,3.087-4.078,3.75a4.2,4.2,0,0,0-1.963,1.99c-.525.833-.817,2.048-1.635,2.538a22.425,22.425,0,0,0-5.3,2.129,11.192,11.192,0,0,1-3.674,1.368,830.93,830.93,0,0,1-8.024,89.058,20.3,20.3,0,0,1,1.758-2.086,13.16,13.16,0,0,0,2.863-5.2c.5-.828,1.711-1.184,2.536-1.839a4.249,4.249,0,0,0,1.782-2.4c.369-2.08.669-4.034,2.54-5.38l.173-.125a3.627,3.627,0,0,1,5.716,2.6c.246,2.52-1.289,4.344-2.951,5.935a6,6,0,0,0-1.409,3.024c-.294,1.118-.24,2.51-.938,3.405a34.417,34.417,0,0,0-4.891,4.706,16.129,16.129,0,0,1-5.181,4.215,2.92,2.92,0,0,1-2.868-.078c-.039-.023-.058-.061-.095-.087-.092.6-.166,1.207-.26,1.809-3.615,20-7.879,39.859-12.453,59.623.275-.373.541-.755.8-1.138.564-.506,1.663-.339,2.487-.565a2.749,2.749,0,0,0,1.974-1.283c.707-1.559,1.35-3.013,3.284-3.327l.257-.042a3.867,3.867,0,0,1,4.424,4.389c-.314,2.108-2.026,2.974-3.77,3.628a3.724,3.724,0,0,0-1.774,1.955c-.452.821-.649,2.012-1.4,2.505a18.545,18.545,0,0,0-4.911,2.23,10.557,10.557,0,0,1-3.688,1.583c-.2.833-.385,1.668-.584,2.5a481.47,481.47,0,0,0-11.478,71.94c-.094,1.089-.142,2.182-.229,3.271a23.893,23.893,0,0,1,2.824-2.954,17.39,17.39,0,0,0,3.894-5.33c.682-.841,2.009-1.112,2.99-1.719a5.263,5.263,0,0,0,2.344-2.335c.843-2.151,1.652-4.214,3.886-5.326l.1-.048a3.587,3.587,0,0,1,5.156,3.687c-.351,2.618-2.256,4.2-4.246,5.595a6.548,6.548,0,0,0-1.994,2.913c-.5,1.113-.678,2.54-1.524,3.378a32.32,32.32,0,0,0-5.637,4.394,19.687,19.687,0,0,1-5.766,4.09,2.872,2.872,0,0,1-2.463-.075q-1.907,27.591-1.129,55.273a28.247,28.247,0,0,0,3.645-4.94c.8-.946,2.236-1.312,3.33-2.015a6.808,6.808,0,0,0,2.7-2.628c1.1-2.361,2.169-4.645,4.632-5.915l.065-.034a3.513,3.513,0,0,1,5.037,3.878c-.62,2.822-2.741,4.546-4.945,6.1A8.093,8.093,0,0,0,35.9,501.67c-.613,1.207-.9,2.731-1.854,3.657a38.56,38.56,0,0,0-6.24,4.944,23.012,23.012,0,0,1-3.757,3.075c.544,11.213,1.382,22.449,2.713,33.6a19.561,19.561,0,0,0,3.394-5.382c.645-.906,1.97-1.288,2.928-1.98a5.548,5.548,0,0,0,2.245-2.552c.741-2.248,1.454-4.409,3.648-5.708l.086-.051a3.57,3.57,0,0,1,5.377,3.363c-.22,2.683-2.053,4.423-3.983,5.987a6.845,6.845,0,0,0-1.854,3.1c-.444,1.165-.547,2.623-1.354,3.535a33.8,33.8,0,0,0-5.444,4.882,19.4,19.4,0,0,1-3.9,3.436,280.778,280.778,0,0,0,5.544,28.528l.016.061a2.817,2.817,0,0,1-5.444,1.45,265.3,265.3,0,0,1-7-33.565,8.59,8.59,0,0,1-4.49-2.466,5.833,5.833,0,0,0-3.084-1.145c-1.125-.2-2.494-.025-3.429-.64a32.952,32.952,0,0,0-5.008-4.443A15.81,15.81,0,0,1,.457,538.6,2.916,2.916,0,0,1,4.2,534.416l.065.032a24.461,24.461,0,0,1,5.024,3.121,12.9,12.9,0,0,0,5.344,2.389c.853.425,1.294,1.6,2,2.362a4.14,4.14,0,0,0,2.5,1.569c.275.026.538.058.808.086-1.294-10.483-2.177-21.008-2.831-31.527,0-.049,0-.1-.005-.149a8.63,8.63,0,0,1-3.871-4.042,5.921,5.921,0,0,0-2.6-2.109c-1.022-.552-2.387-.814-3.1-1.69a29.713,29.713,0,0,0-3.6-5.753,17.563,17.563,0,0,1-3.262-5.857,2.913,2.913,0,0,1,4.655-3.153l.036.032a24.413,24.413,0,0,1,4.246,4.552,15.2,15.2,0,0,0,4.664,4.063c.727.7.83,2,1.3,2.979a4.869,4.869,0,0,0,1.174,1.706c-.461-11.833-.44-23.674-.01-35.506a10.65,10.65,0,0,1-1.682-3.292,17.161,17.161,0,0,0-2.468-4.737c-.29-.839.28-1.894.418-2.816a3.638,3.638,0,0,0-.24-2.61c-1.006-1.556-1.871-3.237-.9-5.116a3.977,3.977,0,0,1,.718-.973,3.843,3.843,0,0,1,5.185-.166c.211-3.069.38-6.141.631-9.205a567.52,567.52,0,0,1,9.089-63.029,11.2,11.2,0,0,1-2.369-4.541,6.655,6.655,0,0,0-2.2-2.787c-.923-.82-2.245-1.445-2.8-2.544a53.757,53.757,0,0,0-2.356-7.1,16,16,0,0,1-1.295-7.41,2.891,2.891,0,0,1,5.5-1.078l.055.116a48.269,48.269,0,0,1,2.446,5.753,13.876,13.876,0,0,0,3.578,5.247c.575.887.427,2.222.714,3.339a5.756,5.756,0,0,0,.613,1.7c.053-.244.095-.488.148-.732q3.784-16.954,7.091-33.993c-1.532-1.273-1.985-3.213-2.122-5.133a5.558,5.558,0,0,0-1.392-2.846c-.654-.887-1.736-1.7-1.948-2.768a37.418,37.418,0,0,0-.187-6.477,13.566,13.566,0,0,1,.578-6.318,2.924,2.924,0,0,1,5.6.124l.03.11a23.372,23.372,0,0,1,.949,5.335,8.2,8.2,0,0,0,1.145,3.766c1.43-7.879,2.807-15.765,4.064-23.666a786.6,786.6,0,0,0,11.284-82.865c-1.674-.714-2.684-2.228-3.663-3.819a5.74,5.74,0,0,0-2.725-1.82c-.539-.221-1.159-.372-1.7-.617-.567-.217-1.14-.441-1.343-1.037a29.475,29.475,0,0,0-3.819-5.611,14.047,14.047,0,0,1-3.14-6.583,2.848,2.848,0,0,1,5-2.29l.29.349c1.01,1.217,2.286,2.4,3.521,4.037a11.766,11.766,0,0,0,4.511,3.822c.526.157.711.66.893,1.177.223.478.36,1.053.6,1.541a4.649,4.649,0,0,0,1.968,2.377c.083.034.163.073.246.108a463.833,463.833,0,0,0,.328-54.054c-.1-2.061-.3-4.113-.429-6.172a3.545,3.545,0,0,1-.516-.071c-2.06-.719-2.7-2.521-3.258-4.383a3.838,3.838,0,0,0-1.908-1.979c-.828-.513-2.027-.745-2.528-1.506a15.019,15.019,0,0,0-2.552-4.92,14.848,14.848,0,0,1-2.687-4.817,2.957,2.957,0,0,1,4.482-3.414,14.876,14.876,0,0,1,3.929,3.87,14.958,14.958,0,0,0,4.049,3.757c-1.618-17.681-4.17-35.257-7.51-52.652-.95-6.012-2.45-11.847-3.751-17.747l-2.012-8.812c-.855-3.075-1.565-6.1-2.209-9.17a149.358,149.358,0,0,1-3.3-37.33,3.195,3.195,0,0,1,6.386.182v.023A156.143,156.143,0,0,0,45.862,38.8c.664,2.912,1.407,5.832,2.241,8.639.834,3.027,1.468,6.033,2.194,9.056,1.376,6.041,2.954,12.065,3.953,18.145a436.785,436.785,0,0,1,7.47,67.132,19.937,19.937,0,0,0,3.885-5.72c.7-.942,2.062-1.354,3.064-2.088a6.056,6.056,0,0,0,2.362-2.695c.81-2.354,1.558-4.611,3.785-6.057l.1-.065a3.524,3.524,0,0,1,5.427,3.267C80.1,131.247,78.184,133.16,76.164,134.858Z" transform="translate(52.044 0)" fill="#bd342c"/>
      <g id="Group_4493" data-name="Group 4493" transform="translate(112.56 47.838)">
        <path id="Path_15075" data-name="Path 15075" d="M27.762,86.346a9.481,9.481,0,0,1-4.344,2.021C.38,83.272,0,69.379,0,69.379a8.49,8.49,0,0,1,2.3-4.3l-.106-.089L50.018.228c9.321-2.2,29.627,12.035,28.174,22.273L27.987,86.534Z" transform="translate(1.111 1.141)" fill="#de442b"/>
        <path id="Path_15076" data-name="Path 15076" d="M0,7.022,5.529,0S22.984,1.531,31.321,20.886L26.059,26S17.707,7.679,0,7.022Z" transform="translate(4.522 57.655)" fill="#ff9e11"/>
        <path id="Path_15077" data-name="Path 15077" d="M0,5.7,3.6,0S25.693,1.156,31.778,22.273l-5.942,6.789S20.427,13.236,0,5.7Z" transform="translate(47.525 1.369)" fill="#ff9e11"/>
        <path id="Path_15078" data-name="Path 15078" d="M0,7.447a15.233,15.233,0,0,0,3.067,7.925,25.482,25.482,0,0,0,6.048,5.809,60.081,60.081,0,0,0,7.119,4.37,18.654,18.654,0,0,0,4.053.941c1.335.3,2.643.7,3.951,1.121a.851.851,0,0,0,.4.032l.1-.017c2.332-.378,4.712-1.1,6.454-3.491a6.639,6.639,0,0,0-.428-7.539c-1.472-1.858-3.19-3.122-4.314-4.982a15.047,15.047,0,0,0-4.331-4.729A46.819,46.819,0,0,0,10.742.846,11.794,11.794,0,0,0,7.349.207,4.527,4.527,0,0,0,5.435.08a5.973,5.973,0,0,0-1.77.909C1.5,2.842,1.219,5.005.122,7.2Zm2.183-.513A4.126,4.126,0,0,1,5.1,3.486,5.069,5.069,0,0,1,6.2,3.268c.356-.037.712-.444,1.156-.48a8.493,8.493,0,0,1,2.71.33c3.743,1.03,6.977,3.736,9.937,6.39A35.59,35.59,0,0,0,24.8,13.179a8.249,8.249,0,0,1,3.128,4.9c.562,1.785.928,3.17.346,4.261-.53,1.156-2.309,2.191-3.957,2.629l.5.014c-1.282-.245-2.563-.526-3.818-.894-1.213-.511-2.27-1.386-3.54-1.655-2.374-.9-5.012-1.493-7.028-3.134A20.552,20.552,0,0,1,5.02,14,17.749,17.749,0,0,1,2.259,7.436Z" transform="translate(0 63.209)" fill="#bd342c"/>
        <path id="Path_15079" data-name="Path 15079" d="M27.764,88.388c8.529-10.545,16.663-21.4,25.1-32.02C57,51,61.763,46.115,65.81,40.671c3.645-5.759,8.125-10.863,12.4-16.127a1.424,1.424,0,0,0,.3-.7c.526-3.988-1.285-7.453-3.259-10.241a35.662,35.662,0,0,0-7.241-7.293,35.284,35.284,0,0,0-8.945-4.945A18.978,18.978,0,0,0,48.648.354L48.6.365a.9.9,0,0,0-.556.385c-3.688,5.617-8.52,10.388-12.492,15.8-4.005,5.382-7.707,10.989-11.582,16.467-3.9,5.457-7.858,10.878-12.068,16.108-2.5,2.325-3.893,5.465-5.739,8.272A57.03,57.03,0,0,1,.258,65.539a1,1,0,1,0,1.483,1.339,1.068,1.068,0,0,0,.116-.158,56.983,56.983,0,0,1,6.048-8.044c2.141-2.589,4.73-4.847,6.218-7.918C17.884,45.2,21.9,39.823,25.97,34.487c4.1-5.315,8.365-10.5,12.332-15.913,4-5.386,7.139-11.408,11.423-16.585l-.6.4c2.851-.48,5.927.7,8.686,2.012a48.451,48.451,0,0,1,8.014,4.831,35.4,35.4,0,0,1,6.759,6.368c1.865,2.375,3.289,5.208,3.031,7.843l.3-.7c-4.093,5.407-7.981,10.975-12.7,15.889-4.32,5.229-7.924,11.02-12.154,16.32-8.3,10.724-16.9,21.213-25.109,32.011a1.155,1.155,0,0,0,1.818,1.426Z" transform="translate(2.242 0)" fill="#bd342c"/>
        <path id="Path_15080" data-name="Path 15080" d="M1.086,2.244a21.07,21.07,0,0,1,7.9,2.22,25.226,25.226,0,0,1,6.963,4.805C17.664,11.5,20.746,12.7,22.377,15c1.727,2.308,2.359,4.79,3.132,7.376l.008.03a1.26,1.26,0,0,0,2.462-.242c.317-3.339-1.683-6.455-3.763-8.658-2.162-2.245-3.419-5.092-6.15-6.755a51.913,51.913,0,0,0-7.887-4.807A17.752,17.752,0,0,0,.994.059,1.095,1.095,0,0,0,1.06,2.243Z" transform="translate(9.011 56.503)" fill="#bd342c"/>
        <path id="Path_15081" data-name="Path 15081" d="M.79,2.148A49.378,49.378,0,0,1,8.906,5.395a26.58,26.58,0,0,1,6.975,5.173c2.247,1.777,4.735,3.538,6.224,6.1,1.463,2.562,2.6,5.188,4.034,7.755a1.253,1.253,0,0,0,1.7.5,1.273,1.273,0,0,0,.629-1.358,19.375,19.375,0,0,0-4.37-8.294c-1.981-2.4-3.578-5.168-5.895-7.371a57.072,57.072,0,0,0-8.021-5A28.147,28.147,0,0,0,1.256.012,1.1,1.1,0,0,0,.79,2.148Z" transform="translate(45.695 6.019)" fill="#bd342c"/>
      </g>
      <g id="Group_4494" data-name="Group 4494" transform="translate(33.571 178.317)">
        <path id="Path_15082" data-name="Path 15082" d="M46.571,84.1s-14.228,4.938-18.2-4.643a4.155,4.155,0,0,1-.438-.992L.22,15.727S-2.508,8.738,11.239,1.477c0,0,12.154-3.94,19.03,1.052L57.9,66.5C61.411,72.474,58.166,78.51,46.571,84.1Z" transform="translate(1.284 1.783)" fill="#de442b"/>
        <path id="Path_15083" data-name="Path 15083" d="M3.865,20.41,0,10.7S12.875-1.463,28.98.147l4.853,8.307S15.565,2.352,3.865,20.41Z" transform="translate(25.346 59.833)" fill="#ff9e11"/>
        <path id="Path_15084" data-name="Path 15084" d="M2.835,20.8S-4,12.8,3.549,7.253c0,0,12.2-12.689,26.575-4.5l2.229,5.953S11.1,7.021,2.835,20.8Z" transform="translate(1.428 1.558)" fill="#ff9e11"/>
        <path id="Path_15085" data-name="Path 15085" d="M21.364,19.336l-1.619.492a35.217,35.217,0,0,1-4.755.949,18.2,18.2,0,0,1-4.854.088A10.038,10.038,0,0,1,5.808,19.3a7.36,7.36,0,0,1-2.3-3.686l-.093-.189c.082-.217-.33-.907-.416-1.585a3.416,3.416,0,0,1,.889-1.988A14.206,14.206,0,0,1,7.749,8.892a17.532,17.532,0,0,0,4.269-3c1.346-1.363,3.454-.949,5.129-1.452l-.123.037a53.4,53.4,0,0,1,9.291-1.521,6.809,6.809,0,0,1,3.858.706,5.384,5.384,0,0,1,.964,1.6,6.5,6.5,0,0,1,.5,2.048c.271,2.76-1.552,5.578-4.18,7.155A21.92,21.92,0,0,1,21.364,19.336ZM20.173,22.1l.392-.282c2.827-2.031,6.079-2.847,9-4.947a5.8,5.8,0,0,0,1.665-2.1,14.5,14.5,0,0,0,1.521-2.238,9.906,9.906,0,0,0,1.23-5.417,8.878,8.878,0,0,0-.635-2.724,6.81,6.81,0,0,0-1.488-2.627C30.01.241,28.1.178,26.358.023a34.9,34.9,0,0,0-10.2,1.155l-.067.017-.058.021C14.315,1.988,13,3.6,11.059,3.788A9.749,9.749,0,0,0,5.782,5.976a16.383,16.383,0,0,0-4.053,4.41A15.341,15.341,0,0,0,.437,13.34a3.847,3.847,0,0,0,.105,3.735L.45,16.888A10.866,10.866,0,0,0,4.5,21.2a12.4,12.4,0,0,0,5.313,1.944,21.816,21.816,0,0,0,5.466.068A22.764,22.764,0,0,0,20.173,22.1Z" transform="translate(27.668 64.983)" fill="#bd342c"/>
        <path id="Path_15086" data-name="Path 15086" d="M30.706,80.769C24.937,67.115,18.573,53.72,12.791,40.074c-2.753-6.883-5.2-13.887-8.935-20.357-.423-.827-.75-1.694-1.124-2.541a4.355,4.355,0,0,1-.083-2.062,9.075,9.075,0,0,1,2.2-4.264A27.564,27.564,0,0,1,13.33,4.79l-.273.116a39.476,39.476,0,0,1,9.151-1.327c3.037-.072,6.1.174,8.679,1.648l-.373-.467c2.842,5.1,4.25,10.815,6.39,16.217,2.208,5.372,4.859,10.552,7.3,15.823s4.719,10.613,6.848,16.019c.5,2.948,2.328,5.32,3.657,7.909a40.91,40.91,0,0,1,3.555,7.953,1,1,0,0,0,1.918-.576,1.025,1.025,0,0,0-.091-.213,40.919,40.919,0,0,1-3.352-8.041c-.973-2.743-1.445-5.7-3.249-8.085Q49.777,43.882,46.526,35.8c-2.16-5.393-4.114-10.875-6.51-16.165C37.55,14.372,34.354,9.427,32.592,3.863a.757.757,0,0,0-.247-.363l-.128-.1A16.325,16.325,0,0,0,22.214,0,32.262,32.262,0,0,0,11.989,1.613l-.035.011a1.4,1.4,0,0,0-.24.1A29.988,29.988,0,0,0,2.633,9.074a12.735,12.735,0,0,0-2.552,5.65,6.673,6.673,0,0,0,.326,3.419c.375.847.8,1.676,1.123,2.544,2.256,7.094,5.8,13.652,9.036,20.332C16.765,54.5,22.381,68.23,28.593,81.7a1.155,1.155,0,0,0,2.114-.933Z" transform="translate(0 0)" fill="#bd342c"/>
        <path id="Path_15087" data-name="Path 15087" d="M1.776,13.5c2.009-1.58,4.08-3.026,6.2-4.405a26.452,26.452,0,0,1,6.88-3.111C17.114,4.937,19.38,3.554,21.939,3.3c2.525-.138,5.268-.593,6.593.008l.165.075A1.241,1.241,0,0,0,30.1,1.392,5.617,5.617,0,0,0,25.465.034a26.481,26.481,0,0,0-4,.884c-2.571.764-5.33.9-7.926,1.791-4.8,2.526-9.634,5.144-13.26,9.2a1.1,1.1,0,0,0,1.5,1.595Z" transform="translate(24.628 57.587)" fill="#bd342c"/>
        <path id="Path_15088" data-name="Path 15088" d="M2.1,14.316A17.863,17.863,0,0,1,6.886,8.057a16.553,16.553,0,0,1,7.146-3.495c2.487-.937,5.174-2,8-1.861a68.463,68.463,0,0,0,8.445.34A1.255,1.255,0,0,0,30.708.574a23.193,23.193,0,0,0-8.776-.3c-2.915.368-5.973.116-8.97.924A29.308,29.308,0,0,0,5.075,5.929,15.294,15.294,0,0,0,.037,13.6a1.1,1.1,0,0,0,.777,1.341A1.107,1.107,0,0,0,2.1,14.316Z" transform="translate(3.136 8.889)" fill="#bd342c"/>
      </g>
      <path id="Path_15089" data-name="Path 15089" d="M13.293,582.653C7.072,559.1,4.619,534.635,3.372,510.293a552.588,552.588,0,0,1,1.505-73.176,502.887,502.887,0,0,1,11.378-72.279c5.591-23.852,10.674-47.841,14.857-72,7.994-48.378,12.052-97.483,10.448-146.54a474.542,474.542,0,0,0-8.141-73.119c-.993-6.057-2.555-12.021-3.916-18.017-.718-2.993-1.352-5.992-2.139-8.98-.835-2.892-1.564-5.846-2.218-8.806A155.036,155.036,0,0,1,21.3,1.276a1.24,1.24,0,0,0-2.478-.08,149.8,149.8,0,0,0,3.57,36.781c.655,3.017,1.379,6.011,2.23,9,.756,2.932,1.373,5.928,2.068,8.888C28,61.812,29.518,67.707,30.475,73.741A480.226,480.226,0,0,1,39.006,146.4c2.248,48.849-3,97.752-11.4,145.839-4.018,24.1-8.892,48.071-14.306,71.921A542.59,542.59,0,0,0,2.084,436.877,526.419,526.419,0,0,0,.723,510.424C2.136,534.9,4.741,559.44,11.187,583.239a1.094,1.094,0,0,0,1.341.77A1.113,1.113,0,0,0,13.293,582.653Z" transform="translate(70.538 1.918)" fill="#a11010"/>
      <g id="Group_4495" data-name="Group 4495" transform="translate(79.928 404.855)">
        <path id="Path_15090" data-name="Path 15090" d="M31.106,90.137A9.475,9.475,0,0,1,27.4,93.172C3.819,93.959,0,80.6,0,80.6A8.488,8.488,0,0,1,1.156,75.86l-.125-.06L31.275,1.188C39.757-3.26,62.963,5.487,64.1,15.766l-32.729,74.5Z" transform="translate(1.042 1.442)" fill="#de442b"/>
        <path id="Path_15091" data-name="Path 15091" d="M0,8.361,3.612.185S20.9-2.667,33.783,14.011l-3.827,6.257S17.316,4.6,0,8.361Z" transform="translate(2.895 67.17)" fill="#ff9e11"/>
        <path id="Path_15092" data-name="Path 15092" d="M0,6.854,2.075.434S23.759-3.931,34.9,15.013l-4.07,8.053S21.658,9.078,0,6.854Z" transform="translate(30.242 2.196)" fill="#ff9e11"/>
        <path id="Path_15093" data-name="Path 15093" d="M0,9.1a15.229,15.229,0,0,0,4.94,6.915,25.523,25.523,0,0,0,7.3,4.125,60.241,60.241,0,0,0,7.981,2.465,18.709,18.709,0,0,0,4.16-.1c1.368-.038,2.733.016,4.105.1a.862.862,0,0,0,.4-.069l.1-.042c2.165-.946,4.29-2.241,5.385-4.985a6.639,6.639,0,0,0-2.288-7.2c-1.888-1.434-3.864-2.232-5.416-3.754a15.055,15.055,0,0,0-5.369-3.505A46.811,46.811,0,0,0,8.767.039,11.793,11.793,0,0,0,5.32.262,4.518,4.518,0,0,0,3.435.615a5.993,5.993,0,0,0-1.49,1.32C.312,4.266.574,6.432.058,8.834Zm1.988-1.04A4.127,4.127,0,0,1,3.955,4a5.1,5.1,0,0,1,1.016-.485c.335-.125.581-.607,1-.753a8.5,8.5,0,0,1,2.707-.353c3.882.068,7.686,1.886,11.213,3.722a35.593,35.593,0,0,0,5.555,2.365,8.255,8.255,0,0,1,4.247,3.97c.987,1.59,1.686,2.841,1.393,4.042-.226,1.252-1.693,2.7-3.18,3.528l.49-.11c-1.3.08-2.614.127-3.92.082-1.3-.193-2.544-.779-3.841-.724-2.524-.286-5.226-.2-7.587-1.289A20.564,20.564,0,0,1,6.49,14.2a17.733,17.733,0,0,1-4.3-5.671Z" transform="translate(0 73.346)" fill="#bd342c"/>
        <path id="Path_15094" data-name="Path 15094" d="M32.434,92.169C38.077,79.836,43.26,67.3,48.792,54.918c2.674-6.231,6.076-12.143,8.644-18.421,2.1-6.483,5.173-12.54,8.005-18.7a1.413,1.413,0,0,0,.115-.749c-.481-3.994-3.1-6.9-5.7-9.11A35.641,35.641,0,0,0,51.03,2.67,35.273,35.273,0,0,0,41.137.1,18.987,18.987,0,0,0,30.8,1.707l-.039.021a.911.911,0,0,0-.443.512c-2.177,6.357-5.672,12.179-8.177,18.4C19.6,26.852,17.4,33.2,15.009,39.47c-2.427,6.256-4.909,12.489-7.689,18.6-1.842,2.874-2.414,6.261-3.5,9.439a57.132,57.132,0,0,1-3.7,9.359,1,1,0,1,0,1.77.929,1.023,1.023,0,0,0,.073-.181,57.123,57.123,0,0,1,3.86-9.294c1.43-3.04,3.378-5.87,4.058-9.214,2.26-6.323,4.818-12.526,7.433-18.7C19.956,34.237,22.8,28.152,25.3,21.925c2.536-6.211,4.081-12.824,6.946-18.9l-.481.531c2.642-1.172,5.915-.795,8.913-.209a48.533,48.533,0,0,1,8.962,2.689,35.355,35.355,0,0,1,8.129,4.49c2.4,1.837,4.479,4.227,4.885,6.844l.114-.746c-2.622,6.254-5.005,12.613-8.359,18.546C51.523,41.306,49.47,47.811,46.69,54c-5.377,12.45-11.1,24.746-16.371,37.245a1.155,1.155,0,0,0,2.115.929Z" transform="translate(1.036 0)" fill="#bd342c"/>
        <path id="Path_15095" data-name="Path 15095" d="M1.359,2.965a21.073,21.073,0,0,1,8.206.188A25.225,25.225,0,0,1,17.5,6.078C19.714,7.81,23,8.214,25.15,10.029c2.246,1.807,3.474,4.055,4.866,6.368l.016.026a1.26,1.26,0,0,0,2.324-.846c-.522-3.313-3.234-5.835-5.8-7.452-2.652-1.637-4.576-4.083-7.635-5.015A51.961,51.961,0,0,0,10.09.412,17.739,17.739,0,0,0,.727.872a1.094,1.094,0,0,0,.606,2.1Z" transform="translate(5.464 65.437)" fill="#bd342c"/>
        <path id="Path_15096" data-name="Path 15096" d="M1.06,2.339A49.42,49.42,0,0,1,9.729,3.468a26.586,26.586,0,0,1,8.041,3.279C20.388,7.911,23.237,9,25.315,11.112c2.053,2.119,3.809,4.379,5.833,6.51a1.252,1.252,0,0,0,1.77.068,1.274,1.274,0,0,0,.273-1.471A19.372,19.372,0,0,0,26.9,9.269c-2.515-1.832-4.749-4.118-7.541-5.676A57.077,57.077,0,0,0,10.346.742,28.146,28.146,0,0,0,.981.154a1.1,1.1,0,0,0,.08,2.185Z" transform="translate(28.447 8.029)" fill="#bd342c"/>
      </g>
      <g id="Group_4496" data-name="Group 4496" transform="translate(88.391 274.778)">
        <path id="Path_15097" data-name="Path 15097" d="M26.158,83.9a9.48,9.48,0,0,1-4.505,1.628C-.845,78.417,0,64.545,0,64.545A8.5,8.5,0,0,1,2.67,60.463l-.1-.1L55.935.083c9.48-1.371,28.448,14.605,26.1,24.676L26.365,84.1Z" transform="translate(1.115 1.076)" fill="#de442b"/>
        <path id="Path_15098" data-name="Path 15098" d="M0,6.506,6.128,0S23.38,3.067,29.974,23.083l-5.693,4.626S17.58,8.725,0,6.506Z" transform="translate(5.033 53.595)" fill="#ff9e11"/>
        <path id="Path_15099" data-name="Path 15099" d="M0,5.362,4.094,0s21.9,3.1,26.1,24.676l-6.519,6.237S19.681,14.67,0,5.362Z" transform="translate(52.956 1.159)" fill="#ff9e11"/>
        <path id="Path_15100" data-name="Path 15100" d="M0,6.9a15.232,15.232,0,0,0,2.354,8.165,25.522,25.522,0,0,0,5.511,6.321,60.222,60.222,0,0,0,6.705,4.982,18.634,18.634,0,0,0,3.954,1.295c1.3.421,2.571.926,3.837,1.465a.854.854,0,0,0,.4.068l.1-.008c2.356-.171,4.791-.684,6.737-2.907a6.64,6.64,0,0,0,.24-7.547c-1.3-1.981-2.9-3.391-3.857-5.344a15.054,15.054,0,0,0-3.9-5.093,46.819,46.819,0,0,0-10.8-7.023A11.8,11.8,0,0,0,7.959.337a4.511,4.511,0,0,0-1.895-.3A5.982,5.982,0,0,0,4.221.791C1.9,2.445,1.43,4.575.143,6.668Zm2.22-.319A4.128,4.128,0,0,1,5.43,3.4a5.121,5.121,0,0,1,1.12-.118c.358-.006.749-.38,1.195-.376a8.492,8.492,0,0,1,2.67.568c3.637,1.356,6.619,4.338,9.334,7.243A35.681,35.681,0,0,0,24.2,14.8a8.251,8.251,0,0,1,2.683,5.157c.4,1.828.644,3.241-.032,4.276-.63,1.1-2.494,1.979-4.174,2.268l.5.059c-1.255-.358-2.507-.75-3.724-1.228-1.162-.616-2.138-1.582-3.38-1.962-2.285-1.11-4.861-1.93-6.724-3.742a20.544,20.544,0,0,1-4.922-5.76A17.726,17.726,0,0,1,2.251,7.088Z" transform="translate(0 58.759)" fill="#bd342c"/>
        <path id="Path_15101" data-name="Path 15101" d="M25.7,85.972c9.428-9.75,18.488-19.845,27.828-29.678,4.6-4.985,9.773-9.427,14.285-14.491,4.14-5.414,9.053-10.1,13.776-14.969a1.415,1.415,0,0,0,.357-.668c.876-3.926-.622-7.537-2.341-10.489a35.681,35.681,0,0,0-6.568-7.9,35.3,35.3,0,0,0-8.474-5.716A18.979,18.979,0,0,0,54.279.128l-.044.006a.906.906,0,0,0-.588.335c-4.17,5.27-9.4,9.6-13.839,14.631-4.466,5.007-8.648,10.264-12.992,15.379-4.371,5.091-8.787,10.141-13.444,14.979-2.694,2.1-4.361,5.1-6.447,7.732A57.068,57.068,0,0,1,.32,60.783a1,1,0,1,0,1.359,1.465,1.054,1.054,0,0,0,.129-.147,57.09,57.09,0,0,1,6.735-7.478c2.361-2.391,5.14-4.41,6.894-7.337,4.237-5.21,8.715-10.206,13.238-15.162,4.55-4.932,9.26-9.723,13.689-14.762,4.461-5.012,8.12-10.733,12.844-15.511l-.63.341c2.881-.225,5.841,1.22,8.473,2.771a48.516,48.516,0,0,1,7.555,5.521,35.364,35.364,0,0,1,6.17,6.939c1.648,2.531,2.816,5.479,2.326,8.08l.357-.665C74.9,29.861,70.54,35.063,65.4,39.541c-4.765,4.827-8.867,10.276-13.548,15.182C42.638,64.672,33.143,74.36,24.015,84.391a1.155,1.155,0,0,0,1.685,1.58Z" transform="translate(2.623 0)" fill="#bd342c"/>
        <path id="Path_15102" data-name="Path 15102" d="M.99,2.185a21.074,21.074,0,0,1,7.676,2.91,25.238,25.238,0,0,1,6.51,5.4c1.509,2.37,4.473,3.845,5.895,6.272,1.516,2.451,1.926,4.979,2.468,7.625l.006.03a1.26,1.26,0,0,0,2.473-.024c.611-3.3-1.106-6.578-2.983-8.957-1.956-2.427-2.956-5.373-5.529-7.272a51.963,51.963,0,0,0-7.432-5.486A17.754,17.754,0,0,0,1.091,0,1.095,1.095,0,0,0,.964,2.182Z" transform="translate(10.12 52.503)" fill="#bd342c"/>
        <path id="Path_15103" data-name="Path 15103" d="M.7,2.118a49.384,49.384,0,0,1,7.8,3.95,26.579,26.579,0,0,1,6.491,5.77c2.081,1.969,4.4,3.943,5.66,6.628,1.231,2.681,2.134,5.4,3.333,8.081a1.253,1.253,0,0,0,1.647.653,1.275,1.275,0,0,0,.747-1.3,19.374,19.374,0,0,0-3.62-8.648c-1.762-2.564-3.107-5.464-5.22-7.862A57.167,57.167,0,0,0,9.986,3.7,28.133,28.133,0,0,0,1.351.031,1.1,1.1,0,0,0,.7,2.118Z" transform="translate(51.126 5.403)" fill="#bd342c"/>
      </g>
      <g id="Group_4497" data-name="Group 4497" transform="translate(79.982 345.443)">
        <path id="Path_15104" data-name="Path 15104" d="M29.839,89.007a9.478,9.478,0,0,1-4.023,2.6C2.295,89.743,0,76.036,0,76.036A8.489,8.489,0,0,1,1.679,71.46l-.117-.073L39.988.64c8.927-3.469,31,7.828,30.981,18.169L30.088,89.162Z" transform="translate(1.081 1.29)" fill="#de442b"/>
        <path id="Path_15105" data-name="Path 15105" d="M0,7.726,4.506.007s17.5-.894,28.429,17.123l-4.505,5.789S17.628,5.93,0,7.726Z" transform="translate(3.652 63.342)" fill="#ff9e11"/>
        <path id="Path_15106" data-name="Path 15106" d="M0,6.194,2.783.048s22.036-1.9,30.981,18.169l-4.949,7.545S21.272,10.833,0,6.194Z" transform="translate(38.286 1.881)" fill="#ff9e11"/>
        <path id="Path_15107" data-name="Path 15107" d="M0,8.246a15.232,15.232,0,0,0,4.132,7.425,25.509,25.509,0,0,0,6.793,4.918,60.143,60.143,0,0,0,7.654,3.344,18.65,18.65,0,0,0,4.144.372c1.364.116,2.714.323,4.068.564a.861.861,0,0,0,.4-.023l.1-.031c2.257-.7,4.514-1.745,5.91-4.349a6.639,6.639,0,0,0-1.465-7.407c-1.715-1.637-3.59-2.651-4.961-4.338a15.066,15.066,0,0,0-4.943-4.086A46.814,46.814,0,0,0,9.728.224,11.809,11.809,0,0,0,6.278.059,4.527,4.527,0,0,0,4.365.2,5.983,5.983,0,0,0,2.737,1.342C.852,3.476.869,5.658.087,7.986Zm2.091-.811A4.126,4.126,0,0,1,4.5,3.616a5.08,5.08,0,0,1,1.064-.367c.347-.087.644-.538,1.079-.635a8.475,8.475,0,0,1,2.73-.047c3.85.5,7.427,2.736,10.725,4.956A35.645,35.645,0,0,0,25.355,10.5a8.255,8.255,0,0,1,3.775,4.422c.8,1.691,1.356,3.012.93,4.173C29.7,20.309,28.076,21.58,26.5,22.24l.5-.054c-1.3-.066-2.612-.167-3.905-.359-1.271-.338-2.439-1.06-3.735-1.15-2.475-.567-5.17-.786-7.393-2.132a20.549,20.549,0,0,1-6.093-4.506A17.736,17.736,0,0,1,2.235,7.922Z" transform="translate(0 69.37)" fill="#bd342c"/>
        <path id="Path_15108" data-name="Path 15108" d="M30.571,91.032c6.991-11.623,13.547-23.5,20.434-35.18,3.357-5.892,7.4-11.385,10.657-17.335,2.815-6.206,6.547-11.881,10.053-17.685a1.419,1.419,0,0,0,.2-.732c-.03-4.023-2.3-7.2-4.643-9.693a35.653,35.653,0,0,0-8.179-6.223A35.276,35.276,0,0,0,49.549.522,18.976,18.976,0,0,0,39.094.958l-.042.015a.908.908,0,0,0-.5.46c-2.877,6.072-7,11.465-10.19,17.369-3.224,5.884-6.116,11.948-9.2,17.909-3.113,5.943-6.279,11.859-9.728,17.621-2.153,2.648-3.1,5.95-4.541,8.986A57.1,57.1,0,0,1,.172,72.2a1,1,0,1,0,1.655,1.122,1.063,1.063,0,0,0,.093-.172,57.006,57.006,0,0,1,4.879-8.8c1.762-2.86,4.015-5.453,5.065-8.7,2.955-6.03,6.193-11.905,9.484-17.752,3.322-5.83,6.835-11.557,10.015-17.464,3.218-5.888,5.5-12.285,9.023-18L39.85,2.9c2.757-.869,5.966-.126,8.88.793a48.453,48.453,0,0,1,8.6,3.678,35.37,35.37,0,0,1,7.574,5.372c2.176,2.1,3.977,4.7,4.085,7.349l.2-.729C65.883,25.285,62.8,31.337,58.8,36.856,55.247,42.632,52.477,48.864,49.02,54.7c-6.74,11.769-13.811,23.344-20.446,35.173a1.155,1.155,0,0,0,2,1.161Z" transform="translate(1.597 0)" fill="#bd342c"/>
        <path id="Path_15109" data-name="Path 15109" d="M1.238,2.534A21.078,21.078,0,0,1,9.372,3.641a25.251,25.251,0,0,1,7.559,3.8c2,1.969,5.224,2.739,7.155,4.784,2.029,2.047,3,4.418,4.12,6.873l.013.028a1.26,1.26,0,0,0,2.4-.579c-.148-3.35-2.559-6.161-4.923-8.055-2.451-1.926-4.09-4.571-7.024-5.841A52.028,52.028,0,0,0,10.2.976,17.749,17.749,0,0,0,.845.384a1.094,1.094,0,0,0,.367,2.154Z" transform="translate(7.117 61.891)" fill="#bd342c"/>
        <path id="Path_15110" data-name="Path 15110" d="M.938,2.181A49.339,49.339,0,0,1,9.425,4.275a26.584,26.584,0,0,1,7.623,4.16c2.471,1.45,5.179,2.85,7.007,5.184,1.8,2.336,3.293,4.779,5.065,7.123a1.253,1.253,0,0,0,1.752.266,1.275,1.275,0,0,0,.436-1.432,19.365,19.365,0,0,0-5.474-7.611c-2.293-2.1-4.258-4.624-6.856-6.486a57.2,57.2,0,0,0-8.635-3.844A28.164,28.164,0,0,0,1.1,0,1.1,1.1,0,0,0,.938,2.181Z" transform="translate(36.47 7.123)" fill="#bd342c"/>
      </g>
      <path id="Path_15111" data-name="Path 15111" d="M1.719,21.924a40.137,40.137,0,0,0,5.349-4.358c1.635-1.618,3.392-3.115,5.1-4.68,1.465-1.8,2.45-3.974,4.074-5.607A18.116,18.116,0,0,0,20.38,1.765,1.264,1.264,0,0,0,19.722.1a1.275,1.275,0,0,0-1.38.25,26.41,26.41,0,0,0-4,5.409c-1.209,1.913-3.177,3.19-4.779,4.738a37.856,37.856,0,0,1-4.428,5.043c-1.638,1.525-3.228,3.1-4.818,4.7a1.1,1.1,0,0,0,1.4,1.682Z" transform="translate(76.582 425.591)" fill="#a11010"/>
      <g id="Group_4498" data-name="Group 4498" transform="translate(113.356 99.161)">
        <path id="Path_15112" data-name="Path 15112" d="M29.839,89.007a9.478,9.478,0,0,1-4.023,2.6C2.295,89.744,0,76.037,0,76.037A8.494,8.494,0,0,1,1.679,71.46l-.118-.073L39.987.64c8.927-3.469,31,7.828,30.981,18.169L30.088,89.162Z" transform="translate(1.082 1.29)" fill="#de442b"/>
        <path id="Path_15113" data-name="Path 15113" d="M0,7.726,4.506.007s17.5-.894,28.43,17.123l-4.505,5.789S17.628,5.931,0,7.726Z" transform="translate(3.653 63.342)" fill="#ff9e11"/>
        <path id="Path_15114" data-name="Path 15114" d="M0,6.194,2.782.049S24.819-1.857,33.763,18.217l-4.948,7.545S21.272,10.834,0,6.194Z" transform="translate(38.287 1.881)" fill="#ff9e11"/>
        <path id="Path_15115" data-name="Path 15115" d="M0,8.246a15.236,15.236,0,0,0,4.132,7.425,25.522,25.522,0,0,0,6.793,4.919,60.226,60.226,0,0,0,7.655,3.345,18.682,18.682,0,0,0,4.144.372c1.364.116,2.714.324,4.068.564a.859.859,0,0,0,.4-.024l.1-.031c2.258-.7,4.515-1.745,5.91-4.349a6.639,6.639,0,0,0-1.465-7.408c-1.714-1.637-3.59-2.652-4.961-4.339a15.051,15.051,0,0,0-4.942-4.085A46.827,46.827,0,0,0,9.728.224,11.822,11.822,0,0,0,6.278.059,4.527,4.527,0,0,0,4.365.2,5.992,5.992,0,0,0,2.737,1.342C.853,3.476.87,5.658.087,7.986Zm2.092-.811A4.128,4.128,0,0,1,4.5,3.616a5.084,5.084,0,0,1,1.064-.367c.347-.086.644-.539,1.079-.635a8.479,8.479,0,0,1,2.73-.047c3.85.5,7.426,2.736,10.725,4.956A35.594,35.594,0,0,0,25.355,10.5a8.25,8.25,0,0,1,3.775,4.422c.8,1.69,1.357,3.011.931,4.172C29.7,20.31,28.076,21.58,26.5,22.24l.5-.055c-1.3-.066-2.612-.167-3.9-.358-1.272-.339-2.44-1.06-3.735-1.151-2.475-.567-5.17-.786-7.394-2.132a20.524,20.524,0,0,1-6.092-4.506A17.725,17.725,0,0,1,2.236,7.922Z" transform="translate(0 69.37)" fill="#bd342c"/>
        <path id="Path_15116" data-name="Path 15116" d="M30.57,91.032C37.562,79.41,44.118,67.535,51,55.852c3.357-5.892,7.4-11.385,10.657-17.334,2.815-6.207,6.546-11.881,10.053-17.685a1.415,1.415,0,0,0,.2-.731c-.03-4.023-2.3-7.2-4.643-9.693a35.635,35.635,0,0,0-8.178-6.223A35.278,35.278,0,0,0,49.549.522,18.982,18.982,0,0,0,39.094.958l-.042.016a.906.906,0,0,0-.5.459c-2.877,6.073-7,11.465-10.19,17.369-3.224,5.884-6.116,11.948-9.2,17.909-3.113,5.944-6.28,11.859-9.728,17.621-2.153,2.648-3.1,5.951-4.541,8.986A57.039,57.039,0,0,1,.172,72.2a1,1,0,1,0,1.654,1.122,1.066,1.066,0,0,0,.093-.172,57.048,57.048,0,0,1,4.879-8.8c1.762-2.86,4.016-5.454,5.065-8.7,2.956-6.03,6.194-11.906,9.485-17.753,3.322-5.83,6.834-11.558,10.015-17.464,3.218-5.888,5.5-12.285,9.023-18L39.85,2.9c2.757-.868,5.966-.126,8.88.793a48.506,48.506,0,0,1,8.6,3.678,35.357,35.357,0,0,1,7.573,5.373c2.176,2.095,3.977,4.7,4.085,7.349l.2-.729C65.883,25.286,62.8,31.337,58.8,36.856c-3.557,5.776-6.326,12.009-9.783,17.842-6.74,11.769-13.81,23.345-20.446,35.174a1.155,1.155,0,0,0,2,1.16Z" transform="translate(1.597 0)" fill="#bd342c"/>
        <path id="Path_15117" data-name="Path 15117" d="M1.238,2.534A21.09,21.09,0,0,1,9.372,3.641a25.251,25.251,0,0,1,7.559,3.8c2,1.969,5.223,2.74,7.155,4.785,2.029,2.047,3,4.418,4.12,6.873l.013.028a1.26,1.26,0,0,0,2.4-.579c-.147-3.351-2.559-6.161-4.923-8.055-2.451-1.925-4.09-4.571-7.023-5.841A51.949,51.949,0,0,0,10.2.977,17.752,17.752,0,0,0,.845.383a1.095,1.095,0,0,0,.367,2.154Z" transform="translate(7.117 61.891)" fill="#bd342c"/>
        <path id="Path_15118" data-name="Path 15118" d="M.938,2.18A49.349,49.349,0,0,1,9.425,4.275a26.585,26.585,0,0,1,7.623,4.16c2.471,1.45,5.179,2.85,7.007,5.184,1.8,2.336,3.294,4.779,5.065,7.124a1.254,1.254,0,0,0,1.753.266,1.274,1.274,0,0,0,.436-1.432,19.371,19.371,0,0,0-5.473-7.611c-2.293-2.1-4.258-4.625-6.857-6.486a57.231,57.231,0,0,0-8.635-3.844A28.135,28.135,0,0,0,1.1,0,1.1,1.1,0,0,0,.938,2.18Z" transform="translate(36.47 7.124)" fill="#bd342c"/>
      </g>
      <g id="Group_4499" data-name="Group 4499" transform="translate(106.451 187.777)">
        <path id="Path_15119" data-name="Path 15119" d="M29.839,89.007a9.477,9.477,0,0,1-4.023,2.6C2.295,89.744,0,76.037,0,76.037A8.485,8.485,0,0,1,1.679,71.46l-.117-.074L39.987.64c8.928-3.469,31.005,7.828,30.981,18.169L30.088,89.162Z" transform="translate(1.081 1.29)" fill="#de442b"/>
        <path id="Path_15120" data-name="Path 15120" d="M0,7.726,4.506.007S22-.888,32.935,17.13L28.43,22.919S17.628,5.93,0,7.726Z" transform="translate(3.653 63.343)" fill="#ff9e11"/>
        <path id="Path_15121" data-name="Path 15121" d="M0,6.195,2.782.048S24.819-1.857,33.763,18.218l-4.948,7.545S21.272,10.834,0,6.195Z" transform="translate(38.286 1.881)" fill="#ff9e11"/>
        <path id="Path_15122" data-name="Path 15122" d="M0,8.246a15.235,15.235,0,0,0,4.132,7.425,25.513,25.513,0,0,0,6.793,4.918,60.235,60.235,0,0,0,7.654,3.344,18.656,18.656,0,0,0,4.144.372c1.364.116,2.714.323,4.068.565a.861.861,0,0,0,.4-.024l.1-.031c2.257-.7,4.514-1.745,5.909-4.349a6.639,6.639,0,0,0-1.465-7.408c-1.715-1.637-3.59-2.651-4.961-4.338a15.053,15.053,0,0,0-4.942-4.086A46.8,46.8,0,0,0,9.727.223,11.8,11.8,0,0,0,6.278.059,4.519,4.519,0,0,0,4.364.2,5.983,5.983,0,0,0,2.737,1.342C.852,3.476.87,5.658.087,7.987Zm2.092-.81A4.126,4.126,0,0,1,4.5,3.616a5.144,5.144,0,0,1,1.064-.367c.348-.086.645-.539,1.079-.635a8.479,8.479,0,0,1,2.73-.047C13.226,3.069,16.8,5.3,20.1,7.523A35.637,35.637,0,0,0,25.355,10.5a8.252,8.252,0,0,1,3.774,4.421c.8,1.69,1.357,3.013.931,4.173-.365,1.219-1.984,2.488-3.555,3.149l.5-.054c-1.3-.066-2.612-.167-3.905-.358-1.271-.338-2.44-1.059-3.735-1.15-2.476-.567-5.17-.786-7.394-2.132a20.559,20.559,0,0,1-6.093-4.505A17.736,17.736,0,0,1,2.235,7.922Z" transform="translate(0 69.37)" fill="#bd342c"/>
        <path id="Path_15123" data-name="Path 15123" d="M30.571,91.032C37.562,79.41,44.118,67.535,51,55.852c3.357-5.892,7.4-11.385,10.657-17.335,2.815-6.206,6.547-11.88,10.053-17.685a1.42,1.42,0,0,0,.2-.731c-.03-4.023-2.3-7.2-4.643-9.693a35.628,35.628,0,0,0-8.179-6.223A35.27,35.27,0,0,0,49.549.522,18.977,18.977,0,0,0,39.094.958l-.041.016a.907.907,0,0,0-.5.459C35.679,7.5,31.552,12.9,28.366,18.8c-3.224,5.884-6.116,11.948-9.2,17.909-3.113,5.944-6.279,11.859-9.728,17.62-2.153,2.648-3.1,5.95-4.541,8.986A57.085,57.085,0,0,1,.172,72.2a1,1,0,0,0,1.654,1.122,1.026,1.026,0,0,0,.094-.172,57.013,57.013,0,0,1,4.879-8.8c1.762-2.86,4.015-5.454,5.065-8.7,2.956-6.029,6.194-11.905,9.485-17.752,3.322-5.83,6.835-11.557,10.015-17.464,3.218-5.887,5.5-12.285,9.023-18L39.85,2.9c2.757-.868,5.966-.126,8.88.792a48.516,48.516,0,0,1,8.6,3.678,35.415,35.415,0,0,1,7.574,5.373c2.175,2.1,3.977,4.7,4.085,7.35l.2-.729C65.883,25.286,62.8,31.337,58.8,36.856c-3.557,5.776-6.327,12.009-9.784,17.843-6.74,11.768-13.81,23.344-20.446,35.173a1.155,1.155,0,0,0,2,1.161Z" transform="translate(1.597 0)" fill="#bd342c"/>
        <path id="Path_15124" data-name="Path 15124" d="M1.238,2.534A21.075,21.075,0,0,1,9.371,3.642a25.25,25.25,0,0,1,7.56,3.8c2,1.969,5.223,2.739,7.155,4.785,2.029,2.046,3,4.418,4.12,6.873l.013.029a1.26,1.26,0,0,0,2.4-.58c-.148-3.351-2.559-6.16-4.923-8.055-2.451-1.925-4.09-4.571-7.024-5.841A51.92,51.92,0,0,0,10.2.977,17.746,17.746,0,0,0,.845.384a1.094,1.094,0,0,0,.366,2.154Z" transform="translate(7.117 61.891)" fill="#bd342c"/>
        <path id="Path_15125" data-name="Path 15125" d="M.938,2.181A49.374,49.374,0,0,1,9.425,4.275a26.6,26.6,0,0,1,7.623,4.161c2.471,1.45,5.179,2.85,7.007,5.184,1.8,2.336,3.294,4.779,5.065,7.123a1.253,1.253,0,0,0,1.752.266,1.273,1.273,0,0,0,.436-1.432,19.371,19.371,0,0,0-5.473-7.611c-2.294-2.1-4.258-4.625-6.857-6.486a57.18,57.18,0,0,0-8.635-3.844A28.157,28.157,0,0,0,1.1,0,1.1,1.1,0,0,0,.938,2.181Z" transform="translate(36.47 7.123)" fill="#bd342c"/>
      </g>
      <path id="Path_15126" data-name="Path 15126" d="M1.761,22.279a29.466,29.466,0,0,0,4.692-4.4l4.27-4.857c1.135-1.855,1.7-4.017,2.949-5.759A14.552,14.552,0,0,0,16.5,1.5,1.268,1.268,0,0,0,15.488.021a1.289,1.289,0,0,0-1.276.52,25.031,25.031,0,0,0-2.666,5.55C10.765,8.02,9.1,9.42,7.832,11a27.112,27.112,0,0,1-3.484,5.045L.276,20.673a1.1,1.1,0,0,0,1.485,1.606Z" transform="translate(104.732 270.038)" fill="#a11010"/>
      <g id="Group_4500" data-name="Group 4500" transform="translate(69.926 218.072)">
        <path id="Path_15127" data-name="Path 15127" d="M32.753,89.922A9.477,9.477,0,0,1,29.807,93.7C6.978,99.662.31,87.468.31,87.468a8.489,8.489,0,0,1,.083-4.875l-.135-.03L13.325,3.121c7.294-6.208,31.856-2.786,35.229,6.99L33.039,89.986Z" transform="translate(0.886 1.75)" fill="#de442b"/>
        <path id="Path_15128" data-name="Path 15128" d="M0,10.387l1.722-8.77S17.957-4.974,34.2,8.456L31.843,15.4S16.061,2.9,0,10.387Z" transform="translate(1.57 72.075)" fill="#ff9e11"/>
        <path id="Path_15129" data-name="Path 15129" d="M0,9.257.61,2.538S20.8-6.5,35.839,9.528l-2.2,8.751S21.615,6.655,0,9.257Z" transform="translate(13.601 2.334)" fill="#ff9e11"/>
        <path id="Path_15130" data-name="Path 15130" d="M.269,11.132A15.244,15.244,0,0,0,6.61,16.789,25.5,25.5,0,0,0,14.641,19.2a60.185,60.185,0,0,0,8.329.646,18.671,18.671,0,0,0,4.036-1.009c1.327-.338,2.669-.586,4.028-.8a.868.868,0,0,0,.372-.154l.084-.062c1.9-1.4,3.691-3.131,4.154-6.049a6.639,6.639,0,0,0-3.816-6.516c-2.157-.983-4.261-1.326-6.11-2.469A15.053,15.053,0,0,0,19.707.553,46.786,46.786,0,0,0,6.824.361a11.788,11.788,0,0,0-3.313.977A4.524,4.524,0,0,0,1.75,2.1,5.99,5.99,0,0,0,.588,3.713C-.492,6.347.241,8.4.267,10.859ZM1.979,9.68A4.126,4.126,0,0,1,3,5.281a5.118,5.118,0,0,1,.884-.7c.3-.2.432-.72.811-.954a8.495,8.495,0,0,1,2.563-.941c3.8-.789,7.913.146,11.758,1.161a35.7,35.7,0,0,0,5.939,1.083A8.255,8.255,0,0,1,29.975,7.87c1.313,1.333,2.27,2.4,2.249,3.636.055,1.271-1.058,3-2.325,4.142l.454-.215c-1.253.366-2.522.7-3.806.944-1.313.1-2.653-.2-3.906.14-2.525.277-5.142.955-7.684.413a20.548,20.548,0,0,1-7.234-2.255,17.729,17.729,0,0,1-5.448-4.583Z" transform="translate(0 78.714)" fill="#bd342c"/>
        <path id="Path_15131" data-name="Path 15131" d="M34.93,91.957c2.787-13.273,5.081-26.643,7.751-39.939,1.236-6.667,3.252-13.183,4.374-19.872.622-6.787,2.283-13.371,3.689-20.005a1.421,1.421,0,0,0-.053-.755c-1.35-3.79-4.54-6.049-7.568-7.631A35.645,35.645,0,0,0,33.355.56,35.269,35.269,0,0,0,23.138.234a18.972,18.972,0,0,0-9.731,3.844l-.034.028a.907.907,0,0,0-.319.6c-.723,6.68-2.85,13.13-3.922,19.753C8.018,31.072,7.278,37.749,6.324,44.391c-.989,6.637-2.037,13.263-3.4,19.838-1.163,3.208-.975,6.638-1.338,9.978A57.084,57.084,0,0,1,.034,84.152a1,1,0,0,0,1.931.516A1.138,1.138,0,0,0,2,84.475a56.959,56.959,0,0,1,1.718-9.916c.725-3.28,2-6.47,1.927-9.881C6.455,58.011,7.585,51.4,8.774,44.794,10,38.2,11.435,31.634,12.5,25.01,13.605,18.392,13.656,11.6,15.11,5.041l-.352.625C17.077,3.94,20.352,3.588,23.407,3.5a48.6,48.6,0,0,1,9.334.649,35.393,35.393,0,0,1,8.918,2.589c2.742,1.264,5.3,3.137,6.271,5.6l-.052-.753c-1.18,6.678-2.1,13.406-4.069,19.932-1.463,6.623-2.033,13.42-3.383,20.065-2.5,13.328-5.38,26.585-7.764,39.936a1.155,1.155,0,0,0,2.268.441Z" transform="translate(0.129 0)" fill="#bd342c"/>
        <path id="Path_15132" data-name="Path 15132" d="M1.586,4.427A21.083,21.083,0,0,1,9.633,2.8a25.251,25.251,0,0,1,8.387,1.1c2.539,1.2,5.833.872,8.329,2.17,2.588,1.267,4.282,3.189,6.149,5.139l.021.022A1.26,1.26,0,0,0,34.6,9.9c-1.239-3.117-4.44-4.979-7.3-5.992C24.357,2.9,21.941.935,18.753.7A51.89,51.89,0,0,0,9.54.012,17.752,17.752,0,0,0,.509,2.524,1.094,1.094,0,0,0,1.563,4.438Z" transform="translate(2.244 70.217)" fill="#bd342c"/>
        <path id="Path_15133" data-name="Path 15133" d="M1.3,3.605a49.329,49.329,0,0,1,8.7-.809,26.576,26.576,0,0,1,8.567,1.427c2.81.558,5.827.991,8.32,2.6,2.47,1.614,4.68,3.433,7.124,5.065a1.253,1.253,0,0,0,1.742-.325,1.275,1.275,0,0,0-.058-1.5,19.379,19.379,0,0,0-7.669-5.391C25.176,3.439,22.492,1.7,19.427.8A57.1,57.1,0,0,0,10.009,0,28.139,28.139,0,0,0,.744,1.491,1.1,1.1,0,0,0,1.3,3.605Z" transform="translate(11.872 9.434)" fill="#bd342c"/>
      </g>
      <g id="Group_4501" data-name="Group 4501" transform="translate(77.938 459.734)">
        <path id="Path_15134" data-name="Path 15134" d="M8.052,79.6S-4.125,70.74,1.47,62a4.176,4.176,0,0,1,.565-.926L37.724,2.518s4.181-6.23,17.991.911c0,0,10.173,7.731,10,16.224L28.96,78.858C26.064,85.153,19.257,85.933,8.052,79.6Z" transform="translate(1.158 1.387)" fill="#de442b"/>
        <path id="Path_15135" data-name="Path 15135" d="M0,8.717,5.765,0S23.1,3.627,30.975,17.769L26.925,26.5S21.506,8.013,0,8.717Z" transform="translate(3.193 53.75)" fill="#ff9e11"/>
        <path id="Path_15136" data-name="Path 15136" d="M0,7.708S2.663-2.463,11.527.562c0,0,17.381,2.771,18.865,19.25l-3.615,5.228S16.03,6.631,0,7.708Z" transform="translate(36.48 1.228)" fill="#ff9e11"/>
        <path id="Path_15137" data-name="Path 15137" d="M11.163,21.267,9.834,20.219a35.285,35.285,0,0,1-3.495-3.362A18.211,18.211,0,0,1,3.5,12.921,10.025,10.025,0,0,1,2.309,8.477a7.353,7.353,0,0,1,1.715-3.99l.1-.184c.225-.056.557-.788,1.064-1.247a3.414,3.414,0,0,1,2.139-.4,14.213,14.213,0,0,1,4.634,1.474,17.531,17.531,0,0,0,4.9,1.791c1.888.326,2.751,2.294,4.12,3.382l-.1-.08a53.34,53.34,0,0,1,6.553,6.76,6.812,6.812,0,0,1,1.623,3.57,5.384,5.384,0,0,1-.762,1.7,6.526,6.526,0,0,1-1.4,1.581c-2.111,1.8-5.465,1.91-8.261.652A21.9,21.9,0,0,1,11.163,21.267Zm-2.947.6.455.161c3.281,1.162,5.808,3.366,9.2,4.564a5.791,5.791,0,0,0,2.674.169,14.531,14.531,0,0,0,2.706-.028A9.907,9.907,0,0,0,28.4,24.649a8.858,8.858,0,0,0,1.874-2.076,6.829,6.829,0,0,0,1.308-2.722c.194-2.387-.844-3.993-1.711-5.51A34.892,34.892,0,0,0,23.1,6.629l-.052-.045L23,6.548c-1.616-.973-3.694-1.132-4.953-2.618A9.743,9.743,0,0,0,13.235.847,16.378,16.378,0,0,0,7.3.037,15.357,15.357,0,0,0,4.137.663,3.849,3.849,0,0,0,1.131,2.882l.1-.183A10.86,10.86,0,0,0,.009,8.486a12.4,12.4,0,0,0,1.436,5.472,21.839,21.839,0,0,0,3.066,4.527A22.77,22.77,0,0,0,8.216,21.866Z" transform="translate(0 59.799)" fill="#bd342c"/>
        <path id="Path_15138" data-name="Path 15138" d="M2.132,63.993c7.917-12.53,15.28-25.4,23.185-37.94C29.4,19.864,33.75,13.855,36.93,7.1c.437-.819.962-1.583,1.445-2.374A4.367,4.367,0,0,1,40.02,3.478a9.069,9.069,0,0,1,4.756-.628,27.564,27.564,0,0,1,9.818,3.5l-.251-.159a39.523,39.523,0,0,1,6.314,6.756c1.793,2.453,3.342,5.112,3.6,8.067l.17-.573c-2.563,5.244-6.453,9.664-9.666,14.5-3.15,4.88-5.89,10.013-8.822,15.029S39.92,59.91,36.7,64.744c-2.136,2.092-3.04,4.949-4.406,7.517a40.866,40.866,0,0,1-4.5,7.459,1,1,0,0,0,1.568,1.247,1.081,1.081,0,0,0,.122-.2,40.92,40.92,0,0,1,4.688-7.342c1.7-2.364,3.855-4.441,4.783-7.284q4.353-7.55,9.135-14.835c3.193-4.852,6.579-9.585,9.555-14.573,2.912-5.027,5.148-10.474,8.711-15.1a.758.758,0,0,0,.157-.41l.013-.165A16.325,16.325,0,0,0,63.6,10.913a32.261,32.261,0,0,0-7.159-7.474l-.03-.022a1.424,1.424,0,0,0-.223-.138A29.981,29.981,0,0,0,44.971.016a12.736,12.736,0,0,0-6.1,1.13,6.665,6.665,0,0,0-2.621,2.22c-.482.792-.922,1.611-1.449,2.374-4.536,5.9-7.9,12.554-11.535,19.026C15.742,37.55,7.674,50,.159,62.791a1.155,1.155,0,0,0,1.973,1.2Z" transform="translate(1.483 0)" fill="#bd342c"/>
        <path id="Path_15139" data-name="Path 15139" d="M.777,2.147c2.443.747,4.814,1.622,7.155,2.574a26.433,26.433,0,0,1,6.481,3.873c2.151,1.256,4.581,2.327,6.249,4.284,1.555,1.995,3.495,3.987,3.756,5.418l.033.178a1.241,1.241,0,0,0,2.439.018,5.617,5.617,0,0,0-1.533-4.584,26.61,26.61,0,0,0-3.007-2.779c-2.095-1.674-3.783-3.862-6-5.485C11.541,3.146,6.631.672,1.232.008A1.1,1.1,0,0,0,.777,2.147Z" transform="translate(8.33 52.788)" fill="#bd342c"/>
        <path id="Path_15140" data-name="Path 15140" d="M1.318,2.935a17.861,17.861,0,0,1,7.867.354A16.549,16.549,0,0,1,16.133,7.16c2.189,1.507,4.595,3.108,6.094,5.505a68.654,68.654,0,0,0,4.542,7.128,1.255,1.255,0,0,0,2.16-1.218A23.191,23.191,0,0,0,24.165,11.2C22.2,9.015,20.66,6.361,18.286,4.361A29.334,29.334,0,0,0,9.9.586,15.3,15.3,0,0,0,.724.83a1.1,1.1,0,0,0,.594,2.1Z" transform="translate(35.023 7.288)" fill="#bd342c"/>
      </g>
      <g id="Group_4502" data-name="Group 4502" transform="translate(8.868 333.654)">
        <path id="Path_15141" data-name="Path 15141" d="M53.708,81.062s-13.628,6.409-18.592-2.7a4.131,4.131,0,0,1-.54-.94L.418,17.953S-3.03,11.29,9.876,2.622c0,0,11.672-5.2,19.035-.957L63.12,62.376C67.244,67.943,64.651,74.287,53.708,81.062Z" transform="translate(1.291 1.709)" fill="#de442b"/>
        <path id="Path_15142" data-name="Path 15142" d="M4.866,22.8,0,13.548S11.523.1,27.708,0l5.7,7.75S14.6,3.6,4.866,22.8Z" transform="translate(31.001 56.335)" fill="#ff9e11"/>
        <path id="Path_15143" data-name="Path 15143" d="M3.616,22.608S-4.019,15.379,2.9,9.064c0,0,10.793-13.9,25.953-7.272L31.7,7.476S10.386,8.038,3.616,22.608Z" transform="translate(1.348 1.582)" fill="#ff9e11"/>
        <path id="Path_15144" data-name="Path 15144" d="M21.7,19.749l-1.559.66a35.3,35.3,0,0,1-4.628,1.446,18.228,18.228,0,0,1-4.819.6,10.029,10.029,0,0,1-4.467-1.1A7.358,7.358,0,0,1,3.55,17.931l-.112-.178c.059-.224-.423-.868-.581-1.533a3.42,3.42,0,0,1,.675-2.071A14.212,14.212,0,0,1,7.054,10.8a17.5,17.5,0,0,0,3.929-3.435c1.2-1.5,3.335-1.307,4.947-1.983l-.119.05a53.337,53.337,0,0,1,9.079-2.491,6.824,6.824,0,0,1,3.911.3,5.419,5.419,0,0,1,1.127,1.489,6.508,6.508,0,0,1,.715,1.984c.559,2.716-.956,5.71-3.4,7.555A21.891,21.891,0,0,1,21.7,19.749ZM20.8,22.62l.36-.322c2.6-2.317,5.745-3.47,8.428-5.866a5.792,5.792,0,0,0,1.434-2.262A14.513,14.513,0,0,0,32.3,11.784a9.9,9.9,0,0,0,.653-5.515,8.865,8.865,0,0,0-.919-2.642A6.823,6.823,0,0,0,30.28,1.17c-2-1.319-3.905-1.181-5.653-1.152A34.9,34.9,0,0,0,14.608,2.24l-.064.024-.057.027c-1.63.949-2.77,2.693-4.678,3.082A9.743,9.743,0,0,0,4.793,8.1a16.385,16.385,0,0,0-3.566,4.813A15.32,15.32,0,0,0,.252,15.99a3.846,3.846,0,0,0,.5,3.7l-.111-.177a10.861,10.861,0,0,0,4.484,3.858,12.406,12.406,0,0,0,5.488,1.375,21.861,21.861,0,0,0,5.443-.508A22.8,22.8,0,0,0,20.8,22.62Z" transform="translate(34.312 61.347)" fill="#bd342c"/>
        <path id="Path_15145" data-name="Path 15145" d="M37.409,79.5c-7.175-12.971-14.914-25.62-22.1-38.583C11.847,34.358,8.675,27.65,4.281,21.61,3.773,20.832,3.357,20,2.9,19.2a4.348,4.348,0,0,1-.3-2.042,9.078,9.078,0,0,1,1.738-4.472,27.566,27.566,0,0,1,7.8-6.92l-.261.144a39.541,39.541,0,0,1,8.961-2.283c3.012-.391,6.089-.469,8.8.726l-.421-.425c3.364,4.77,5.366,10.308,8.062,15.454,2.762,5.11,5.943,9.983,8.929,14.966s5.811,10.057,8.5,15.209c.805,2.879,2.874,5.046,4.469,7.48a40.939,40.939,0,0,1,4.373,7.535A1,1,0,0,0,65.39,63.8a1.061,1.061,0,0,0-.114-.2A40.959,40.959,0,0,1,61.1,55.954c-1.256-2.625-2.038-5.518-4.082-7.7q-4.523-7.449-8.608-15.146c-2.716-5.135-5.236-10.382-8.176-15.39-3-4.972-6.7-9.554-9.042-14.9a.76.76,0,0,0-.284-.335l-.139-.092A16.327,16.327,0,0,0,20.46.071a32.234,32.234,0,0,0-10,2.678l-.034.015a1.421,1.421,0,0,0-.228.13,29.975,29.975,0,0,0-8.257,8.26A12.736,12.736,0,0,0,0,17.042a6.682,6.682,0,0,0,.685,3.366c.463.8.969,1.583,1.384,2.412C5.06,29.637,9.273,35.785,13.2,42.088,20.779,54.839,27.81,67.9,35.4,80.646a1.156,1.156,0,0,0,2-1.151Z" transform="translate(0 0)" fill="#bd342c"/>
        <path id="Path_15146" data-name="Path 15146" d="M1.863,16.053c1.831-1.783,3.738-3.44,5.7-5.033A26.447,26.447,0,0,1,14.077,7.2c2.136-1.281,4.245-2.895,6.762-3.416,2.5-.4,5.177-1.144,6.557-.685l.172.057a1.241,1.241,0,0,0,1.19-2.129A5.619,5.619,0,0,0,24,.167a26.482,26.482,0,0,0-3.883,1.3c-2.476,1.03-5.206,1.457-7.693,2.615C7.919,7.1,3.387,10.211.208,14.624a1.1,1.1,0,0,0,1.655,1.429Z" transform="translate(30.249 54.269)" fill="#bd342c"/>
        <path id="Path_15147" data-name="Path 15147" d="M2.144,16.86a17.872,17.872,0,0,1,4.1-6.727,16.549,16.549,0,0,1,6.738-4.227c2.375-1.194,4.936-2.532,7.758-2.693a68.444,68.444,0,0,0,8.435-.551A1.255,1.255,0,0,0,29.142.184,23.2,23.2,0,0,0,20.383.81c-2.86.672-5.927.744-8.822,1.863A29.326,29.326,0,0,0,4.215,8.207a15.291,15.291,0,0,0-4.2,8.161,1.1,1.1,0,0,0,2.13.493Z" transform="translate(3.88 8.072)" fill="#bd342c"/>
      </g>
      <g id="Group_4503" data-name="Group 4503" transform="translate(0 474.865)">
        <path id="Path_15148" data-name="Path 15148" d="M66.7,48.966s3.716,5.93-6.828,16.589c0,0-11.526,9.552-17.084,3.277a4.637,4.637,0,0,1-.593-.68l-.006,0L.239,20.8S-1.789,12.435,5.964,5.567c0,0,10.266-8.369,17.463-4.585L66.172,48.366l-.107.088A7.329,7.329,0,0,1,66.7,48.966Z" transform="translate(1.258 1.596)" fill="#de442b"/>
        <path id="Path_15149" data-name="Path 15149" d="M5.309,26.126,0,19.555S2.058,7.994,22.652,0l6.359,7.179S10.436,8.772,5.309,26.126Z" transform="translate(36.519 41.216)" fill="#ff9e11"/>
        <path id="Path_15150" data-name="Path 15150" d="M4.514,24.1.3,19.924S-1.994,12.7,6.03,4.692c0,0,8.688-5.523,17.463-4.585l5.2,6.157A18.212,18.212,0,0,0,14.7,8.408C10.549,11.007,5.744,17.241,4.514,24.1Z" transform="translate(1.193 2.471)" fill="#ff9e11"/>
        <path id="Path_15151" data-name="Path 15151" d="M17.072,21.246c-.381.234-.717.5-1.092.713a22.751,22.751,0,0,1-4.065,1.97C9.178,24.935,5.958,25.01,4.4,22.782l-.131-.128a5.814,5.814,0,0,1-.867-3.5,5.958,5.958,0,0,1,.774-4.114,24.429,24.429,0,0,1,6.51-6.568c1.272-.934,2.556-1.823,3.792-2.8a12.232,12.232,0,0,1,3.954-2.565,7.457,7.457,0,0,1,4.377.1,8.933,8.933,0,0,1,3.442,1.654L26.03,4.59a5.789,5.789,0,0,1,.616,3.6,10.842,10.842,0,0,1-1.46,4.086c-.577,1.413-2.178,2.12-2.572,3.7a7.158,7.158,0,0,1-2.749,3.643Zm3.954.155.181-.324a11.836,11.836,0,0,1,3.525-3.456c1.539-.923,1.734-2.83,2.607-4.226a20.509,20.509,0,0,0,1.7-4.806,8.73,8.73,0,0,0-.337-5.67l-.048-.075-.172-.2A7.474,7.474,0,0,0,23.211,0c-2.021-.026-3.724.779-5.371,1.282-1.641.557-3.372.925-5.013,1.579a17.778,17.778,0,0,0-4.357,2.8,26.607,26.607,0,0,0-6.49,8.185C1.327,15.471.124,17.046,0,19.128a6.922,6.922,0,0,0,2.635,5.459l-.13-.127a8.273,8.273,0,0,0,4.987,2.394,12.97,12.97,0,0,0,5.17-.709A25.181,25.181,0,0,0,17.227,24.1,31.592,31.592,0,0,0,21.027,21.4Z" transform="translate(40.598 46.808)" fill="#bd342c"/>
        <path id="Path_15152" data-name="Path 15152" d="M44.316,68.987C37.464,60.97,30.288,53.24,23.334,45.313c-3.524-3.922-6.978-7.906-10.211-12.085-1.656-2.055-3.314-4.108-5.149-6a75.037,75.037,0,0,1-5.547-5.651l.277.53a13.781,13.781,0,0,1,1.141-7.965A16.013,16.013,0,0,1,8.988,7.926,34.006,34.006,0,0,1,16.482,4.1c2.577-.828,5.2-1.412,7.672-.513l-.316-.245c4.008,3.546,6.856,8.139,10.278,12.214,3.478,4.025,7.326,7.715,11,11.56S52.327,34.939,55.77,39c1.236,2.466,3.572,3.94,5.5,5.785a34.29,34.29,0,0,1,5.426,5.848,1,1,0,1,0,1.647-1.144,1.035,1.035,0,0,0-.17-.188,34.25,34.25,0,0,1-5.26-6c-1.638-2.1-2.864-4.579-5.189-6.061C54.037,33.4,50.443,29.477,47,25.423s-6.723-8.259-10.37-12.131c-3.7-3.822-7.979-7.127-11.094-11.478a.579.579,0,0,0-.169-.158l-.148-.088A11.572,11.572,0,0,0,20.32,0a15.043,15.043,0,0,0-4.948.676,27.4,27.4,0,0,0-8.357,4.54,18.9,18.9,0,0,0-5.8,7.811,17.819,17.819,0,0,0-.925,9.655,1.01,1.01,0,0,0,.261.514l.017.017A75.165,75.165,0,0,1,5.51,29.406c1.66,2.051,3.5,3.945,5.339,5.836,3.76,3.714,7.3,7.623,10.766,11.594,7.031,7.859,13.839,15.915,20.972,23.683a1.155,1.155,0,0,0,1.729-1.532Z" transform="translate(0 0)" fill="#bd342c"/>
        <path id="Path_15153" data-name="Path 15153" d="M2.133,21.482a33.652,33.652,0,0,1,3.479-7.034,20.11,20.11,0,0,1,5.457-5.56c1.877-1.745,3.825-3.728,6.381-4.536C20,3.572,22.519,3.164,25.077,2.511A1.255,1.255,0,0,0,26.011,1,1.287,1.287,0,0,0,24.893.038a15.286,15.286,0,0,0-8.387,2.074c-2.53,1.336-5.336,2.274-7.7,4.063a41.339,41.339,0,0,0-5.534,6.741A21.411,21.411,0,0,0,.018,20.929a1.1,1.1,0,0,0,2.115.553Z" transform="translate(35.224 40.387)" fill="#bd342c"/>
        <path id="Path_15154" data-name="Path 15154" d="M2.168,21.137a54.71,54.71,0,0,1,2.3-8.082A11.943,11.943,0,0,1,9.282,7.008c2.03-1.648,4.361-3.415,7.137-3.782a58.471,58.471,0,0,1,8.17-.146h.028A1.253,1.253,0,0,0,25.045.642a14.619,14.619,0,0,0-9.157.212c-2.9.905-6,1.53-8.681,3.3a19.552,19.552,0,0,0-5.333,7.862A28.361,28.361,0,0,0,0,20.83a1.1,1.1,0,0,0,2.165.307Z" transform="translate(4.375 6.914)" fill="#bd342c"/>
      </g>
      <g id="Group_4504" data-name="Group 4504" transform="translate(8.113 422.926)">
        <path id="Path_15155" data-name="Path 15155" d="M52.954,70.067c-12.877,8.712-19.582,3.4-19.582,3.4L.356,19.461s-3.409-8.725,10.87-16.277c0,0,9.276-5.787,15.861-1.756L60.895,55.618C64.183,63.062,52.954,70.067,52.954,70.067Z" transform="translate(1.259 1.696)" fill="#de442b"/>
        <path id="Path_15156" data-name="Path 15156" d="M4.265,21.943,0,15.108S8.023-.3,28.558,0l2.678,6.468S11.191,4.057,4.265,21.943Z" transform="translate(28.113 48.522)" fill="#ff9e11"/>
        <path id="Path_15157" data-name="Path 15157" d="M2.715,23.666s-8.654-9.522,4.935-18.9c0,0,11.188-7.432,19.379-3.726l4.446,7.852S13.912,5.377,2.715,23.666Z" transform="translate(1.315 2.087)" fill="#ff9e11"/>
        <path id="Path_15158" data-name="Path 15158" d="M1.953,23.214c3.517,2.357,6.921,2.141,10.281,1.523a31,31,0,0,0,9.236-3.991c2.66-1.826,6.381-2.972,7.773-6.449a20.715,20.715,0,0,0,2.61-4.7,8.687,8.687,0,0,0-.115-5.823,1.144,1.144,0,0,0-.117-.222A8.118,8.118,0,0,0,26.228.079a17.731,17.731,0,0,0-5.784.6,45.85,45.85,0,0,0-5.494.957A19.223,19.223,0,0,0,10.2,4.3a37.088,37.088,0,0,0-8.022,7.528,19.38,19.38,0,0,1-1.7,2.4,5.362,5.362,0,0,0-.446,3.017A22.163,22.163,0,0,0,1.866,23Zm1.3-1.669a3.934,3.934,0,0,1-.628-4.085c.226-.721.625-1.332.8-2.052a3.552,3.552,0,0,1,.788-2.2,17.671,17.671,0,0,1,7.529-6.293c1.544-.764,3.07-1.438,4.518-2.236,1.442-.757,2.851-1.882,4.5-2.106a7.835,7.835,0,0,1,4.615.776,8.9,8.9,0,0,1,3.259,2.073l-.116-.22c1.211,2.092.745,5.236-1.314,7.516-2.641,1.6-4.036,4.6-6.936,6.072a26.1,26.1,0,0,1-8.521,3.623,16.328,16.328,0,0,1-4.458.219,10.074,10.074,0,0,1-2.138-.392,17.768,17.768,0,0,1-1.687-.669Z" transform="translate(32.024 52.827)" fill="#bd342c"/>
        <path id="Path_15159" data-name="Path 15159" d="M35.616,74.561c-5.339-9.1-11.06-17.969-16.513-27-2.8-4.473-5.448-9.034-7.911-13.711a75.622,75.622,0,0,0-4.083-6.778,63.466,63.466,0,0,1-4.431-6.565l.1.2a7.806,7.806,0,0,1,.166-4.4A11.628,11.628,0,0,1,5.3,12.226a25.176,25.176,0,0,1,7.962-5.868l.1-.06a27.411,27.411,0,0,1,7.2-2.585c2.445-.446,4.911-.652,7.2.351l-.36-.357c3.278,4.229,5.241,9.278,7.943,13.866,2.754,4.555,5.882,8.877,8.829,13.312s5.736,8.968,8.394,13.584c.8,2.637,2.852,4.494,4.419,6.653A34.71,34.71,0,0,1,61.31,57.84,1,1,0,0,0,63.131,57,1.054,1.054,0,0,0,63,56.788a34.755,34.755,0,0,1-4.137-6.83c-1.25-2.356-2.017-5.015-4.032-6.895q-4.466-6.624-8.511-13.511c-2.687-4.6-5.195-9.306-8.076-13.782-2.933-4.444-6.6-8.427-8.962-13.23a.672.672,0,0,0-.214-.254l-.146-.1A12.525,12.525,0,0,0,24.61.232,13.635,13.635,0,0,0,19.951.173,22.663,22.663,0,0,0,11.6,3.461l.1-.059a27.765,27.765,0,0,0-8.64,7.023A14.515,14.515,0,0,0,.407,15.574a10.805,10.805,0,0,0,.047,6.035l.079.169.019.029a63.511,63.511,0,0,1,3.823,6.936,75.489,75.489,0,0,0,4.171,6.724c3.04,4.325,5.891,8.764,8.6,13.292,5.552,8.971,10.837,18.105,16.5,27.007a1.155,1.155,0,0,0,1.971-1.2Z" transform="translate(0 0)" fill="#bd342c"/>
        <path id="Path_15160" data-name="Path 15160" d="M2.141,17.35a14.758,14.758,0,0,1,4.316-6.165,22.516,22.516,0,0,1,6.887-3.971c2.368-1.28,4.7-3.076,7.311-3.685a18.514,18.514,0,0,1,7.376-.26l.078.014A1.249,1.249,0,0,0,28.951.967C26-.7,22.5.061,19.91,1.217c-2.687,1.164-5.453,1.707-8.126,2.83A48.793,48.793,0,0,0,4.6,9.1,13.4,13.4,0,0,0,.017,16.831a1.1,1.1,0,0,0,2.112.553Z" transform="translate(27.712 46.699)" fill="#bd342c"/>
        <path id="Path_15161" data-name="Path 15161" d="M2.139,17.172a19.913,19.913,0,0,1,4.23-6.9,17.763,17.763,0,0,1,6.895-4.356c2.415-1.22,5.024-2.6,7.869-2.618,2.643-.086,5.891.9,9.114-.982A1.243,1.243,0,0,0,29.309.04l-.1.027c-2.271.588-5.143.228-8.291.812-3,.537-6.143.663-9.1,1.819A31.6,31.6,0,0,0,4.342,8.348,16.534,16.534,0,0,0,.019,16.635a1.1,1.1,0,0,0,2.109.569Z" transform="translate(4.13 9.672)" fill="#bd342c"/>
      </g>
      <g id="Group_4505" data-name="Group 4505" transform="translate(40.014 378.498)">
        <path id="Path_15162" data-name="Path 15162" d="M33.615,77.255c-14.99,4.127-19.64-3.052-19.64-3.052L0,12.465S-.433,3.107,15.512.528c0,0,10.642-2.51,15.588,3.417L45.766,66.111C46.5,74.216,33.615,77.255,33.615,77.255Z" transform="translate(1.243 1.804)" fill="#de442b"/>
        <path id="Path_15163" data-name="Path 15163" d="M1.85,15.116,0,7.276S12.535-4.747,31.891,2.117L32.356,9.1S14.142.392,1.85,15.116Z" transform="translate(12.739 55.717)" fill="#ff9e11"/>
        <path id="Path_15164" data-name="Path 15164" d="M.8,17.3S-4.351,5.5,11.528.97c0,0,12.98-3.457,19.551,2.678l1.7,8.863S17.263,3.558.8,17.3Z" transform="translate(1.263 2.1)" fill="#ff9e11"/>
        <path id="Path_15165" data-name="Path 15165" d="M.163,16.275c2.576,3.36,5.87,4.245,9.252,4.736a31.014,31.014,0,0,0,10.028-.822c3.1-.878,7-.771,9.428-3.619a20.714,20.714,0,0,0,3.977-3.613A8.684,8.684,0,0,0,34.6,7.4a1.081,1.081,0,0,0-.04-.247A8.117,8.117,0,0,0,30.57,2.136,17.735,17.735,0,0,0,24.9.853,45.68,45.68,0,0,0,19.387,0a19.182,19.182,0,0,0-5.346,1A37.09,37.09,0,0,0,4.03,5.558,19.507,19.507,0,0,1,1.652,7.286,5.356,5.356,0,0,0,.264,10a22.184,22.184,0,0,0-.114,6.043ZM1.93,15.111a3.935,3.935,0,0,1,.714-4.072c.444-.611,1.018-1.061,1.417-1.687A3.56,3.56,0,0,1,5.513,7.517a17.672,17.672,0,0,1,9.148-3.549c1.707-.229,3.368-.379,5-.672,1.608-.255,3.3-.87,4.941-.552a7.834,7.834,0,0,1,4.123,2.214,8.91,8.91,0,0,1,2.424,3.007l-.04-.245c.477,2.37-.972,5.2-3.653,6.7-3.013.667-5.3,3.064-8.515,3.531a26.1,26.1,0,0,1-9.233.7,16.3,16.3,0,0,1-4.293-1.22,10.032,10.032,0,0,1-1.9-1.056A17.667,17.667,0,0,1,2.127,15.2Z" transform="translate(14.153 60.353)" fill="#bd342c"/>
        <path id="Path_15166" data-name="Path 15166" d="M16.344,75.751C14.2,65.419,11.623,55.186,9.351,44.884c-1.217-5.133-2.268-10.3-3.1-15.523a75.676,75.676,0,0,0-1.7-7.728,63.549,63.549,0,0,1-2.095-7.638l.03.216A7.8,7.8,0,0,1,4.053,10.1,11.624,11.624,0,0,1,7.6,6.99a25.178,25.178,0,0,1,9.423-3.008l.118-.023a27.431,27.431,0,0,1,7.646-.143c2.459.361,4.86.955,6.708,2.64L31.269,6c1.75,5.056,1.992,10.468,3.083,15.679,1.149,5.2,2.727,10.294,4.1,15.439s2.56,10.334,3.6,15.557c-.086,2.755,1.262,5.171,2.055,7.719a34.764,34.764,0,0,1,1.936,7.747,1,1,0,1,0,1.935-.457,34.74,34.74,0,0,1-1.73-7.8c-.429-2.633-.3-5.4-1.611-7.823Q42.527,44.363,40.9,36.543c-1.072-5.216-1.939-10.48-3.234-15.644-1.354-5.149-3.555-10.1-4.25-15.4a.676.676,0,0,0-.122-.308l-.105-.146a12.522,12.522,0,0,0-3.458-3.228,13.623,13.623,0,0,0-4.4-1.549A22.654,22.654,0,0,0,16.373.7l.116-.023A27.771,27.771,0,0,0,6.053,4.566,14.532,14.532,0,0,0,1.888,8.594,10.8,10.8,0,0,0,0,14.325a.675.675,0,0,0,.021.185l.008.033a63.46,63.46,0,0,1,1.4,7.8,75.452,75.452,0,0,0,1.8,7.706C4.72,35.115,6,40.234,7.111,45.391c2.385,10.277,4.464,20.623,6.98,30.871a1.155,1.155,0,0,0,2.253-.51Z" transform="translate(0 0)" fill="#bd342c"/>
        <path id="Path_15167" data-name="Path 15167" d="M1.98,9.661A14.763,14.763,0,0,1,8.044,5.2a22.516,22.516,0,0,1,7.8-1.556C18.494,3.2,21.275,2.24,23.947,2.5a18.494,18.494,0,0,1,7.07,2.116l.069.039A1.25,1.25,0,0,0,32.626,2.73C30.363.2,26.806-.194,23.981.07c-2.919.243-5.712-.13-8.6.078A48.865,48.865,0,0,0,6.953,2.63,13.407,13.407,0,0,0,.134,8.489a1.1,1.1,0,0,0,1.824,1.2Z" transform="translate(12.272 54.285)" fill="#bd342c"/>
        <path id="Path_15168" data-name="Path 15168" d="M1.977,10.629A19.9,19.9,0,0,1,8.2,5.448a17.755,17.755,0,0,1,7.926-1.917c2.678-.382,5.591-.85,8.292.04,2.531.766,5.293,2.739,8.948,1.99A1.243,1.243,0,0,0,33.2,3.1L33.1,3.1c-2.34-.169-4.945-1.431-8.114-1.886C21.969.756,18.952-.132,15.781.016a31.573,31.573,0,0,0-8.89,2.96A16.526,16.526,0,0,0,.142,9.441a1.095,1.095,0,0,0,1.815,1.214Z" transform="translate(1.854 10.518)" fill="#bd342c"/>
      </g>
      <g id="Group_4506" data-name="Group 4506" transform="translate(45.42 122.866)">
        <path id="Path_15169" data-name="Path 15169" d="M52.954,70.067c-12.877,8.712-19.582,3.4-19.582,3.4L.356,19.46s-3.409-8.725,10.87-16.276c0,0,9.276-5.787,15.86-1.756L60.895,55.618C64.183,63.062,52.954,70.067,52.954,70.067Z" transform="translate(1.259 1.696)" fill="#de442b"/>
        <path id="Path_15170" data-name="Path 15170" d="M4.264,21.943,0,15.109S8.023-.3,28.558,0l2.678,6.468S11.191,4.057,4.264,21.943Z" transform="translate(28.114 48.522)" fill="#ff9e11"/>
        <path id="Path_15171" data-name="Path 15171" d="M2.716,23.667s-8.654-9.523,4.935-18.9c0,0,11.188-7.433,19.379-3.726l4.446,7.852S13.912,5.376,2.716,23.667Z" transform="translate(1.315 2.087)" fill="#ff9e11"/>
        <path id="Path_15172" data-name="Path 15172" d="M1.953,23.215c3.517,2.357,6.92,2.141,10.281,1.522a31,31,0,0,0,9.236-3.991c2.66-1.826,6.381-2.972,7.773-6.448a20.749,20.749,0,0,0,2.609-4.7,8.687,8.687,0,0,0-.115-5.823,1.16,1.16,0,0,0-.117-.222A8.121,8.121,0,0,0,26.227.079a17.737,17.737,0,0,0-5.785.6,45.88,45.88,0,0,0-5.494.956A19.2,19.2,0,0,0,10.2,4.3a37.033,37.033,0,0,0-8.022,7.528,19.422,19.422,0,0,1-1.7,2.4,5.359,5.359,0,0,0-.445,3.018A22.145,22.145,0,0,0,1.866,23Zm1.3-1.67a3.933,3.933,0,0,1-.628-4.085c.225-.721.625-1.331.8-2.052a3.556,3.556,0,0,1,.788-2.2,17.667,17.667,0,0,1,7.529-6.293c1.544-.764,3.069-1.439,4.517-2.237,1.442-.757,2.851-1.882,4.5-2.105a7.82,7.82,0,0,1,4.614.776,8.9,8.9,0,0,1,3.259,2.072l-.116-.22c1.211,2.092.745,5.236-1.314,7.516-2.641,1.6-4.036,4.6-6.936,6.073a26.073,26.073,0,0,1-8.521,3.622,16.3,16.3,0,0,1-4.458.22,10.025,10.025,0,0,1-2.138-.393,17.553,17.553,0,0,1-1.688-.668Z" transform="translate(32.024 52.827)" fill="#bd342c"/>
        <path id="Path_15173" data-name="Path 15173" d="M35.617,74.561c-5.339-9.1-11.061-17.969-16.514-27-2.8-4.473-5.448-9.034-7.911-13.711a75.534,75.534,0,0,0-4.083-6.778,63.507,63.507,0,0,1-4.431-6.564l.1.2a7.8,7.8,0,0,1,.166-4.4A11.636,11.636,0,0,1,5.3,12.225a25.174,25.174,0,0,1,7.962-5.868l.1-.06a27.406,27.406,0,0,1,7.2-2.584c2.445-.446,4.911-.653,7.2.351l-.36-.357c3.278,4.229,5.241,9.277,7.944,13.865,2.754,4.555,5.881,8.878,8.829,13.313s5.735,8.968,8.393,13.584c.8,2.637,2.853,4.494,4.42,6.653a34.775,34.775,0,0,1,4.315,6.718A1,1,0,0,0,63.131,57,1.016,1.016,0,0,0,63,56.788a34.727,34.727,0,0,1-4.136-6.83c-1.251-2.357-2.017-5.016-4.033-6.895q-4.465-6.625-8.511-13.511c-2.687-4.6-5.195-9.306-8.076-13.783-2.932-4.444-6.6-8.428-8.961-13.23a.686.686,0,0,0-.214-.254l-.146-.1A12.512,12.512,0,0,0,24.61.233a13.627,13.627,0,0,0-4.659-.06A22.669,22.669,0,0,0,11.6,3.461l.1-.058a27.755,27.755,0,0,0-8.64,7.022,14.525,14.525,0,0,0-2.656,5.15,10.8,10.8,0,0,0,.048,6.035l.079.169.019.028a63.588,63.588,0,0,1,3.823,6.937,75.623,75.623,0,0,0,4.171,6.724c3.04,4.324,5.891,8.764,8.6,13.292C22.7,57.73,27.98,66.865,33.646,75.766a1.155,1.155,0,0,0,1.971-1.2Z" transform="translate(0 0)" fill="#bd342c"/>
        <path id="Path_15174" data-name="Path 15174" d="M2.141,17.351a14.756,14.756,0,0,1,4.316-6.165,22.526,22.526,0,0,1,6.887-3.972c2.368-1.279,4.7-3.076,7.311-3.685a18.525,18.525,0,0,1,7.376-.26l.078.014A1.249,1.249,0,0,0,28.951.967C26-.7,22.5.062,19.91,1.217c-2.688,1.165-5.453,1.707-8.126,2.83A48.82,48.82,0,0,0,4.6,9.1,13.4,13.4,0,0,0,.017,16.832a1.1,1.1,0,0,0,2.112.553Z" transform="translate(27.712 46.698)" fill="#bd342c"/>
        <path id="Path_15175" data-name="Path 15175" d="M2.139,17.172a19.909,19.909,0,0,1,4.229-6.9,17.768,17.768,0,0,1,6.9-4.356c2.415-1.22,5.024-2.6,7.868-2.618,2.643-.086,5.892.9,9.114-.982A1.243,1.243,0,0,0,29.309.039l-.1.028C26.935.655,24.062.3,20.914.879c-3,.536-6.143.662-9.1,1.818A31.588,31.588,0,0,0,4.341,8.349,16.53,16.53,0,0,0,.019,16.636a1.1,1.1,0,0,0,2.109.568Z" transform="translate(4.131 9.671)" fill="#bd342c"/>
      </g>
      <g id="Group_4507" data-name="Group 4507" transform="translate(21.54 281.371)">
        <path id="Path_15176" data-name="Path 15176" d="M52.954,70.067c-12.877,8.712-19.582,3.4-19.582,3.4L.356,19.46s-3.409-8.724,10.87-16.277c0,0,9.276-5.787,15.861-1.756L60.9,55.618C64.183,63.062,52.954,70.067,52.954,70.067Z" transform="translate(1.259 1.696)" fill="#de442b"/>
        <path id="Path_15177" data-name="Path 15177" d="M4.265,21.943,0,15.108S8.023-.3,28.558,0l2.678,6.468S11.192,4.057,4.265,21.943Z" transform="translate(28.113 48.522)" fill="#ff9e11"/>
        <path id="Path_15178" data-name="Path 15178" d="M2.716,23.667s-8.654-9.523,4.935-18.9c0,0,11.188-7.433,19.379-3.726l4.446,7.852S13.912,5.377,2.716,23.667Z" transform="translate(1.315 2.087)" fill="#ff9e11"/>
        <path id="Path_15179" data-name="Path 15179" d="M1.953,23.214c3.517,2.357,6.921,2.141,10.281,1.523a31.019,31.019,0,0,0,9.236-3.991c2.66-1.826,6.381-2.972,7.773-6.449a20.714,20.714,0,0,0,2.61-4.7,8.686,8.686,0,0,0-.115-5.822,1.14,1.14,0,0,0-.117-.222A8.117,8.117,0,0,0,26.227.079a17.736,17.736,0,0,0-5.784.6,45.96,45.96,0,0,0-5.494.956A19.23,19.23,0,0,0,10.2,4.3a37.073,37.073,0,0,0-8.022,7.528,19.438,19.438,0,0,1-1.7,2.4,5.363,5.363,0,0,0-.446,3.017A22.161,22.161,0,0,0,1.866,23Zm1.3-1.67a3.932,3.932,0,0,1-.628-4.085c.225-.721.625-1.332.8-2.052a3.551,3.551,0,0,1,.788-2.2,17.67,17.67,0,0,1,7.529-6.293c1.544-.764,3.069-1.439,4.518-2.236,1.442-.757,2.851-1.882,4.5-2.106a7.832,7.832,0,0,1,4.615.776,8.9,8.9,0,0,1,3.259,2.072l-.116-.22c1.211,2.092.745,5.236-1.314,7.516-2.641,1.6-4.036,4.6-6.936,6.072a26.08,26.08,0,0,1-8.521,3.622,16.324,16.324,0,0,1-4.458.22,10.066,10.066,0,0,1-2.138-.392,17.753,17.753,0,0,1-1.687-.668Z" transform="translate(32.024 52.827)" fill="#bd342c"/>
        <path id="Path_15180" data-name="Path 15180" d="M35.616,74.561c-5.339-9.1-11.06-17.969-16.513-27-2.8-4.473-5.449-9.035-7.911-13.711a75.673,75.673,0,0,0-4.083-6.778,63.528,63.528,0,0,1-4.431-6.565l.1.2a7.8,7.8,0,0,1,.166-4.4A11.627,11.627,0,0,1,5.3,12.225a25.177,25.177,0,0,1,7.963-5.868l.1-.06a27.4,27.4,0,0,1,7.2-2.585c2.445-.446,4.911-.652,7.2.351l-.36-.357c3.278,4.229,5.241,9.278,7.943,13.866,2.754,4.555,5.882,8.877,8.829,13.312s5.736,8.968,8.394,13.584c.8,2.638,2.853,4.494,4.419,6.654A34.715,34.715,0,0,1,61.31,57.84,1,1,0,0,0,63.131,57,1.054,1.054,0,0,0,63,56.787a34.713,34.713,0,0,1-4.136-6.829c-1.251-2.357-2.017-5.015-4.033-6.895q-4.466-6.624-8.511-13.511c-2.688-4.6-5.2-9.306-8.076-13.783-2.933-4.444-6.6-8.427-8.961-13.23a.688.688,0,0,0-.214-.253l-.146-.1A12.525,12.525,0,0,0,24.61.232a13.627,13.627,0,0,0-4.659-.06A22.648,22.648,0,0,0,11.6,3.461l.1-.059a27.761,27.761,0,0,0-8.64,7.022,14.527,14.527,0,0,0-2.656,5.15,10.8,10.8,0,0,0,.047,6.035l.079.169.019.028a63.556,63.556,0,0,1,3.823,6.937,75.52,75.52,0,0,0,4.171,6.724c3.04,4.324,5.891,8.764,8.6,13.292C22.7,57.73,27.98,66.865,33.645,75.766a1.155,1.155,0,0,0,1.971-1.2Z" transform="translate(0 0)" fill="#bd342c"/>
        <path id="Path_15181" data-name="Path 15181" d="M2.141,17.35a14.757,14.757,0,0,1,4.316-6.165,22.528,22.528,0,0,1,6.887-3.972c2.368-1.279,4.7-3.075,7.311-3.684a18.5,18.5,0,0,1,7.376-.26l.078.015A1.25,1.25,0,0,0,28.951.966C26-.7,22.5.062,19.91,1.217c-2.687,1.164-5.453,1.707-8.126,2.83A48.783,48.783,0,0,0,4.6,9.1,13.4,13.4,0,0,0,.017,16.831a1.1,1.1,0,0,0,2.112.553Z" transform="translate(27.712 46.699)" fill="#bd342c"/>
        <path id="Path_15182" data-name="Path 15182" d="M2.139,17.172a19.923,19.923,0,0,1,4.23-6.9,17.765,17.765,0,0,1,6.9-4.356c2.414-1.22,5.024-2.6,7.868-2.618,2.644-.086,5.891.9,9.114-.983A1.243,1.243,0,0,0,29.309.039l-.1.028c-2.271.588-5.143.228-8.291.812-3,.537-6.144.663-9.1,1.819A31.585,31.585,0,0,0,4.342,8.349,16.527,16.527,0,0,0,.02,16.636a1.1,1.1,0,0,0,2.109.568Z" transform="translate(4.13 9.672)" fill="#bd342c"/>
      </g>
      <g id="Group_4508" data-name="Group 4508" transform="translate(48.777 53.887)">
        <path id="Path_15183" data-name="Path 15183" d="M52.954,70.067c-12.877,8.712-19.582,3.4-19.582,3.4L.356,19.461s-3.409-8.726,10.87-16.277c0,0,9.276-5.787,15.86-1.756L60.895,55.618C64.183,63.062,52.954,70.067,52.954,70.067Z" transform="translate(1.259 1.696)" fill="#de442b"/>
        <path id="Path_15184" data-name="Path 15184" d="M4.264,21.943,0,15.108S8.023-.3,28.557,0l2.679,6.468S11.191,4.057,4.264,21.943Z" transform="translate(28.114 48.522)" fill="#ff9e11"/>
        <path id="Path_15185" data-name="Path 15185" d="M2.716,23.666s-8.654-9.522,4.935-18.9c0,0,11.188-7.432,19.379-3.726l4.446,7.852S13.912,5.376,2.716,23.666Z" transform="translate(1.315 2.087)" fill="#ff9e11"/>
        <path id="Path_15186" data-name="Path 15186" d="M1.953,23.215c3.516,2.357,6.921,2.141,10.281,1.523a31.038,31.038,0,0,0,9.236-3.992c2.659-1.826,6.381-2.972,7.773-6.449a20.74,20.74,0,0,0,2.61-4.7,8.688,8.688,0,0,0-.115-5.823,1.128,1.128,0,0,0-.117-.222A8.116,8.116,0,0,0,26.227.079a17.737,17.737,0,0,0-5.784.6,45.907,45.907,0,0,0-5.494.957A19.209,19.209,0,0,0,10.2,4.3a37.093,37.093,0,0,0-8.022,7.528,19.514,19.514,0,0,1-1.7,2.4,5.358,5.358,0,0,0-.446,3.017A22.136,22.136,0,0,0,1.866,23Zm1.3-1.669a3.934,3.934,0,0,1-.628-4.085c.225-.721.625-1.332.8-2.053a3.551,3.551,0,0,1,.788-2.2,17.667,17.667,0,0,1,7.529-6.293c1.543-.764,3.069-1.44,4.517-2.237,1.441-.756,2.85-1.882,4.5-2.106a7.83,7.83,0,0,1,4.615.776,8.9,8.9,0,0,1,3.259,2.072l-.116-.22c1.211,2.093.745,5.237-1.314,7.516-2.641,1.6-4.035,4.6-6.936,6.073a26.084,26.084,0,0,1-8.522,3.622,16.3,16.3,0,0,1-4.458.22,10.031,10.031,0,0,1-2.138-.393,17.31,17.31,0,0,1-1.688-.669Z" transform="translate(32.024 52.827)" fill="#bd342c"/>
        <path id="Path_15187" data-name="Path 15187" d="M35.617,74.561c-5.339-9.1-11.061-17.969-16.514-27-2.8-4.472-5.449-9.034-7.911-13.71a75.5,75.5,0,0,0-4.083-6.778,63.421,63.421,0,0,1-4.431-6.565l.1.2a7.805,7.805,0,0,1,.166-4.4A11.633,11.633,0,0,1,5.3,12.225a25.191,25.191,0,0,1,7.962-5.868l.1-.06a27.384,27.384,0,0,1,7.2-2.585c2.446-.446,4.911-.652,7.2.351l-.359-.357c3.276,4.229,5.241,9.277,7.943,13.866,2.754,4.555,5.881,8.877,8.829,13.312s5.736,8.968,8.394,13.584c.8,2.637,2.853,4.493,4.419,6.653A34.715,34.715,0,0,1,61.31,57.84,1,1,0,1,0,63,56.788a34.738,34.738,0,0,1-4.137-6.829c-1.25-2.357-2.016-5.016-4.032-6.895q-4.466-6.624-8.511-13.511c-2.687-4.6-5.194-9.306-8.075-13.783-2.933-4.444-6.6-8.427-8.961-13.23a.686.686,0,0,0-.214-.254l-.146-.1A12.52,12.52,0,0,0,24.61.232a13.637,13.637,0,0,0-4.66-.06A22.662,22.662,0,0,0,11.6,3.461l.1-.058a27.747,27.747,0,0,0-8.64,7.022,14.545,14.545,0,0,0-2.656,5.15,10.807,10.807,0,0,0,.048,6.034l.079.169.019.029a63.5,63.5,0,0,1,3.823,6.936,75.289,75.289,0,0,0,4.171,6.724c3.04,4.324,5.891,8.764,8.6,13.292C22.7,57.73,27.98,66.865,33.646,75.766a1.155,1.155,0,0,0,1.971-1.2Z" transform="translate(0 0)" fill="#bd342c"/>
        <path id="Path_15188" data-name="Path 15188" d="M2.141,17.35a14.752,14.752,0,0,1,4.316-6.165,22.522,22.522,0,0,1,6.887-3.971c2.368-1.279,4.7-3.075,7.311-3.684a18.51,18.51,0,0,1,7.376-.26l.078.014A1.25,1.25,0,0,0,28.951.966C26-.7,22.5.061,19.91,1.217c-2.687,1.164-5.453,1.707-8.126,2.83A48.938,48.938,0,0,0,4.6,9.1,13.408,13.408,0,0,0,.017,16.831a1.1,1.1,0,0,0,2.112.553Z" transform="translate(27.712 46.699)" fill="#bd342c"/>
        <path id="Path_15189" data-name="Path 15189" d="M2.139,17.172a19.911,19.911,0,0,1,4.229-6.9,17.779,17.779,0,0,1,6.895-4.356c2.415-1.22,5.024-2.6,7.869-2.618,2.643-.086,5.891.9,9.114-.982A1.243,1.243,0,0,0,29.309.04l-.1.026C26.934.655,24.061.3,20.914.879c-3,.536-6.144.663-9.1,1.818A31.578,31.578,0,0,0,4.341,8.349,16.525,16.525,0,0,0,.019,16.636a1.1,1.1,0,0,0,2.109.568Z" transform="translate(4.131 9.672)" fill="#bd342c"/>
      </g>
      <path id="Path_15190" data-name="Path 15190" d="M.278,1.831a29.015,29.015,0,0,0,4.7,4.257L10.089,9.9c1.913.967,4.088,1.346,5.9,2.442a14.253,14.253,0,0,0,5.884,2.336,1.269,1.269,0,0,0,1.4-1.126,1.289,1.289,0,0,0-.614-1.227,24.1,24.1,0,0,0-5.661-2.2c-1.958-.616-3.46-2.147-5.113-3.274A26.769,26.769,0,0,1,6.636,3.838L1.754.218A1.1,1.1,0,0,0,.278,1.831Z" transform="translate(53.387 535.502)" fill="#a11010"/>
      <path id="Path_15191" data-name="Path 15191" d="M1.782,23.564A42.286,42.286,0,0,0,6.942,18.73c1.562-1.766,3.254-3.419,4.895-5.137C13.218,11.659,14.1,9.38,15.647,7.6a19.036,19.036,0,0,0,3.881-5.9A1.263,1.263,0,0,0,17.407.413a27.716,27.716,0,0,0-3.751,5.793c-1.12,2.035-3.039,3.481-4.573,5.177a39.961,39.961,0,0,1-4.2,5.459c-1.572,1.675-3.094,3.4-4.612,5.142a1.1,1.1,0,0,0,1.511,1.581Z" transform="translate(75.285 531.926)" fill="#a11010"/>
      <path id="Path_15192" data-name="Path 15192" d="M.128,1.614A35.137,35.137,0,0,0,3.69,7.073C5.061,8.761,6.3,10.554,7.619,12.309c1.573,1.531,3.563,2.612,4.961,4.279A16.04,16.04,0,0,0,17.455,20.9a1.267,1.267,0,0,0,1.564-1.924,23.613,23.613,0,0,0-4.768-4.155c-1.709-1.275-2.714-3.254-4.018-4.89A32.95,32.95,0,0,1,5.894,5.354C4.62,3.678,3.3,2.043,1.948.4A1.1,1.1,0,0,0,.128,1.614Z" transform="translate(54.007 490.277)" fill="#a11010"/>
      <path id="Path_15193" data-name="Path 15193" d="M1.735,21.658c1.936-1.376,3.828-2.807,5.627-4.366s3.734-2.973,5.65-4.452c1.694-1.732,2.945-3.89,4.759-5.485a18.228,18.228,0,0,0,4.667-5.538,1.261,1.261,0,0,0-.573-1.69,1.278,1.278,0,0,0-1.407.2,33.3,33.3,0,0,0-4.47,5.38c-1.409,1.892-3.553,3.059-5.361,4.532A49.417,49.417,0,0,1,5.554,15.16,67.638,67.638,0,0,0,.312,20a1.1,1.1,0,0,0,1.423,1.66Z" transform="translate(71.22 489.391)" fill="#a11010"/>
      <path id="Path_15194" data-name="Path 15194" d="M7.518,19.638c-.451-1.583-.93-3.135-1.491-4.659a22.007,22.007,0,0,1-1.093-4.749c-.554-1.516-1.577-2.956-1.651-4.61A13.119,13.119,0,0,0,2.524.795,1.285,1.285,0,0,0,.847.1,1.309,1.309,0,0,0,.064,1.106,10.253,10.253,0,0,0,.9,6.093c.573,1.6.309,3.385.629,5.066.644,1.586,1.343,3.134,1.86,4.742a23.942,23.942,0,0,0,2.121,4.6,1.1,1.1,0,0,0,2.009-.866Z" transform="translate(65.77 447.599)" fill="#a11010"/>
      <path id="Path_15195" data-name="Path 15195" d="M0,1.187a23.57,23.57,0,0,0,1.646,6.9c.9,2.183,1.754,4.381,2.731,6.53,1.275,1.987,3.081,3.579,4.164,5.623a20.06,20.06,0,0,0,3.951,5.643,1.265,1.265,0,0,0,2.011-1.45,23.658,23.658,0,0,0-3.95-5.556c-1.479-1.738-2.131-4-3.1-5.994a26.5,26.5,0,0,1-3.2-5.813C3.474,5.011,2.745,2.948,2.158.814A1.1,1.1,0,0,0,0,1.187Z" transform="translate(70.19 349.716)" fill="#a11010"/>
      <path id="Path_15196" data-name="Path 15196" d="M1.475,13.891A22.163,22.163,0,0,0,6.029,11.66c1.411-.934,2.918-1.721,4.4-2.586C11.715,7.936,12.586,6.351,14,5.413A9.928,9.928,0,0,0,17.62,1.877,1.284,1.284,0,0,0,17.079.143,1.313,1.313,0,0,0,15.8.19,13.519,13.519,0,0,0,12.37,3.609c-1.04,1.274-2.717,1.8-4.068,2.648A20.137,20.137,0,0,1,4.546,9.291c-1.379.833-2.718,1.726-4.064,2.653a1.1,1.1,0,0,0,.993,1.948Z" transform="translate(86.16 349.677)" fill="#a11010"/>
      <path id="Path_15197" data-name="Path 15197" d="M.26.937A22.8,22.8,0,0,0,.148,6.955c.252,1.994.4,4.006.7,6.025.631,1.948,1.888,3.634,2.413,5.566a12.012,12.012,0,0,0,2.659,5.388,1.272,1.272,0,0,0,1.8.045,1.3,1.3,0,0,0,.334-1.31,23.675,23.675,0,0,0-2.543-5.046c-.953-1.665-.916-3.683-1.237-5.506A20.543,20.543,0,0,1,2.928,6.663L2.445,1.028A1.1,1.1,0,0,0,1.276,0,1.126,1.126,0,0,0,.26.937Z" transform="translate(85.029 307.146)" fill="#a11010"/>
      <path id="Path_15198" data-name="Path 15198" d="M.042,1.4A16.614,16.614,0,0,0,3.3,7.2l4.025,5.068c1.5,1.571,3.628,2.408,5.058,3.969a17.955,17.955,0,0,0,4.75,4.137A1.271,1.271,0,0,0,18.759,18.5a18.166,18.166,0,0,0-4.8-4.069c-1.73-1.2-2.723-3.174-4.163-4.6a25.16,25.16,0,0,1-4.3-4.364A29.83,29.83,0,0,1,2.1.644L2.082.617a1.1,1.1,0,0,0-2.04.78Z" transform="translate(91.828 189.339)" fill="#a11010"/>
      <path id="Path_15199" data-name="Path 15199" d="M1.4,13.755a22.518,22.518,0,0,0,4.95-2.028c1.548-.889,3.176-1.643,4.776-2.491C12.542,8.1,13.546,6.5,15.057,5.544a10.606,10.606,0,0,0,3.9-3.641,1.28,1.28,0,0,0-.49-1.743,1.308,1.308,0,0,0-1.3.029,15.792,15.792,0,0,0-3.685,3.5c-1.14,1.295-2.9,1.8-4.355,2.631A20.364,20.364,0,0,1,5.015,9.27c-1.5.784-2.966,1.616-4.455,2.465a1.1,1.1,0,0,0,.838,2.02Z" transform="translate(109.962 182.637)" fill="#a11010"/>
      <path id="Path_15200" data-name="Path 15200" d="M.152,1.661A41.763,41.763,0,0,0,3.219,6.189a40.551,40.551,0,0,1,3.016,4.567c1.209,1.366,2.842,2.411,3.746,4.01a13.825,13.825,0,0,0,3.288,4.359,1.279,1.279,0,0,0,1.973-1.5,13.847,13.847,0,0,0-3.328-4.329c-1.3-1.3-1.874-3.148-2.871-4.677A40.659,40.659,0,0,1,5.443,4.5,41.8,41.8,0,0,0,1.893.336,1.1,1.1,0,0,0,.152,1.661Z" transform="translate(94.943 121.843)" fill="#a11010"/>
      <path id="Path_15201" data-name="Path 15201" d="M1.748,24.628a42.919,42.919,0,0,0,5.667-4.938l5.318-5.357c1.51-2.03,2.5-4.422,4.129-6.325a20.233,20.233,0,0,0,4.06-6.323A1.26,1.26,0,0,0,20.16.073a1.274,1.274,0,0,0-1.383.369A34.375,34.375,0,0,0,14.87,6.616c-1.2,2.149-3.21,3.69-4.855,5.463a40.062,40.062,0,0,1-4.6,5.658L.311,22.98a1.1,1.1,0,0,0,1.438,1.648Z" transform="translate(109.776 125.753)" fill="#a11010"/>
    </g>
  </g>
</svg>
