<svg xmlns="http://www.w3.org/2000/svg" width="676.162" height="676.418" viewBox="0 0 676.162 676.418">
  <g id="Group_4485" data-name="Group 4485" transform="translate(2801.183 -1142.503)">
    <path id="Path_15042" data-name="Path 15042" d="M-2617.712,1242.489l-21.272,126.207-21.274-126.207a21.409,21.409,0,0,1,18.868-23.674,21.411,21.411,0,0,1,23.679,18.868A22.621,22.621,0,0,1-2617.712,1242.489Z" transform="translate(177.643 96.115)" fill="#c63a32"/>
    <path id="Path_15043" data-name="Path 15043" d="M-2660.266,1425.644l21.271-126.2,21.27,126.2a21.4,21.4,0,0,1-18.868,23.677,21.406,21.406,0,0,1-23.673-18.868A22.454,22.454,0,0,1-2660.266,1425.644Z" transform="translate(177.643 198.017)" fill="#c63a32"/>
    <path id="Path_15044" data-name="Path 15044" d="M-2517.51,1325.44l-126.2-21.272,126.2-21.272a21.407,21.407,0,0,1,23.676,18.868,21.408,21.408,0,0,1-18.868,23.677A22.65,22.65,0,0,1-2517.51,1325.44Z" transform="translate(198.691 176.97)" fill="#c63a32"/>
    <path id="Path_15045" data-name="Path 15045" d="M-2700.664,1282.887l126.207,21.272-126.207,21.272a21.407,21.407,0,0,1-23.674-18.868,21.4,21.4,0,0,1,18.868-23.676A22.461,22.461,0,0,1-2700.664,1282.887Z" transform="translate(96.788 176.97)" fill="#c63a32"/>
    <path id="Path_15046" data-name="Path 15046" d="M-2571.631,1401.606l-74.2-104.279,104.279,74.2a21.406,21.406,0,0,1,3.4,30.082,21.406,21.406,0,0,1-30.082,3.4A22.413,22.413,0,0,1-2571.631,1401.606Z" transform="translate(196.022 195.352)" fill="#c63a32"/>
    <path id="Path_15047" data-name="Path 15047" d="M-2667.557,1245.511l74.2,104.281-104.283-74.2a21.41,21.41,0,0,1-3.4-30.084,21.407,21.407,0,0,1,30.084-3.4A22.462,22.462,0,0,1-2667.557,1245.511Z" transform="translate(120.471 119.795)" fill="#c63a32"/>
    <path id="Path_15048" data-name="Path 15048" d="M-2697.642,1371.524l104.282-74.2-74.2,104.282a21.41,21.41,0,0,1-30.084,3.4,21.408,21.408,0,0,1-3.4-30.084A22.253,22.253,0,0,1-2697.642,1371.524Z" transform="translate(120.468 195.349)" fill="#c63a32"/>
    <path id="Path_15049" data-name="Path 15049" d="M-2541.547,1275.6l-104.279,74.2,74.2-104.281a21.405,21.405,0,0,1,30.082-3.4,21.407,21.407,0,0,1,3.4,30.082A22.453,22.453,0,0,1-2541.547,1275.6Z" transform="translate(196.026 119.798)" fill="#c63a32"/>
    <path id="Path_15050" data-name="Path 15050" d="M-2696.266,1433.95l73.037-105.1-34.552,123.233a21.405,21.405,0,0,1-27.157,13.376,21.41,21.41,0,0,1-13.376-27.159A22.5,22.5,0,0,1-2696.266,1433.95Z" transform="translate(128.352 235.13)" fill="#c63a32"/>
    <path id="Path_15051" data-name="Path 15051" d="M-2563.071,1230.279l-73.035,105.1,34.548-123.233a21.41,21.41,0,0,1,27.162-13.378,21.411,21.411,0,0,1,13.374,27.161A22.487,22.487,0,0,1-2563.071,1230.279Z" transform="translate(208.29 69.549)" fill="#c63a32"/>
    <path id="Path_15052" data-name="Path 15052" d="M-2617.182,1166.523l-22.5,125.992-20.04-126.406a21.407,21.407,0,0,1,19.1-23.491,21.4,21.4,0,0,1,23.492,19.1A22.606,22.606,0,0,1-2617.182,1166.523Z" transform="translate(178.345)" fill="#c63a32"/>
    <path id="Path_15053" data-name="Path 15053" d="M-2662.351,1501.236l22.5-125.992,20.04,126.406a21.405,21.405,0,0,1-19.1,23.49,21.41,21.41,0,0,1-23.493-19.1A22.552,22.552,0,0,1-2662.351,1501.236Z" transform="translate(174.982 293.666)" fill="#c63a32"/>
    <path id="Path_15054" data-name="Path 15054" d="M-2726.258,1194.787l78.065,101.42-107-70.228a21.4,21.4,0,0,1-4.529-29.932,21.4,21.4,0,0,1,29.932-4.53A22.522,22.522,0,0,1-2726.258,1194.787Z" transform="translate(47.051 56.573)" fill="#c63a32"/>
    <path id="Path_15055" data-name="Path 15055" d="M-2512.611,1450.019l-78.065-101.42,107,70.226a21.41,21.41,0,0,1,4.529,29.935,21.411,21.411,0,0,1-29.936,4.528A22.572,22.572,0,0,1-2512.611,1450.019Z" transform="translate(265.613 260.046)" fill="#c63a32"/>
    <path id="Path_15056" data-name="Path 15056" d="M-2776.729,1278.575l125.5,25.085-126.792,17.436a21.4,21.4,0,0,1-23.093-19.573,21.407,21.407,0,0,1,19.578-23.093A22.329,22.329,0,0,1-2776.729,1278.575Z" transform="translate(0 171.423)" fill="#c63a32"/>
    <path id="Path_15057" data-name="Path 15057" d="M-2443.03,1329.38l-125.5-25.085,126.792-17.438a21.406,21.406,0,0,1,23.093,19.576,21.407,21.407,0,0,1-19.576,23.093A22.666,22.666,0,0,1-2443.03,1329.38Z" transform="translate(293.552 182.048)" fill="#c63a32"/>
    <path id="Path_15058" data-name="Path 15058" d="M-2751.018,1427.27l103.277-75.588-72.793,105.265a21.41,21.41,0,0,1-30.037,3.8,21.41,21.41,0,0,1-3.8-30.034A22.678,22.678,0,0,1-2751.018,1427.27Z" transform="translate(53.402 263.935)" fill="#c63a32"/>
    <path id="Path_15059" data-name="Path 15059" d="M-2490.406,1220.151l-103.279,75.591,72.795-105.267a21.409,21.409,0,0,1,30.036-3.8,21.405,21.405,0,0,1,3.8,30.032A22.412,22.412,0,0,1-2490.406,1220.151Z" transform="translate(261.816 50.067)" fill="#c63a32"/>
    <path id="Path_15060" data-name="Path 15060" d="M-2732.81,1330.293l126.023-22.321-111.743,62.4a21.409,21.409,0,0,1-28.637-9.828,21.405,21.405,0,0,1,9.825-28.634A22.38,22.38,0,0,1-2732.81,1330.293Z" transform="translate(65.405 208.784)" fill="#c63a32"/>
    <path id="Path_15061" data-name="Path 15061" d="M-2489.521,1293.115l-126.024,22.322,111.743-62.4a21.408,21.408,0,0,1,28.636,9.825A21.408,21.408,0,0,1-2485,1291.5,22.541,22.541,0,0,1-2489.521,1293.115Z" transform="translate(234.234 136.717)" fill="#c63a32"/>
    <path id="Path_15062" data-name="Path 15062" d="M-2716.427,1251.207l107.748,69.063-124.434-29.93a21.4,21.4,0,0,1-14.38-26.639,21.408,21.408,0,0,1,26.641-14.38A22.556,22.556,0,0,1-2716.427,1251.207Z" transform="translate(66.607 133.642)" fill="#c63a32"/>
    <path id="Path_15063" data-name="Path 15063" d="M-2507.49,1376.257l-107.751-69.063,124.436,29.928a21.405,21.405,0,0,1,14.378,26.641,21.407,21.407,0,0,1-26.642,14.38A22.629,22.629,0,0,1-2507.49,1376.257Z" transform="translate(234.617 207.802)" fill="#c63a32"/>
    <path id="Path_15064" data-name="Path 15064" d="M-2652.114,1211.894l23.136,125.877-63.12-111.338a21.4,21.4,0,0,1,9.643-28.7,21.406,21.406,0,0,1,28.7,9.64A22.847,22.847,0,0,1-2652.114,1211.894Z" transform="translate(134.811 66.86)" fill="#c63a32"/>
    <path id="Path_15065" data-name="Path 15065" d="M-2613.285,1454.86l-23.135-125.877,63.119,111.338a21.408,21.408,0,0,1-9.642,28.7,21.4,21.4,0,0,1-28.7-9.642A22.452,22.452,0,0,1-2613.285,1454.86Z" transform="translate(207.894 235.295)" fill="#c63a32"/>
    <path id="Path_15066" data-name="Path 15066" d="M-2592.558,1177.821c-21.27,0-21.3,33.058,0,33.058C-2571.288,1210.879-2571.252,1177.821-2592.558,1177.821Z" transform="translate(243.094 44.563)" fill="#c63a32"/>
    <path id="Path_15067" data-name="Path 15067" d="M-2545.44,1259.8v1.375c0,21.27,33.056,21.306,33.056,0V1259.8C-2512.384,1238.531-2545.44,1238.5-2545.44,1259.8Z" transform="translate(322.691 127.86)" fill="#c63a32"/>
    <path id="Path_15068" data-name="Path 15068" d="M-2528.009,1331.885c-21.27,0-21.3,33.056,0,33.056C-2506.741,1364.941-2506.705,1331.885-2528.009,1331.885Z" transform="translate(324.541 238.957)" fill="#c63a32"/>
    <path id="Path_15069" data-name="Path 15069" d="M-2601.083,1399.478c-21.269,0-21.3,33.056,0,33.056C-2579.813,1432.534-2579.777,1399.478-2601.083,1399.478Z" transform="translate(232.338 324.244)" fill="#c63a32"/>
    <path id="Path_15070" data-name="Path 15070" d="M-2694.252,1396.434c-21.268,0-21.3,33.056,0,33.056C-2672.982,1429.49-2672.946,1396.434-2694.252,1396.434Z" transform="translate(114.78 320.403)" fill="#c63a32"/>
    <path id="Path_15071" data-name="Path 15071" d="M-2753.929,1329.449c-21.268,0-21.3,33.056,0,33.056C-2732.659,1362.5-2732.626,1329.449-2753.929,1329.449Z" transform="translate(39.481 235.883)" fill="#c63a32"/>
    <path id="Path_15072" data-name="Path 15072" d="M-2753.32,1239.325c-21.269,0-21.305,33.056,0,33.056C-2732.047,1272.381-2732.013,1239.325-2753.32,1239.325Z" transform="translate(40.249 122.167)" fill="#c63a32"/>
    <path id="Path_15073" data-name="Path 15073" d="M-2686.334,1174.168c-21.27,0-21.306,33.054,0,33.054C-2665.067,1207.222-2665.031,1174.168-2686.334,1174.168Z" transform="translate(124.768 39.954)" fill="#c63a32"/>
  </g>
</svg>
