<svg xmlns="http://www.w3.org/2000/svg" width="1199.979" height="108" viewBox="0 0 1199.979 108">
  <path id="Path_15494" data-name="Path 15494" d="M983.363-533.622H481.215c-5.665-1.678-9.094-6.9-13.034-12.96-6.272-9.637-13.987-21.518-33.771-20.65a18.483,18.483,0,0,0-9.362-13.486c-7.344-4.206-17.174-4-23.915.5-7.231,4.824-9.862,13.741-8.674,21.541a29.2,29.2,0,0,0-5.112-.476,29.212,29.212,0,0,0-5.114.476c1.188-7.8-1.442-16.72-8.674-21.545-6.746-4.494-16.582-4.705-23.92-.5a18.481,18.481,0,0,0-9.359,13.486c-19.829-.865-27.5,11.012-33.772,20.652-3.938,6.053-7.367,11.273-13.026,12.958H-208.846a3.885,3.885,0,0,0-3.886,3.884h0a3.885,3.885,0,0,0,3.886,3.884H293.468c5.668,1.675,9.1,6.9,13.042,12.962,6.271,9.641,14,21.547,33.771,20.652a18.467,18.467,0,0,0,9.361,13.483,23.585,23.585,0,0,0,11.671,3.019,22.178,22.178,0,0,0,12.246-3.516c7.234-4.828,9.865-13.748,8.674-21.55a29.329,29.329,0,0,0,5.114.475,29.288,29.288,0,0,0,5.111-.475c-1.192,7.8,1.441,16.722,8.675,21.547a22.179,22.179,0,0,0,12.247,3.516,23.623,23.623,0,0,0,11.67-3.019,18.475,18.475,0,0,0,9.36-13.481c19.748.782,27.5-11.015,33.771-20.652,3.941-6.059,7.37-11.285,13.034-12.962H983.363a3.884,3.884,0,0,0,3.884-3.884h0A3.884,3.884,0,0,0,983.363-533.622Zm-614.117,47.9c-4.315,2.882-10.937,2.975-15.744.221a10.889,10.889,0,0,1-5.66-10.717l-4.348-4.081c-18.073,2.216-24.1-7.043-30.472-16.829-2.989-4.6-6.046-9.3-10.346-12.61,4.3-3.313,7.357-8.012,10.346-12.608,6.013-9.242,11.714-18.007,27.566-17.093a6.859,6.859,0,0,0,5.111-1.807l.109-.1a6.708,6.708,0,0,0,2.08-4.188,10.739,10.739,0,0,1,5.614-8.441c4.81-2.746,11.432-2.656,15.744.223,5.986,3.991,6.878,12.841,3.841,18.311a29.529,29.529,0,0,0-13.354,15.676c-8.279-2.611-14.1-6.835-17.687-12.846a1.709,1.709,0,0,0-2.255-.622h0a1.742,1.742,0,0,0-.676,2.449c4.036,6.749,10.5,11.455,19.625,14.32a29.327,29.327,0,0,0-.718,5H318.545a1.728,1.728,0,0,0-1.728,1.728h0a1.727,1.727,0,0,0,1.728,1.728h39.479a29.242,29.242,0,0,0,.718,4.994c-9.121,2.863-15.588,7.571-19.625,14.322a1.743,1.743,0,0,0,.676,2.45h0a1.71,1.71,0,0,0,2.256-.62c3.584-6.012,9.409-10.24,17.686-12.85a29.545,29.545,0,0,0,13.352,15.676C376.124-498.565,375.235-489.713,369.246-485.719Zm-3.431-41.807a21.667,21.667,0,0,1,23.744-23.743,21.723,21.723,0,0,1,19.316,19.312,21.667,21.667,0,0,1-23.75,23.75A21.725,21.725,0,0,1,365.815-527.525Zm95.85,10.4c-6.01,9.242-11.682,18.018-27.561,17.1a6.857,6.857,0,0,0-5.118,1.808l-.1.1a6.713,6.713,0,0,0-2.081,4.192,10.733,10.733,0,0,1-5.614,8.435c-4.8,2.755-11.429,2.663-15.744-.22-5.989-3.995-6.881-12.847-3.836-18.313a29.548,29.548,0,0,0,13.351-15.676c8.272,2.61,14.1,6.838,17.684,12.847a1.71,1.71,0,0,0,2.255.62h0a1.743,1.743,0,0,0,.677-2.45c-4.04-6.751-10.507-11.456-19.624-14.32a29.358,29.358,0,0,0,.719-5h39.477a1.728,1.728,0,0,0,1.728-1.728h0a1.727,1.727,0,0,0-1.728-1.728H416.67a29.37,29.37,0,0,0-.719-5c9.116-2.862,15.584-7.567,19.625-14.316a1.743,1.743,0,0,0-.677-2.451h0a1.709,1.709,0,0,0-2.255.62c-3.586,6.01-9.412,10.234-17.686,12.845A29.549,29.549,0,0,0,401.6-555.444c-3.035-5.466-2.142-14.316,3.842-18.307,4.313-2.882,10.934-2.971,15.74-.223a10.741,10.741,0,0,1,5.616,8.442,6.707,6.707,0,0,0,2.078,4.186l.11.1a6.857,6.857,0,0,0,5.11,1.807c15.851-.914,21.554,7.85,27.568,17.093,2.989,4.6,6.046,9.292,10.345,12.606C467.714-526.424,464.655-521.725,461.666-517.129Z" transform="translate(212.732 583.736)" fill="#ffe9c0"/>
</svg>
