<svg xmlns="http://www.w3.org/2000/svg" width="266.988" height="567.31" viewBox="0 0 266.988 567.31">
  <g id="Group_5908" data-name="Group 5908" transform="translate(-1266.506 -775.813)">
    <g id="Group_4651" data-name="Group 4651" transform="translate(1362.647 775.813)">
      <g id="Group_4611" data-name="Group 4611" transform="translate(14.579 49.217)">
        <g id="Group_4607" data-name="Group 4607" transform="translate(0 7.938)">
          <g id="Group_4606" data-name="Group 4606">
            <g id="Group_4605" data-name="Group 4605">
              <path id="Path_15383" data-name="Path 15383" d="M4768.824,1062.384c5.883.723,10.114.215,10.658-.176.79-.569,2.647-7.11.45-8.376-2.736-1.577-12.075-3.732-13.013-3.564a2.108,2.108,0,0,0-1.356,2.808c.487.842-.49,1.166-.864,2.461-.3,1.048.841,2.345.841,2.345s.544.3.136,2.539C4765.531,1061.221,4768.489,1062.343,4768.824,1062.384Z" transform="translate(-4764.648 -1050.258)" fill="#fa955a"/>
            </g>
          </g>
        </g>
        <g id="Group_4610" data-name="Group 4610" transform="translate(7.672)">
          <g id="Group_4609" data-name="Group 4609">
            <g id="Group_4608" data-name="Group 4608">
              <path id="Path_15384" data-name="Path 15384" d="M4804.887,1020.911a25.49,25.49,0,0,1-.34-9.114c.478-2.519,1.664-3.117,1.966-2.031s.908,4.795,1.33,6.316,4.271,3.589,4.215,4.99C4812.05,1021.284,4804.887,1020.911,4804.887,1020.911Z" transform="translate(-4804.285 -1009.249)" fill="#fa955a"/>
            </g>
          </g>
        </g>
      </g>
      <g id="Group_4612" data-name="Group 4612" transform="translate(28.168 60.545)">
        <path id="Path_15385" data-name="Path 15385" d="M4836.548,1067.96a14.311,14.311,0,0,0-1.065,10.917s12.5,2.219,12.5,1.48,2.508-12.579,2.508-12.579Z" transform="translate(-4834.854 -1067.778)" fill="#292e4c"/>
      </g>
      <g id="Group_4619" data-name="Group 4619" transform="translate(0 55.309)">
        <g id="Group_4615" data-name="Group 4615" transform="translate(0 7.837)">
          <g id="Group_4614" data-name="Group 4614">
            <g id="Group_4613" data-name="Group 4613">
              <path id="Path_15386" data-name="Path 15386" d="M4693.575,1092.64c5.613.427,9.606-.24,10.1-.635.724-.574,2.2-6.862.061-7.967-2.666-1.376-11.621-3.01-12.5-2.81a2,2,0,0,0-1.164,2.723c.5.777-.414,1.128-.711,2.373-.241,1.008.9,2.188.9,2.188s.529.262.242,2.4C4690.4,1091.681,4693.256,1092.616,4693.575,1092.64Z" transform="translate(-4689.328 -1081.211)" fill="#fa955a"/>
            </g>
          </g>
        </g>
        <g id="Group_4618" data-name="Group 4618" transform="translate(6.919)">
          <g id="Group_4617" data-name="Group 4617">
            <g id="Group_4616" data-name="Group 4616">
              <path id="Path_15387" data-name="Path 15387" d="M4725.923,1051.837a24.2,24.2,0,0,1-.723-8.633c.343-2.411,1.442-3.031,1.775-2.013s1.073,4.51,1.54,5.934,4.209,3.218,4.218,4.55C4732.735,1051.877,4725.923,1051.837,4725.923,1051.837Z" transform="translate(-4725.074 -1040.722)" fill="#fa955a"/>
            </g>
          </g>
        </g>
      </g>
      <g id="Group_4645" data-name="Group 4645" transform="translate(12.76 0)">
        <g id="Group_4633" data-name="Group 4633" transform="translate(28.954)">
          <g id="Group_4632" data-name="Group 4632">
            <g id="Group_4627" data-name="Group 4627">
              <g id="Group_4620" data-name="Group 4620" transform="translate(8.911 25.721)">
                <path id="Path_15388" data-name="Path 15388" d="M4953.785,900.582c.012-4.212-2.906-11-2.906-11l11.958-1.723s1.706,5.8,2.929,6.505S4953.785,900.582,4953.785,900.582Z" transform="translate(-4950.879 -887.86)" fill="#fa955a"/>
              </g>
              <g id="Group_4621" data-name="Group 4621" transform="translate(9.03 26.802)">
                <path id="Path_15389" data-name="Path 15389" d="M4957.56,893.445c-1.093.864-6.067.926-6.067.926l2.059,6.114s2.971-2.611,3.708-4.475S4957.56,893.445,4957.56,893.445Z" transform="translate(-4951.492 -893.445)" fill="#d66f1a"/>
              </g>
              <g id="Group_4622" data-name="Group 4622" transform="translate(0 11.445)">
                <path id="Path_15390" data-name="Path 15390" d="M4909.932,814.1s-2.195,2.068-3.845,3.662-1.754,2.159.244,2.779c.588.182,2.279.5,2.279.5Z" transform="translate(-4904.841 -814.101)" fill="#fa955a"/>
              </g>
              <g id="Group_4623" data-name="Group 4623" transform="translate(1.537)">
                <path id="Path_15391" data-name="Path 15391" d="M4935.5,770.062c-.7,4.1-3.388,10.633-3.581,11.26,0,0-13.083,3.517-18.672.125-1.2-.729.272-9.634.469-10.566.554-2.574.985-6.81,2.329-9.477,1.947-3.862,8.032-9.074,14.291-4.873C4934.582,759.38,4936.893,761.94,4935.5,770.062Z" transform="translate(-4912.781 -754.973)" fill="#fa955a"/>
              </g>
              <g id="Group_4624" data-name="Group 4624" transform="translate(4.457 12.19)">
                <path id="Path_15392" data-name="Path 15392" d="M4927.917,818.97c-.157.66.083,1.283.535,1.389s.944-.342,1.1-1-.084-1.282-.536-1.389S4928.073,818.309,4927.917,818.97Z" transform="translate(-4927.869 -817.951)" fill="#5c2e0f"/>
              </g>
              <g id="Group_4625" data-name="Group 4625" transform="translate(1.599 20.854)">
                <path id="Path_15393" data-name="Path 15393" d="M4915.953,862.716c-.291.791-2.853,1.583-2.853,1.583l.169-1.262C4913.791,863.2,4914.924,862.728,4915.953,862.716Z" transform="translate(-4913.1 -862.716)" fill="#f1f2f2"/>
              </g>
              <g id="Group_4626" data-name="Group 4626" transform="translate(3.863 8.367)">
                <path id="Path_15394" data-name="Path 15394" d="M4925.73,798.629c.138.574.28,1,.279.795,0-.134.008-.387.018-.606a18.622,18.622,0,0,1,1.632,1.141,1.386,1.386,0,0,1,.33,1.733c-.063.223-3.19-1.587-3.19-1.587a9.176,9.176,0,0,1,.233-1.9S4925.324,798.375,4925.73,798.629Z" transform="translate(-4924.797 -798.199)" fill="#292e4c"/>
              </g>
            </g>
            <g id="Group_4628" data-name="Group 4628" transform="translate(3.863 0.058)">
              <path id="Path_15395" data-name="Path 15395" d="M4925.007,758.918c-.865.561,1.013,2.857,4.458,4.9,1.549.919,2.4,7.45,2.711,10.336a2.219,2.219,0,0,0,1.5,1.874,34.241,34.241,0,0,0,13.469,1.624c2.254-.194.84-5.635.747-8.02s-1.082-8.983-2.252-10.1a27.185,27.185,0,0,0-9.638-4.205,11.377,11.377,0,0,0-5.311.823S4925.453,758.629,4925.007,758.918Z" transform="translate(-4924.797 -755.275)" fill="#292e4c"/>
            </g>
            <g id="Group_4629" data-name="Group 4629" transform="translate(12.971 5.828)">
              <path id="Path_15396" data-name="Path 15396" d="M4975.376,800.248c-2.565-4.683-3.638-9.6-2.078-14.825.1-.344-.424-.485-.534-.148-1.647,5.011-1.141,11.053,2.178,15.307C4975.141,800.836,4975.521,800.512,4975.376,800.248Z" transform="translate(-4971.853 -785.082)" fill="#5c6a8c"/>
            </g>
            <g id="Group_4630" data-name="Group 4630" transform="translate(17.642 13.471)">
              <path id="Path_15397" data-name="Path 15397" d="M4998.936,830.3a8.385,8.385,0,0,1-2.409-5.479.263.263,0,0,0-.526,0,7.105,7.105,0,0,0,2.557,5.857A.268.268,0,0,0,4998.936,830.3Z" transform="translate(-4995.99 -824.57)" fill="#5c6a8c"/>
            </g>
            <g id="Group_4631" data-name="Group 4631" transform="translate(21.816 9.69)">
              <path id="Path_15398" data-name="Path 15398" d="M5019.967,813.237a20.259,20.259,0,0,1-1.965-7.99.218.218,0,0,0-.436,0,15.048,15.048,0,0,0,1.931,8.264C5019.682,813.818,5020.1,813.55,5019.967,813.237Z" transform="translate(-5017.554 -805.037)" fill="#5c6a8c"/>
            </g>
          </g>
        </g>
        <g id="Group_4640" data-name="Group 4640" transform="translate(21.727 92.821)">
          <g id="Group_4636" data-name="Group 4636" transform="translate(2.396 121.85)">
            <g id="Group_4634" data-name="Group 4634">
              <path id="Path_15399" data-name="Path 15399" d="M4894.143,1864.994c-2.682,4.646-5.954,7.662-9.1,8.309a7.125,7.125,0,0,0-5.049,3.872,1.107,1.107,0,0,0,1,1.584h27.718a1.11,1.11,0,0,0,1.11-1.109v-7.121l-9.062-6.473Z" transform="translate(-4879.881 -1864.056)" fill="#923333"/>
            </g>
            <g id="Group_4635" data-name="Group 4635" transform="translate(0 9.565)">
              <path id="Path_15400" data-name="Path 15400" d="M4908.717,1918.611H4881a1.107,1.107,0,0,1-1-1.584,7.107,7.107,0,0,1,3.941-3.555,18.349,18.349,0,0,1,6.194,2.93h19.7v1.1A1.11,1.11,0,0,1,4908.717,1918.611Z" transform="translate(-4879.881 -1913.472)" fill="#5c6a8c"/>
            </g>
          </g>
          <g id="Group_4637" data-name="Group 4637">
            <path id="Path_15401" data-name="Path 15401" d="M4899.393,1237.79c1.609,5.067,1.919,6.743,2.92,10.37.935,3.386-3.1,13.432-3.194,15.347-.886,17.724,2.937,101.269.938,101.162-15.467-.832-10.532-7.57-16.451-6.091,0,0-8.282-62.209-8.9-69.36-.4-4.64-6-23.723-7.2-37-.133-1.48,2.216-17.074,2.216-17.074l10.09-.612Z" transform="translate(-4867.505 -1234.527)" fill="#dee5f2"/>
          </g>
          <g id="Group_4638" data-name="Group 4638" transform="translate(14.585 23.038)">
            <path id="Path_15402" data-name="Path 15402" d="M4942.87,1407.815c2.248-8.8,4.766-17.431,6.322-26.4a210.9,210.9,0,0,0,2.88-27.608.265.265,0,0,1,.529,0,191.642,191.642,0,0,1-2.582,27.108c-1.515,9.063-3.383,18.422-6.637,27.04A.266.266,0,0,1,4942.87,1407.815Z" transform="translate(-4942.86 -1353.553)" fill="#deb392"/>
          </g>
          <g id="Group_4639" data-name="Group 4639" transform="translate(14.699 25.539)">
            <path id="Path_15403" data-name="Path 15403" d="M4948.293,1366.711c.027-.311.511-.318.491,0-.674,11.074-1.975,22.472-4.79,33.225-.093.356-.6.2-.543-.15C4945.38,1388.766,4947.318,1377.875,4948.293,1366.711Z" transform="translate(-4943.446 -1366.475)" fill="#deb392"/>
          </g>
        </g>
        <g id="Group_4642" data-name="Group 4642" transform="translate(18.595 25.428)">
          <g id="Group_4641" data-name="Group 4641">
            <path id="Path_15404" data-name="Path 15404" d="M4886.547,890.623c5.554,5.452,6.837,10.609,8.07,16.452.82,3.884-7.714,24.253-7.415,44.136a49.364,49.364,0,0,0,2.9,15.456c0,.121-7.021,4.08-20.07,3.587-14.1-.533-18.707-5.055-18.707-5.055s6.967-41.753,8.732-45.47c2.379-5.013,9.352-17.034,9.352-17.034l1.814-3.952-.324-1.9a1.615,1.615,0,0,1,.562-1.515l11.683-8.772a.931.931,0,0,1,1.411.287Z" transform="translate(-4851.324 -886.345)" fill="#292e4c"/>
          </g>
        </g>
        <g id="Group_4643" data-name="Group 4643" transform="translate(0 36.417)">
          <path id="Path_15405" data-name="Path 15405" d="M4758.858,971.1c-4.435,2.712-4.272,9.4-2.22,11.667,0,0,28.729,6.41,32.094,3.044s19.387-33.364,19.387-33.364-8.281-11.87-10.034-8.834-17.507,27.733-17.507,27.733Z" transform="translate(-4755.252 -943.12)" fill="#292e4c"/>
        </g>
        <g id="Group_4644" data-name="Group 4644" transform="translate(11.604 76.068)">
          <path id="Path_15406" data-name="Path 15406" d="M4815.66,1147.975c.579.031,1.161.056,1.736.128a.442.442,0,0,1,.345.705.435.435,0,0,1-.354.162l.008.011c-.578.011-1.159-.025-1.736-.055C4815.051,1148.893,4815.047,1147.942,4815.66,1147.975Z" transform="translate(-4815.202 -1147.974)" fill="#5c6a8c"/>
        </g>
      </g>
      <g id="Group_4646" data-name="Group 4646" transform="translate(41.523 51.103)">
        <path id="Path_15407" data-name="Path 15407" d="M4927.895,1019.1a130.126,130.126,0,0,1-10.7,16.227c-3.53,4.659-7.152,10.8-13.062,12.615a.4.4,0,0,0,.214.778c5.557-1.559,8.976-7.079,12.276-11.407,4.333-5.684,8.575-11.511,11.636-18C4928.376,1019.071,4928.027,1018.857,4927.895,1019.1Z" transform="translate(-4903.853 -1018.993)" fill="#5c6a8c"/>
      </g>
      <g id="Group_4647" data-name="Group 4647" transform="translate(37.949 65.011)">
        <path id="Path_15408" data-name="Path 15408" d="M4886.378,1092.923a11.075,11.075,0,0,0-.522-1.951c-.1-.236-.469-.106-.465.126a11.189,11.189,0,0,0,.33,2.007,9.508,9.508,0,0,0,.492,1.969c.119.268.532.12.531-.144A9.617,9.617,0,0,0,4886.378,1092.923Z" transform="translate(-4885.391 -1090.847)" fill="#5c6a8c"/>
      </g>
      <g id="Group_4648" data-name="Group 4648" transform="translate(40.046 64.122)">
        <path id="Path_15409" data-name="Path 15409" d="M4896.667,1086.334c-.184-.225-.567.07-.4.312a9.332,9.332,0,0,1,1.132,2.2c.247.723.289,1.476.5,2.2a.293.293,0,0,0,.573-.078A6.971,6.971,0,0,0,4896.667,1086.334Z" transform="translate(-4896.223 -1086.254)" fill="#5c6a8c"/>
      </g>
      <g id="Group_4649" data-name="Group 4649" transform="translate(39.138 33.009)">
        <path id="Path_15410" data-name="Path 15410" d="M4912.513,925.577c-4.687,3.263-8.208,7.735-11.215,12.538a183.807,183.807,0,0,0-9.739,17.394.211.211,0,0,0,.364.213c6.472-10.06,10.757-22.446,20.949-29.531C4913.245,925.931,4912.89,925.315,4912.513,925.577Z" transform="translate(-4891.534 -925.513)" fill="#5c6a8c"/>
      </g>
      <g id="Group_4650" data-name="Group 4650" transform="translate(27.733 63.968)">
        <path id="Path_15411" data-name="Path 15411" d="M4843.534,1085.482c-1.875-.1-3.794.146-5.673.2a40.808,40.808,0,0,0-5.047.2.291.291,0,0,0,0,.557,27.127,27.127,0,0,0,5.4.124,33.464,33.464,0,0,0,5.417-.355C4844.06,1086.127,4843.933,1085.5,4843.534,1085.482Z" transform="translate(-4832.607 -1085.459)" fill="#5c6a8c"/>
      </g>
    </g>
    <g id="Group_4665" data-name="Group 4665" transform="translate(1266.506 1175.5)">
      <g id="Group_4656" data-name="Group 4656" transform="translate(69.003 0)">
        <path id="Path_15412" data-name="Path 15412" d="M-906.428,1278.128c-5.154.754-5.846-.817-7.417.754s-7.89,8.82-5.532,8.82,3.794-5.532,7.052-4.787,7.406,2.161,7.406,0A11.852,11.852,0,0,0-906.428,1278.128Z" transform="translate(1035.974 -1177.004)" fill="#fa955a"/>
        <path id="Path_15413" data-name="Path 15413" d="M-1145.436,936.708c2.263,3.771,8.8,11.315,8.8,12.823s-13.326,6.608-13.326,6.608l-2.011-6.105Z" transform="translate(1316.343 -907.161)" fill="#fa955a"/>
        <path id="Path_15414" data-name="Path 15414" d="M-1027.528,1243.946c-7.214.671-26.2,4.191-26.2,6.37s.048,10.9,2.059,10.9,27.512-3.352,27.512-3.352Z" transform="translate(1183.272 -1149.988)" fill="#cef5f5"/>
        <path id="Path_15415" data-name="Path 15415" d="M-390.71,1366.569c-1.832-1.832-4.034-6.8-5.291-10.886s-1.094-8.384-4.048-8.384c-1.76,0-2.816,5.553-1.81,12.845s.87,23.238,2.974,23.238,10.879-3.03,10.213-6.036S-390.71,1366.569-390.71,1366.569Z" transform="translate(411.168 -1231.674)" fill="#cef5f5"/>
        <path id="Path_15416" data-name="Path 15416" d="M-903.677,1348.441c-20.87-1.257-61.938.964-64.2.964s-71.157,16.972-71.157,19.738.126,5.909,2.263,8.046,33.441,4.777,56.322-3.771,69.4-8.013,69.4-8.013Z" transform="translate(1059.708 -1232.272)" fill="#484878"/>
        <path id="Path_15417" data-name="Path 15417" d="M-973.2,1392.568a85.63,85.63,0,0,1-55.624,8.022c-17.51-3.474-25.432-10.229-25.432-10.229s-16.505,11.757-44.957,7.772c-31.572-4.422-30.589-7.419-30.589-7.419l1.763-8.964,72.326-12.313s75.119-5.868,76.788-.845S-973.2,1392.568-973.2,1392.568Z" transform="translate(1148.266 -1246.896)" fill="#303061"/>
        <path id="Path_15418" data-name="Path 15418" d="M-704.779,1367.079c-2.263,0-74.755,12.261-75.1,16.595-.217,2.757,2.556,7.334,4.693,9.471s43.415,3.52,61.854-11.141C-693.96,1366.6-702.516,1367.079-704.779,1367.079Z" transform="translate(802.645 -1247.306)" fill="#484878"/>
        <path id="Path_15419" data-name="Path 15419" d="M-402.709,1399.889c0,1.44-7.6,5.167-10.193,6.319s-10.6-9.316-14.36-16.745c-3.834-7.575-5.469-11.573-2.682-13.773,1.758-1.388,4.768,2.981,8.891,7.1,7.687,7.687,10.477,6.967,13.375,7.445C-403.61,1390.91-402.709,1399.889-402.709,1399.889Z" transform="translate(431.341 -1253.905)" fill="#e0ffff"/>
        <g id="Group_4655" data-name="Group 4655" transform="translate(73.16 67.823)">
          <g id="Group_4652" data-name="Group 4652" transform="translate(2.985 0.694)">
            <path id="Path_15420" data-name="Path 15420" d="M-750.372,1165.356l-21.425-42.762-3.082.985,20.892,41.777Z" transform="translate(774.879 -1122.594)" fill="#d9faff"/>
          </g>
          <g id="Group_4653" data-name="Group 4653" transform="translate(0 0)">
            <path id="Path_15421" data-name="Path 15421" d="M-745.034,1168.072a2.4,2.4,0,0,0,.247-.105,2.458,2.458,0,0,0,1.129-3.287l-21.52-44.017a2.455,2.455,0,0,0-3.287-1.129,2.458,2.458,0,0,0-1.129,3.288l21.52,44.017A2.458,2.458,0,0,0-745.034,1168.072Z" transform="translate(769.845 -1119.282)" fill="#bfbfbf"/>
          </g>
          <g id="Group_4654" data-name="Group 4654" transform="translate(21.452 43.337)">
            <path id="Rectangle_639" data-name="Rectangle 639" d="M0,0H44.706a4.986,4.986,0,0,1,4.986,4.986V6.415a0,0,0,0,1,0,0H6.415A6.415,6.415,0,0,1,0,0V0A0,0,0,0,1,0,0Z" fill="#bfbfbf"/>
          </g>
        </g>
        <path id="Path_15422" data-name="Path 15422" d="M-1186.81,1017.043c5,13.755,9.315,75.909-23.371,87.22-13.373,7.288-28.971-26.479-28.971-33.52s18.171-20.809,10.478-28.5c-7.208-7.208-5.235-14.248,1.3-26.82s11.674-17.181,11.674-17.181a20.453,20.453,0,0,0,13.821-5.471S-1192.845,1000.445-1186.81,1017.043Z" transform="translate(1381.353 -951.469)" fill="#cef5f5"/>
        <path id="Path_15423" data-name="Path 15423" d="M-1111.433,1007.386c-6.957,4.583-12.54,14.6-17.518,14.066a91.553,91.553,0,0,1,8.943-12.682S-1107.731,1004.947-1111.433,1007.386Z" transform="translate(1285.619 -962.378)" fill="#fa955a"/>
        <path id="Path_15424" data-name="Path 15424" d="M-1089.463,868.629c-1.616,2.99-7.007,9.686-12.042,9.413-8.881-.217-14.276-14.681-14.227-20.426s8.572-18.058,15.347-17.287c9.794,1.115,14.79,9.694,14.555,17.038S-1089.463,868.629-1089.463,868.629Z" transform="translate(1257.932 -830.96)" fill="#fa955a"/>
        <path id="Path_15425" data-name="Path 15425" d="M-1094.1,807.94c4.974.443,11.786-4.833,8.23-7.952s-13.8-6.5-15.151-2.145c-1.265,4.068,1.508,9.614,1.508,9.614Z" transform="translate(1253.981 -795.769)" fill="#301c09"/>
        <path id="Path_15426" data-name="Path 15426" d="M-1113.911,859.144c-4.011-.5-5.183-7.655-3.172-14.067a15.691,15.691,0,0,1,9.8-10.4c2.534-.808,12.521-.032,17.063,4.51,3.55,3.55,5.6,11.585,4.321,15.527-1.1,3.4-9.937-5.28-11.97-5.28S-1106.465,859.144-1113.911,859.144Z" transform="translate(1258.111 -826.3)" fill="#301c09"/>
        <path id="Path_15427" data-name="Path 15427" d="M-1065.168,899.269c4.193-1.657-.086-9.136-2.6-9.136s-2.838,3.136-2.119,6.22S-1065.168,899.269-1065.168,899.269Z" transform="translate(1225.974 -870.35)" fill="#fa955a"/>
        <path id="Path_15428" data-name="Path 15428" d="M-877.363,1298.845c-3.143-.662-4.693-6.026-6.621-5.272s-6.025,3.34-6.873,2.492,6.715-7.748,8.175-7.647c1.8.126,6.351,1.693,7.608,5.213S-877.363,1298.845-877.363,1298.845Z" transform="translate(999.786 -1185.136)" fill="#fa955a"/>
        <path id="Path_15429" data-name="Path 15429" d="M-1116.517,1029.442c13.741,1.742,3.987,59.422-4.73,66.127s-48.042,6.21-51.661-.5c-1.458-2.7,1.776-8.737,2.585-8.737s28.738-9.378,32.908-7.3C-1137.415,1079.031-1132.381,1027.43-1116.517,1029.442Z" transform="translate(1293.843 -980.408)" fill="#e0ffff"/>
        <path id="Path_15430" data-name="Path 15430" d="M-1052.044,906.762c2.484,1.9,6.318,6.241,6.7,7.724,1.2,4.69-1.066,5.322-1.066,5.322s4.894,1.783,3.534-6.1c-.351-2.035-2.865-6.4-4.232-7.278C-1048.792,905.353-1052.044,906.762-1052.044,906.762Z" transform="translate(1201.397 -882.911)" fill="#301c09"/>
      </g>
      <g id="Group_4664" data-name="Group 4664" transform="translate(0 82.576)">
        <g id="Group_4663" data-name="Group 4663" transform="translate(0 0)">
          <g id="Group_4657" data-name="Group 4657" transform="translate(2.58 3.017)">
            <path id="Path_15431" data-name="Path 15431" d="M1375.8,1043.333a10.366,10.366,0,1,1-10.366-10.366C1371.155,1032.967,1375.674,1039.061,1375.8,1043.333Z" transform="translate(-1355.063 -1032.967)" fill="#343469"/>
          </g>
          <g id="Group_4658" data-name="Group 4658" transform="translate(8.343 8.961)">
            <path id="Path_15432" data-name="Path 15432" d="M1409,1081.587c1.364,12.745,1.663,25.238-15.407,25.238-13.015,0-16.485-9.6-15.769-24.276.7-14.411,4.914-29.366,12.78-25.614C1399.314,1061.093,1407.62,1068.725,1409,1081.587Z" transform="translate(-1377.732 -1056.349)" fill="#343469"/>
          </g>
          <g id="Group_4659" data-name="Group 4659" transform="translate(25.245 52.938)">
            <path id="Path_15433" data-name="Path 15433" d="M1468.646,1261.463l-.118,0a2.661,2.661,0,0,1-2.542-2.774c0-.049.211-4.954-.036-10.2-.424-9.009-1.992-10.588-3.2-11.214-1.79-.86-9.1-2-16.095-2.607a2.661,2.661,0,0,1,.46-5.3c3.717.322,16.1,1.511,19.421,3.287,1.745.934,2.916,2.988,3.684,6.464a54.2,54.2,0,0,1,1.013,8.507c.306,5.727.078,11.073.068,11.3A2.661,2.661,0,0,1,1468.646,1261.463Zm-4.619-24.175h0Zm-.105-.015Z" transform="translate(-1444.226 -1229.354)" fill="#343469"/>
          </g>
          <g id="Group_4660" data-name="Group 4660" transform="translate(0 7.591)">
            <path id="Path_15434" data-name="Path 15434" d="M1349.206,1056.279l-4.078-3.827a.681.681,0,0,1,.428-1.177l5.51-.312Z" transform="translate(-1344.912 -1050.962)" fill="#343469"/>
          </g>
          <g id="Group_4661" data-name="Group 4661" transform="translate(11.339)">
            <path id="Path_15435" data-name="Path 15435" d="M1393.984,1025.1l-2.589-3.79a.4.4,0,0,0-.749.123l-1.129,3.953Z" transform="translate(-1389.518 -1021.099)" fill="#343469"/>
          </g>
          <g id="Group_4662" data-name="Group 4662" transform="translate(1.762 23.855)">
            <path id="Path_15436" data-name="Path 15436" d="M1362.436,1127.129a2.661,2.661,0,0,1-2.32-2.75,3.737,3.737,0,0,0-1.71-3.534,2.979,2.979,0,0,0-2.294-.523,2.661,2.661,0,0,1-3.236-4.225c1.907-1.477,4.986-1.541,7.663-.159a9.052,9.052,0,0,1,4.894,8.662,2.661,2.661,0,0,1-2.769,2.548C1362.587,1127.145,1362.511,1127.139,1362.436,1127.129Z" transform="translate(-1351.844 -1114.944)" fill="#343469"/>
          </g>
        </g>
        <path id="Path_15437" data-name="Path 15437" d="M1374.83,1233.172c-.7,0-12.071-.678-12.108,2.42s1.457,2.542,5.623,2.542,10.723.039,10.723.039Z" transform="translate(-1358.194 -1179.217)" fill="#343469"/>
      </g>
    </g>
  </g>
</svg>
