<svg xmlns="http://www.w3.org/2000/svg" xmlns:xlink="http://www.w3.org/1999/xlink" width="1920" height="619" viewBox="0 0 1920 619">
  <defs>
    <clipPath id="clip-path">
      <rect id="Rectangle_695" data-name="Rectangle 695" width="1920" height="619" transform="translate(0 802)" fill="#fff" stroke="#707070" stroke-width="1"/>
    </clipPath>
    <clipPath id="clip-path-2">
      <path id="Path_15320" data-name="Path 15320" d="M950.029,653.425c-1.29-2.234-8.587-5.455-11.071-6.126h0a45.8,45.8,0,0,0-18.318-1.914c-3.077,0-26.465,30.726-27.327,30.726s-22.921,5.512-25.057,6.745,0,10.14,0,10.14c1.654,1.655,30.573-1.261,37.267-2.931-.191,4.882-.217,8.844.223,9.6.743,1.287,12.356,1.9,20.47,2.164a6.361,6.361,0,0,0-.808,1.041c-1.649,2.855.143,8.609,3.59,9.347s22.726-9.228,23.587-12.552S951.319,655.659,950.029,653.425ZM937.562,693v0h0Z" transform="translate(-867.307 -645.161)" fill="none"/>
    </clipPath>
  </defs>
  <g id="Mask_Group_46" data-name="Mask Group 46" transform="translate(0 -802)" clip-path="url(#clip-path)">
    <g id="Group_5907" data-name="Group 5907">
      <g id="Group_4546" data-name="Group 4546" transform="translate(385.557 802)">
        <g id="Group_4537" data-name="Group 4537" transform="translate(0 0)">
          <g id="Group_4532" data-name="Group 4532" transform="translate(23.715 235.668)">
            <path id="Path_15209" data-name="Path 15209" d="M580.823,1838.718a6.478,6.478,0,0,1-2.387,4,3.331,3.331,0,0,0-1.453,2.714v.364a.864.864,0,0,0,.864.864h11.217a2.453,2.453,0,0,0,2.453-2.453v-6.036a.864.864,0,0,0-.935-.86l-8.991.745A.866.866,0,0,0,580.823,1838.718Z" transform="translate(-576.983 -1837.307)" fill="#292e4c"/>
            <path id="Path_15210" data-name="Path 15210" d="M577.439,1878.054a3.2,3.2,0,0,0-.456,1.634v.363a.864.864,0,0,0,.864.864h11.217a2.453,2.453,0,0,0,2.453-2.453v-.408Z" transform="translate(-576.983 -1871.563)" fill="#292e4c"/>
          </g>
          <g id="Group_4533" data-name="Group 4533" transform="translate(55.341 235.668)">
            <path id="Path_15211" data-name="Path 15211" d="M786.2,1838.718a6.478,6.478,0,0,0,2.387,4,3.331,3.331,0,0,1,1.453,2.714v.364a.864.864,0,0,1-.864.864H777.962a2.453,2.453,0,0,1-2.453-2.453v-6.036a.863.863,0,0,1,.935-.86l8.991.745A.865.865,0,0,1,786.2,1838.718Z" transform="translate(-775.509 -1837.307)" fill="#292e4c"/>
            <path id="Path_15212" data-name="Path 15212" d="M789.587,1878.054a3.2,3.2,0,0,1,.456,1.634v.363a.864.864,0,0,1-.864.864H777.962a2.453,2.453,0,0,1-2.453-2.453v-.408Z" transform="translate(-775.509 -1871.563)" fill="#292e4c"/>
          </g>
          <path id="Path_15213" data-name="Path 15213" d="M1110.7,688.878a30.874,30.874,0,0,1,8.685-2.91l-.376,13.019s-9.74-1.477-9.74-1.893S1110.7,688.878,1110.7,688.878Z" transform="translate(-1000.76 -633.714)" fill="#bd6219"/>
          <g id="Group_4534" data-name="Group 4534" transform="translate(18.401 110.048)">
            <path id="Path_15214" data-name="Path 15214" d="M544.161,1057.877c-2.539,29.912,4.639,125.585,6.839,126.855s9.539,1.4,13.879-1.108l5.814-124.078Z" transform="translate(-543.624 -1056.424)" fill="#c55a5a"/>
            <path id="Path_15215" data-name="Path 15215" d="M697.627,1048.757c0,4.8.954,125.723-.169,127.668s-13.008.887-15.839-1.945-6.182-95.25-6.182-95.25l-3.61-2.47-3.61-24.772Z" transform="translate(-648.368 -1048.757)" fill="#c55a5a"/>
          </g>
          <path id="Path_15216" data-name="Path 15216" d="M579.487,525.694c2.551-1.473,16.8-.554,16.8,0a32.278,32.278,0,0,0,1.383,3.979l5.418,1.209,9.324,80.609a46.021,46.021,0,0,1-19.521,4.062,64.521,64.521,0,0,1-20.546-3.324V531.172l6.37-2.308Z" transform="translate(-549.371 -498.304)" fill="#dee5f2"/>
          <path id="Path_15217" data-name="Path 15217" d="M633.837,520.622c0,3.077-.491,5.991-.775,6.155s2.683,4.431,4.221,4.739,9.109-1.108,8.555-4.985l-.492-5.6Z" transform="translate(-600.398 -494.709)" fill="#9c4805"/>
          <g id="Group_4535" data-name="Group 4535" transform="translate(26.07)">
            <path id="Path_15218" data-name="Path 15218" d="M607.761,359.1a5.636,5.636,0,0,0-1.649,1.468,14.7,14.7,0,0,0-2.4,11.058c.831,5.355,4.062,14.771,6.278,15.51s9.509,2.031,11.263-2.677,3.224-17.145,1.662-20.772c-2.585-6-9.047-5.724-11.448-5.724A7.732,7.732,0,0,0,607.761,359.1Z" transform="translate(-601.637 -357.959)" fill="#bd6219"/>
            <path id="Path_15219" data-name="Path 15219" d="M724.844,425.914c1.139-.431,1.946-.475,2.558.917s-2.287,6.073-2.773,5.792S724.844,425.914,724.844,425.914Z" transform="translate(-703.319 -414.865)" fill="#bd6219"/>
            <path id="Path_15220" data-name="Path 15220" d="M594,439.969a1.449,1.449,0,0,0-2.216,1.042c-.246,1.543,2.724,5.363,3.477,4.928S594,439.969,594,439.969Z" transform="translate(-591.766 -426.734)" fill="#bd6219"/>
            <path id="Path_15221" data-name="Path 15221" d="M626.13,447.578l-3.108,6.774a6.5,6.5,0,0,0-5.662-3.281c-3.847.135-5.016,4.05-5.57,4.05s-3.9-6.147-4.624-7.439c0,0-.358-.115.122,2.6,1.318,5.284,3.15,10.689,5.348,12.193,1.754,1.2,9.832,2.031,11.586-2.677a46.565,46.565,0,0,0,2.007-11.247Z" transform="translate(-604.605 -433.301)" fill="#292e4c"/>
            <path id="Path_15222" data-name="Path 15222" d="M655.218,493.253a3.819,3.819,0,0,0,2.739,2.093c1.785.123,2.985-2.593,2.985-2.593a13.557,13.557,0,0,1-3.047.624C656.788,493.376,655.218,493.253,655.218,493.253Z" transform="translate(-645.11 -471.279)" fill="#f1f2f2"/>
            <path id="Path_15223" data-name="Path 15223" d="M631.781,405.987c.739-.739,2.462-1.97,3.139-1.293s-.185,1.569-1.262,2.031-1.726.076-1.877-.185A.63.63,0,0,1,631.781,405.987Z" transform="translate(-625.35 -397.084)" fill="#292e4c"/>
            <path id="Path_15224" data-name="Path 15224" d="M683.982,406.214c-.8-.671-2.626-1.744-3.241-1.01s.323,1.547,1.436,1.912,1.727-.076,1.854-.35A.63.63,0,0,0,683.982,406.214Z" transform="translate(-666.403 -397.47)" fill="#292e4c"/>
            <path id="Path_15225" data-name="Path 15225" d="M645.768,431.448c0,.68-.4,1.231-.9,1.231s-.9-.551-.9-1.231.4-1.231.9-1.231S645.768,430.768,645.768,431.448Z" transform="translate(-635.66 -418.706)" fill="#3c2415"/>
            <path id="Path_15226" data-name="Path 15226" d="M686.407,431.448c0,.68-.4,1.231-.9,1.231s-.9-.551-.9-1.231.4-1.231.9-1.231S686.407,430.768,686.407,431.448Z" transform="translate(-669.825 -418.706)" fill="#3c2415"/>
            <path id="Path_15227" data-name="Path 15227" d="M664.718,459.635c-.44.014-.769.344-1.22.377a2.19,2.19,0,0,1-1.346-.472c-.266-.167-.648.179-.45.45a2.117,2.117,0,0,0,1.712.835c.564.005,1.427-.2,1.59-.813A.3.3,0,0,0,664.718,459.635Z" transform="translate(-650.515 -443.32)" fill="#9c4805"/>
            <path id="Path_15228" data-name="Path 15228" d="M655.48,384.526a4.337,4.337,0,0,0-1.787-.014,4.1,4.1,0,0,0-1.586.4.253.253,0,0,0,.127.468c.564,0,1.124-.188,1.687-.242a13.292,13.292,0,0,0,1.56-.1A.269.269,0,0,0,655.48,384.526Z" transform="translate(-642.393 -380.208)" fill="#9c4805"/>
            <path id="Path_15229" data-name="Path 15229" d="M658.665,376.278a4.32,4.32,0,0,0-2.268.095.264.264,0,0,0,.07.516c.381,0,.761-.03,1.142-.034a5.645,5.645,0,0,0,1.056-.04C658.951,376.758,658.908,376.358,658.665,376.278Z" transform="translate(-645.945 -373.263)" fill="#9c4805"/>
          </g>
          <path id="Path_15230" data-name="Path 15230" d="M623.055,534.724c1.394,2.415,6.148,4.508,6.148,4.508l1.838,5.278-6.394-1.1s-1.591-2.456-1.591-3.195Z" transform="translate(-592.001 -506.564)" fill="#dee5f2"/>
          <path id="Path_15231" data-name="Path 15231" d="M676.95,546.01l.554-4.478s5.37-1.339,6.047-4.2l1.606,6.555s-1.976,2.262-2.114,2.123S676.95,546.01,676.95,546.01Z" transform="translate(-637.31 -508.757)" fill="#dee5f2"/>
          <path id="Path_15232" data-name="Path 15232" d="M610.748,547.757c.048.092.095.2.144.279s.086.142.15.221a4.724,4.724,0,0,0,.379.451c.137.145.285.284.434.421s.309.267.472.394a19.156,19.156,0,0,0,2.071,1.4c.722.429,1.466.828,2.219,1.207q.566.284,1.139.551l.574.263.569.248-.414-.1,3.145.1-.442.124h0l1-.558,1-.577c.664-.39,1.324-.788,1.973-1.2s1.29-.835,1.908-1.282a11.375,11.375,0,0,0,1.707-1.445l.011-.012a.369.369,0,0,1,.569.469,12.053,12.053,0,0,1-1.672,1.75c-.591.529-1.2,1.028-1.817,1.515s-1.244.96-1.876,1.424l-.954.689-.97.678h0a.759.759,0,0,1-.389.122l-.054,0-3.145.095h-.031a.727.727,0,0,1-.383-.1l-.579-.334-.564-.339q-.56-.343-1.111-.7c-.733-.478-1.454-.976-2.155-1.507a20.231,20.231,0,0,1-2.019-1.722c-.16-.156-.313-.321-.466-.487s-.3-.344-.434-.528a5.577,5.577,0,0,1-.386-.583c-.061-.1-.116-.225-.172-.336s-.078-.205-.118-.309a.369.369,0,0,1,.671-.3Z" transform="translate(-581.062 -517.342)" fill="#292e4c"/>
          <path id="Path_15233" data-name="Path 15233" d="M659.661,588.438a6.034,6.034,0,0,0,1.363,4.231h2.037a12.877,12.877,0,0,0,.831-4.339Z" transform="translate(-622.775 -551.631)" fill="#292e4c"/>
          <path id="Path_15234" data-name="Path 15234" d="M668.216,615.567l1.391,56.885,2.707,3.757a.711.711,0,0,0,1.2-.078l1.921-3.557-5.183-57.008Z" transform="translate(-629.967 -574.529)" fill="#292e4c"/>
          <path id="Path_15235" data-name="Path 15235" d="M528.4,557.243c3.723,11.553,5.4,85.686,3.277,87.81s-13.521,1.879-14.4.352-1.529-80.446.229-83.49S528.4,557.243,528.4,557.243Z" transform="translate(-502.334 -525.496)" fill="#fdbd5d"/>
          <path id="Path_15236" data-name="Path 15236" d="M751.9,554.2a1.062,1.062,0,0,0-1.359.929c-1.279,15.309,4.795,84.819,6.424,85.76,1.68.97,11.924,1.3,13.058-.665.553-.958-1.516-15.655-3.557-35.079-2.144-20.4-3.582-45.1-4.977-46.5C759.419,556.58,754.26,554.893,751.9,554.2Z" transform="translate(-699.027 -522.902)" fill="#fdbd5d"/>
          <g id="Group_4536" data-name="Group 4536" transform="translate(54.18 62.399)">
            <path id="Path_15237" data-name="Path 15237" d="M771.173,751.129a1.474,1.474,0,1,1-1.474-1.474A1.474,1.474,0,0,1,771.173,751.129Z" transform="translate(-768.224 -749.654)" fill="#923333"/>
            <ellipse id="Ellipse_19" data-name="Ellipse 19" cx="1.474" cy="1.474" rx="1.474" ry="1.474" transform="matrix(0.231, -0.973, 0.973, 0.231, 3.614, 44.43)" fill="#923333"/>
            <circle id="Ellipse_20" data-name="Ellipse 20" cx="1.474" cy="1.474" r="1.474" transform="translate(0.931 20.532) rotate(-45)" fill="#923333"/>
          </g>
          <path id="Path_15238" data-name="Path 15238" d="M806.164,602.371c11.355,8.77,20.122,12.18,23.168,12.18s21.976-7.677,22.438-11.093.925-10.864-.922-10.864-20.589,4.238-20.589,4.238-25.881-24.14-29.717-24.14C797.691,572.691,806.164,602.371,806.164,602.371Z" transform="translate(-740.721 -538.483)" fill="#fdbd5d"/>
          <path id="Path_15239" data-name="Path 15239" d="M446.824,570.451s-8.346.371-13.331,24.165c-3.587,17.118-6.77,29.875-4.739,32.645s34.158,6.278,35.913,4.524,4.994-11.174,4.022-11.736-19.116-6.267-19.116-6.267Z" transform="translate(-428.119 -536.6)" fill="#fdbd5d"/>
          <path id="Path_15240" data-name="Path 15240" d="M515.447,838.8a40.141,40.141,0,0,0-8.974-2.245,59.393,59.393,0,0,0-9.205-1.1c-.353-.007-.451.577-.086.632,3.018.457,6.051.76,9.054,1.327s5.948,1.577,8.949,2.006C515.525,839.467,515.834,838.969,515.447,838.8Z" transform="translate(-485.986 -759.386)" fill="#f78d41"/>
          <path id="Path_15241" data-name="Path 15241" d="M503.7,806.46a.337.337,0,0,0-.325.558l.242.263a.257.257,0,0,0,.4-.021,7.34,7.34,0,0,1,2.66,1.523,17.753,17.753,0,0,1,1.966,2.745c.163.214.6.186.575-.156C509.017,808.887,505.935,806.837,503.7,806.46Z" transform="translate(-491.305 -735.006)" fill="#f78d41"/>
          <path id="Path_15242" data-name="Path 15242" d="M539.792,732.588a41.992,41.992,0,0,0-.48-6.1c-.054-.263-.412-.172-.436.059a46.5,46.5,0,0,0,.142,6.756,43.714,43.714,0,0,0,.394,6.129c.07.372.588.246.618-.083A48.147,48.147,0,0,0,539.792,732.588Z" transform="translate(-521.157 -667.641)" fill="#f78d41"/>
          <path id="Path_15243" data-name="Path 15243" d="M821.685,695.78a.207.207,0,0,0-.377.159c.32,1.825,1.044,3.577,1.4,5.407s.422,3.691.709,5.529c.06.381.6.251.632-.085A20.254,20.254,0,0,0,821.685,695.78Z" transform="translate(-758.668 -641.879)" fill="#f78d41"/>
          <path id="Path_15244" data-name="Path 15244" d="M970.013,724.085a.364.364,0,0,0-.531-.216,8.665,8.665,0,0,0-3.757,5.711.286.286,0,0,0,.551.152,9.412,9.412,0,0,1,3.142-4.911c.247,1.447.265,2.876.408,4.342.031.312.537.447.6.081A13.419,13.419,0,0,0,970.013,724.085Z" transform="translate(-880.079 -665.533)" fill="#f78d41"/>
          <path id="Path_15245" data-name="Path 15245" d="M526.473,944.595c-2.56-.291-5.207,0-7.793-.22-2.563-.221-5.132-1-7.688-1.07-.23-.006-.344.348-.122.452,2.227,1.048,5.026,1.245,7.457,1.485,2.629.259,5.638.6,8.234,0C526.952,945.153,526.818,944.634,526.473,944.595Z" transform="translate(-497.587 -850.056)" fill="#f78d41"/>
          <path id="Path_15246" data-name="Path 15246" d="M633.084,873.955c-2.575,2.917-3.51,8.1-3.071,11.859.054.461.743.49.741,0a24.485,24.485,0,0,1,.59-6.27,56.166,56.166,0,0,1,2.1-5.379A.218.218,0,0,0,633.084,873.955Z" transform="translate(-597.763 -791.702)" fill="#f78d41"/>
          <path id="Path_15247" data-name="Path 15247" d="M678.978,1071.96l2.173-5.6.874,5.6Z" transform="translate(-639.015 -953.511)" fill="#5c6a8c"/>
        </g>
        <g id="Group_4545" data-name="Group 4545" transform="translate(69.965 11.252)">
          <g id="Group_4538" data-name="Group 4538" transform="translate(14.804 210.811)">
            <path id="Path_15248" data-name="Path 15248" d="M1051.416,1753.446l.554,8.736,7.447-2.582.369-7.693Z" transform="translate(-1036.891 -1751.907)" fill="#fa955a"/>
            <path id="Path_15249" data-name="Path 15249" d="M960.238,1797.162c.369-.369.985-2.916,3.447-2.916a8.934,8.934,0,0,0,8.247-4.408c2.19-3.793,2.761-7.659,3.693-7.121s8-4.941,8-1.895v17.571h-2.093l-2.216-5.293s-2.708,5.293-3.323,5.293H960.238Z" transform="translate(-960.238 -1775.436)" fill="#292e4c"/>
          </g>
          <g id="Group_4539" data-name="Group 4539" transform="translate(44.039 210.811)">
            <path id="Path_15250" data-name="Path 15250" d="M1234.93,1753.446l.554,8.736,7.447-2.582.369-7.693Z" transform="translate(-1220.405 -1751.907)" fill="#fa955a"/>
            <path id="Path_15251" data-name="Path 15251" d="M1143.753,1797.162c.369-.369.985-2.916,3.447-2.916a8.934,8.934,0,0,0,8.247-4.408c2.19-3.793,2.761-7.659,3.693-7.121s8-4.941,8-1.895v17.571h-2.093l-2.216-5.293s-2.708,5.293-3.324,5.293h-15.756Z" transform="translate(-1143.753 -1775.436)" fill="#292e4c"/>
          </g>
          <path id="Path_15252" data-name="Path 15252" d="M1186.523,987.328v8.677s7.9,10.336,7.9,17.7c0,13.833-3.141,96.76-5.5,99.036s-10.566,2.257-11.915,0-9.688-74.417-9.688-79.646,1.108-25.025,1.108-26.36,1.977-19.053,1.977-19.053Z" transform="translate(-1119.526 -898.318)" fill="#fdbd5d"/>
          <path id="Path_15253" data-name="Path 15253" d="M1023.5,987.328c0,1.426-2.093,11.191-2.093,11.191s-14.033,43.768-14.033,55.279c0,6.39,3.447,54.938,5.416,56.84s12.43.61,13.7-1.509,2.8-44.4,2.8-51.415l16.595-62.64Z" transform="translate(-985.059 -898.318)" fill="#fdbd5d"/>
          <path id="Path_15254" data-name="Path 15254" d="M1123.5,1010.893c-4.575.918-8.968,1.883-13.671,1.877a49.892,49.892,0,0,1-8.888-.913,25.4,25.4,0,0,0,2.261-11.1c-.013-.271-.429-.356-.493-.067-.4,1.819-.54,3.686-.939,5.511s-1.055,3.591-1.463,5.413a.331.331,0,0,0,0,.127c-1.38-.26-2.761-.549-4.153-.845a.321.321,0,0,0-.17.618,39.748,39.748,0,0,0,13.847,2.191,39.141,39.141,0,0,0,13.867-2.1A.37.37,0,0,0,1123.5,1010.893Z" transform="translate(-1059.365 -909.399)" fill="#f78d41"/>
          <path id="Path_15255" data-name="Path 15255" d="M1135.25,1162.858c-.96-4.479-2.58-8.882-3.782-13.307-1.208-4.446-2.2-8.963-3.509-13.381a.312.312,0,0,0-.6.166c.813,4.527,2.083,9.006,3.281,13.444,1.186,4.4,2.188,9.047,3.883,13.28A.378.378,0,0,0,1135.25,1162.858Z" transform="translate(-1085.926 -1023.262)" fill="#f78d41"/>
          <path id="Path_15256" data-name="Path 15256" d="M868.256,694.182c1.833,1.833,34.689-2.575,36.166-4.052s19.295-43.559,16.218-43.559-24.4,30.489-25.265,30.489-24.983,5.749-27.119,6.982S868.256,694.182,868.256,694.182Z" transform="translate(-867.307 -611.846)" fill="#dee5f2"/>
          <path id="Path_15257" data-name="Path 15257" d="M1121.623,645.385a45.367,45.367,0,0,1,20.187,2.585c10.094,3.939-5.047,54.038-6.893,54.038s-27.081-.421-28.188-2.339.739-24.154.739-30.233S1121.623,645.385,1121.623,645.385Z" transform="translate(-1068.29 -610.66)" fill="#dee5f2"/>
          <path id="Path_15258" data-name="Path 15258" d="M1242.3,658.585c2.485.671,9.781,3.892,11.071,6.126s3.418,42.921,2.556,46.245-20.141,13.291-23.587,12.552-5.239-6.492-3.59-9.347,12.155-9.879,12.155-9.879Z" transform="translate(-1170.651 -621.946)" fill="#dee5f2"/>
          <path id="Path_15259" data-name="Path 15259" d="M1205.215,645.161s-7.633,9.052-2.775,11.857,16.514-9.842,16.514-9.842a42.65,42.65,0,0,0-7.836-1.79C1208.431,645.259,1205.215,645.161,1205.215,645.161Z" transform="translate(-1147.692 -610.66)" fill="#fa955a"/>
          <path id="Path_15260" data-name="Path 15260" d="M1104.548,711.164c-2.772,2.63-2.472,2.779-4.835,5.782-2.01,2.554-3.5,3.97-4.842,6.963-3.106,6.91,2.693,13.874.652,20.916-.122.42.492.569.643.177,2.643-6.871-3.515-13.878-.482-20.687,1.438-3.229,7.651-9.687,9.4-12.736A.345.345,0,0,0,1104.548,711.164Z" transform="translate(-1057.832 -666.068)" fill="#deb392"/>
          <path id="Path_15261" data-name="Path 15261" d="M1267.011,796.922c-1.307-1.694-4.169-2.394-6.227-2.109.447-4.092.418-8.3.609-12.4.2-4.346.61-8.749.511-13.1a.3.3,0,0,0-.6-.027c-.533,4.32-.568,8.741-.8,13.087-.224,4.166-.684,8.414-.633,12.59a31.963,31.963,0,0,0-5.689,4.249,37.389,37.389,0,0,0-5.049,5.029c-.193.245.188.548.408.346,1.736-1.589,3.345-3.3,5.138-4.829,1.688-1.441,3.568-2.644,5.269-4.057a.4.4,0,0,0,.251.169.244.244,0,0,0,.153.33,6.257,6.257,0,0,1,2.846,2.438c.158.208.516.009.447-.234a4.258,4.258,0,0,0-3.035-2.668.442.442,0,0,0,.1-.23c0-.036.007-.072.012-.108a10.536,10.536,0,0,1,3.113.467,17.964,17.964,0,0,1,2.777,1.534A.313.313,0,0,0,1267.011,796.922Z" transform="translate(-1188.264 -714.778)" fill="#deb392"/>
          <g id="Group_4540" data-name="Group 4540" transform="translate(53.411 0)">
            <path id="Path_15262" data-name="Path 15262" d="M1239.574,596.153c0,3.785-1.939,9.14-1.939,9.14l11.253.522,1.014-9.662Z" transform="translate(-1232.051 -569.459)" fill="#fa955a"/>
            <path id="Path_15263" data-name="Path 15263" d="M1246.327,590.727a67.138,67.138,0,0,0,7.723-2.02s2.417,3.534-.724,5.348-7.924.67-7.924.67Z" transform="translate(-1238.58 -563.2)" fill="#d66f1a"/>
            <path id="Path_15264" data-name="Path 15264" d="M1342.305,597.642a3.421,3.421,0,0,1-2.125-1.349.3.3,0,0,0-.511.3,2.926,2.926,0,0,0,2.559,1.614A.289.289,0,0,0,1342.305,597.642Z" transform="translate(-1317.795 -569.459)" fill="#c55a5a"/>
            <path id="Path_15265" data-name="Path 15265" d="M1212.772,454c-2.689,4.511-4.21,20.192-1.441,22.356s15.179-.011,15.179-.011,9.748-13.267,8.363-18.009S1216.2,448.242,1212.772,454Z" transform="translate(-1208.701 -447.848)" fill="#fa955a"/>
            <path id="Path_15266" data-name="Path 15266" d="M1212.644,571.817a5.052,5.052,0,0,1-1.307.258,3.656,3.656,0,0,1-1.29-.165c-.213-.067-.067,1.01.021,1.1.7.7,2.018-.082,2.769-.684C1213.112,572.1,1212.97,571.7,1212.644,571.817Z" transform="translate(-1208.765 -548.982)" fill="#fff"/>
            <path id="Path_15267" data-name="Path 15267" d="M1227.645,434.979c2.4,5.482,2.55,7.531,8.182,9.951,0,0-5.822,8.583-4.616,13.314.7,2.729,6.591,3.885,12.264,3.383,4.456-.394,2.912-2.484,2.912-2.484s-1.873-3.169-1.873-4.831,2.994-11.232,1.15-15.5c-1.462-3.384-1.4-2.637-1.4-2.637a12.469,12.469,0,0,0-7.023-6.155c-5-1.544-12.144-2.81-13.99,1.652s-.5,4.567-.5,4.567C1224.3,434.334,1225.339,435.648,1227.645,434.979Z" transform="translate(-1219.143 -428.591)" fill="#923333"/>
            <path id="Path_15268" data-name="Path 15268" d="M1205.333,528.434c-.41.874-3.182,4.29-2.7,4.775s2.627.435,2.627.435Z" transform="translate(-1202.58 -512.529)" fill="#fa955a"/>
            <path id="Path_15269" data-name="Path 15269" d="M1237.526,517.557c-.111.668-.537,1.153-.952,1.084s-.661-.666-.55-1.334.537-1.153.952-1.084S1237.637,516.889,1237.526,517.557Z" transform="translate(-1230.674 -502.257)" fill="#3c2415"/>
            <path id="Path_15270" data-name="Path 15270" d="M1213.079,513.583c-.107.647-.416,1.135-.688,1.089s-.407-.606-.3-1.253.416-1.135.689-1.089S1213.187,512.936,1213.079,513.583Z" transform="translate(-1210.545 -498.987)" fill="#3c2415"/>
            <path id="Path_15271" data-name="Path 15271" d="M1232.531,495.577c.771-.445,2.933.964,3.187,1.669.325.9-2.587.017-3.2-.6A.666.666,0,0,1,1232.531,495.577Z" transform="translate(-1227.524 -484.834)" fill="#923333"/>
            <path id="Path_15272" data-name="Path 15272" d="M1275.975,467.3c-3.587-1.262-6.393-3.353-7.333-7.228-.1-.408-.7-.232-.623.172.707,3.681,3.923,7.429,7.879,7.631C1276.243,467.9,1276.272,467.407,1275.975,467.3Z" transform="translate(-1257.588 -454.864)" fill="#c55a5a"/>
            <path id="Path_15273" data-name="Path 15273" d="M1293.473,467.631a15.991,15.991,0,0,1-4.322-5.218c-.157-.335-.633-.043-.491.287a10.8,10.8,0,0,0,4.481,5.362C1293.4,468.2,1293.717,467.843,1293.473,467.631Z" transform="translate(-1274.925 -456.9)" fill="#c55a5a"/>
            <path id="Path_15274" data-name="Path 15274" d="M1310.468,577.549a13.333,13.333,0,0,1-4.068-2.605c-1.449-1.648-1.818-4.116-.028-5.682.257-.225-.111-.567-.367-.367-4.293,3.348.623,8.228,4.238,9.19A.294.294,0,0,0,1310.468,577.549Z" transform="translate(-1288.123 -546.493)" fill="#c55a5a"/>
            <path id="Path_15275" data-name="Path 15275" d="M1216.051,493.318c.3-.17-.04,1.837-.426,1.837S1215.284,493.761,1216.051,493.318Z" transform="translate(-1213.347 -482.998)" fill="#923333"/>
            <path id="Path_15276" data-name="Path 15276" d="M1234.143,448.214a.288.288,0,0,0,.144.532,1.762,1.762,0,0,1,1.575.545c.406.451.52,1.05.878,1.518.164.215.562.174.554-.15C1237.257,449.31,1235.592,447.4,1234.143,448.214Z" transform="translate(-1229.001 -444.923)" fill="#c55a5a"/>
            <path id="Path_15277" data-name="Path 15277" d="M1353.09,482.5c-.239-.1-.44.269-.251.432a3.781,3.781,0,0,1,1.271,1.814,17.51,17.51,0,0,1,.33,2.4.279.279,0,0,0,.534,0C1355.212,485.517,1354.8,483.2,1353.09,482.5Z" transform="translate(-1328.839 -473.901)" fill="#c55a5a"/>
            <path id="Path_15278" data-name="Path 15278" d="M1350.973,497.464c-.187-.217-.507.06-.383.3a2.752,2.752,0,0,1,.191,1.858.272.272,0,0,0,.5.209A2.051,2.051,0,0,0,1350.973,497.464Z" transform="translate(-1326.987 -486.426)" fill="#c55a5a"/>
          </g>
          <g id="Group_4543" data-name="Group 4543" transform="translate(0 34.501)">
            <g id="Group_4542" data-name="Group 4542" clip-path="url(#clip-path-2)">
              <g id="Group_4541" data-name="Group 4541" transform="translate(5.817 0.064)">
                <path id="Path_15279" data-name="Path 15279" d="M1206.659,764.656a.891.891,0,0,0-.852,1.118l.019.056a.884.884,0,0,0,.833.634.9.9,0,0,0,.833-.634l.019-.056A.89.89,0,0,0,1206.659,764.656Z" transform="translate(-1157.666 -745.684)" fill="#292e4c"/>
                <path id="Path_15280" data-name="Path 15280" d="M1266.142,743.192a.891.891,0,0,0-.852,1.118l.019.056a.884.884,0,0,0,.833.634.9.9,0,0,0,.833-.634l.019-.056A.891.891,0,0,0,1266.142,743.192Z" transform="translate(-1207.673 -727.64)" fill="#292e4c"/>
                <path id="Path_15281" data-name="Path 15281" d="M1161.876,781.413a.891.891,0,0,0-.852,1.118l.019.056a.884.884,0,0,0,.833.634.9.9,0,0,0,.833-.634l.019-.056A.89.89,0,0,0,1161.876,781.413Z" transform="translate(-1120.017 -759.772)" fill="#292e4c"/>
                <path id="Path_15282" data-name="Path 15282" d="M1199.206,820.38a.87.87,0,0,0,0,1.738A.87.87,0,0,0,1199.206,820.38Z" transform="translate(-1151.444 -792.531)" fill="#292e4c"/>
                <path id="Path_15283" data-name="Path 15283" d="M1271.789,787.643a.867.867,0,0,0-.815-.215l-.059.011a.826.826,0,0,0,0,1.593l.059.011a.852.852,0,0,0,1.06-.807A.864.864,0,0,0,1271.789,787.643Z" transform="translate(-1211.926 -764.81)" fill="#292e4c"/>
                <path id="Path_15284" data-name="Path 15284" d="M1260.2,843.058a.868.868,0,0,0-.815-.215l-.058.011a.826.826,0,0,0,0,1.593l.058.011a.852.852,0,0,0,1.06-.807A.865.865,0,0,0,1260.2,843.058Z" transform="translate(-1202.179 -811.397)" fill="#292e4c"/>
                <path id="Path_15285" data-name="Path 15285" d="M1169.654,715.512a.877.877,0,0,0-1.469.358.9.9,0,0,0,.223.842.809.809,0,0,0,.7.231l.074.022a.764.764,0,0,0,.47-1.453Z" transform="translate(-1126.05 -704.149)" fill="#292e4c"/>
                <path id="Path_15286" data-name="Path 15286" d="M1313.478,722.115a.791.791,0,0,0-.957,1.24.806.806,0,0,0,1.117,0A.793.793,0,0,0,1313.478,722.115Z" transform="translate(-1247.223 -709.835)" fill="#292e4c"/>
                <path id="Path_15287" data-name="Path 15287" d="M1370.043,679.226a.841.841,0,0,0-.8,1.05,1.157,1.157,0,0,0,.158.339.753.753,0,0,0,1.284,0,1.154,1.154,0,0,0,.158-.339A.84.84,0,0,0,1370.043,679.226Z" transform="translate(-1295.078 -673.864)" fill="#292e4c"/>
                <path id="Path_15288" data-name="Path 15288" d="M1357.733,765.086a.815.815,0,1,0,.815.815A.824.824,0,0,0,1357.733,765.086Z" transform="translate(-1284.738 -746.046)" fill="#292e4c"/>
                <path id="Path_15289" data-name="Path 15289" d="M1387.481,729.111l-.062.005a.754.754,0,0,0,0,1.508l.062.005a.759.759,0,0,0,0-1.518Z" transform="translate(-1309.745 -715.8)" fill="#292e4c"/>
                <path id="Path_15290" data-name="Path 15290" d="M1341.417,834.512a.711.711,0,0,0,0,1.421A.711.711,0,0,0,1341.417,834.512Z" transform="translate(-1271.129 -804.412)" fill="#292e4c"/>
                <path id="Path_15291" data-name="Path 15291" d="M1380.354,851.1a.788.788,0,0,0-.775.775l0,.185a.773.773,0,0,0,1.545,0q0-.093,0-.185A.783.783,0,0,0,1380.354,851.1Z" transform="translate(-1303.788 -818.357)" fill="#292e4c"/>
                <path id="Path_15292" data-name="Path 15292" d="M1346.206,909.412a.772.772,0,0,0-.783-.375.786.786,0,0,0-.654.981.786.786,0,1,0,1.437-.606Z" transform="translate(-1274.501 -867.058)" fill="#292e4c"/>
                <path id="Path_15293" data-name="Path 15293" d="M1378.824,927.623a.772.772,0,1,0,.772.772A.78.78,0,0,0,1378.824,927.623Z" transform="translate(-1302.505 -882.69)" fill="#292e4c"/>
                <path id="Path_15294" data-name="Path 15294" d="M1380.425,990.749l-.017-.057a.739.739,0,0,0-1.412,0l-.017.057a.75.75,0,1,0,1.447,0Z" transform="translate(-1303.259 -935.273)" fill="#292e4c"/>
                <path id="Path_15295" data-name="Path 15295" d="M1354.222,960.053a.776.776,0,0,0,0,1.551A.776.776,0,0,0,1354.222,960.053Z" transform="translate(-1281.842 -909.954)" fill="#292e4c"/>
                <path id="Path_15296" data-name="Path 15296" d="M1301.09,952.553a.74.74,0,0,0,0,1.479A.74.74,0,0,0,1301.09,952.553Z" transform="translate(-1237.203 -903.648)" fill="#292e4c"/>
                <path id="Path_15297" data-name="Path 15297" d="M1325.742,1018.141a.754.754,0,0,0,0,1.507A.754.754,0,0,0,1325.742,1018.141Z" transform="translate(-1257.917 -958.788)" fill="#292e4c"/>
                <path id="Path_15298" data-name="Path 15298" d="M1290.642,1001.681a.711.711,0,0,0-.661-.5.726.726,0,0,0-.661.5,1.151,1.151,0,0,0-.067.367.728.728,0,0,0,1.457,0A1.161,1.161,0,0,0,1290.642,1001.681Z" transform="translate(-1227.851 -944.527)" fill="#292e4c"/>
                <path id="Path_15299" data-name="Path 15299" d="M1233.861,947.918a.549.549,0,0,0-.135-.1.8.8,0,0,0-.634-.212.759.759,0,0,0-.633.949.831.831,0,0,0,.479.551.765.765,0,0,0,.509.046c.1-.025.359-.123.076-.031A.732.732,0,0,0,1233.861,947.918Z" transform="translate(-1180.083 -899.487)" fill="#292e4c"/>
                <path id="Path_15300" data-name="Path 15300" d="M1290.236,917.8a.747.747,0,0,0-1.006.264l-.065.121a.739.739,0,0,0,1.277.746l.059-.124A.752.752,0,0,0,1290.236,917.8Z" transform="translate(-1227.699 -874.35)" fill="#292e4c"/>
                <path id="Path_15301" data-name="Path 15301" d="M1231.146,881.894a.656.656,0,0,0-.4-.444.719.719,0,0,0-.61.035.987.987,0,0,0-.395.4.746.746,0,1,0,1.364.575A.946.946,0,0,0,1231.146,881.894Z" transform="translate(-1177.732 -843.828)" fill="#292e4c"/>
                <path id="Path_15302" data-name="Path 15302" d="M1296.454,846.694a.74.74,0,0,0,0,1.479A.74.74,0,0,0,1296.454,846.694Z" transform="translate(-1233.306 -814.653)" fill="#292e4c"/>
                <path id="Path_15303" data-name="Path 15303" d="M1134.754,847.712a.668.668,0,0,0-.486-.486.887.887,0,0,0-.424,0,1.206,1.206,0,0,0-.374.227.75.75,0,0,0,1.061,1.061.982.982,0,0,0,.227-.374A1.072,1.072,0,0,0,1134.754,847.712Z" transform="translate(-1096.702 -815.076)" fill="#292e4c"/>
                <path id="Path_15304" data-name="Path 15304" d="M1116.635,799.834a.819.819,0,1,0,.819.819A.828.828,0,0,0,1116.635,799.834Z" transform="translate(-1082.044 -775.258)" fill="#292e4c"/>
                <path id="Path_15305" data-name="Path 15305" d="M1194.615,655.941a.744.744,0,0,0-1,.481,1.011,1.011,0,0,0-.02.453c-.02-.182,0,.073.02.153a.618.618,0,0,0,.754.428,1.224,1.224,0,0,0,.6-.462A.741.741,0,0,0,1194.615,655.941Z" transform="translate(-1147.418 -654.239)" fill="#292e4c"/>
                <path id="Path_15306" data-name="Path 15306" d="M1110.824,752.972a.776.776,0,0,0,0,1.551A.776.776,0,0,0,1110.824,752.972Z" transform="translate(-1077.218 -735.862)" fill="#292e4c"/>
                <path id="Path_15307" data-name="Path 15307" d="M1067.525,834.782a.739.739,0,1,0,.739.739A.748.748,0,0,0,1067.525,834.782Z" transform="translate(-1040.824 -804.639)" fill="#292e4c"/>
                <path id="Path_15308" data-name="Path 15308" d="M1079.511,865.465a.7.7,0,0,0,0,1.406A.7.7,0,0,0,1079.511,865.465Z" transform="translate(-1050.952 -830.434)" fill="#292e4c"/>
                <path id="Path_15309" data-name="Path 15309" d="M1071.381,892.719a1.364,1.364,0,0,0-.408-.276q.15.037-.11-.056a.741.741,0,0,0-.223-.022.613.613,0,0,0-.6.6.738.738,0,0,0,.023.223q.093.26.056.11a1.365,1.365,0,0,0,.275.408.7.7,0,0,0,.99-.989Z" transform="translate(-1043.558 -853.048)" fill="#292e4c"/>
                <path id="Path_15310" data-name="Path 15310" d="M1003.794,880.628a.805.805,0,0,0-1.2-.081.82.82,0,0,0,0,1.137.81.81,0,0,0,1.263-.163A.792.792,0,0,0,1003.794,880.628Z" transform="translate(-986.667 -842.919)" fill="#292e4c"/>
                <path id="Path_15311" data-name="Path 15311" d="M957.1,910.646a.769.769,0,0,0,0,1.536A.769.769,0,0,0,957.1,910.646Z" transform="translate(-947.985 -868.417)" fill="#292e4c"/>
                <path id="Path_15312" data-name="Path 15312" d="M904.563,893.055a.739.739,0,1,0,.739.739A.748.748,0,0,0,904.563,893.055Z" transform="translate(-903.823 -853.629)" fill="#292e4c"/>
                <path id="Path_15313" data-name="Path 15313" d="M968.373,874.123a.678.678,0,0,0,0,1.356A.678.678,0,0,0,968.373,874.123Z" transform="translate(-957.539 -837.713)" fill="#292e4c"/>
                <path id="Path_15314" data-name="Path 15314" d="M922.558,941.021a.7.7,0,0,0,0,1.407A.7.7,0,0,0,922.558,941.021Z" transform="translate(-919.003 -893.954)" fill="#292e4c"/>
                <path id="Path_15315" data-name="Path 15315" d="M1163.237,882.444a.871.871,0,1,0,.87.871A.88.88,0,0,0,1163.237,882.444Z" transform="translate(-1121.178 -844.708)" fill="#292e4c"/>
                <path id="Path_15316" data-name="Path 15316" d="M1130.486,894.807a.829.829,0,1,0,.829.83A.839.839,0,0,0,1130.486,894.807Z" transform="translate(-1093.68 -855.102)" fill="#292e4c"/>
                <path id="Path_15317" data-name="Path 15317" d="M1185.591,942.828a.812.812,0,0,0,0,1.623A.812.812,0,0,0,1185.591,942.828Z" transform="translate(-1140.045 -895.473)" fill="#292e4c"/>
                <path id="Path_15318" data-name="Path 15318" d="M1206.557,647.713a55.966,55.966,0,0,1-15.471,10.818c-3.584,1.572-8.331,1.119-8.117-3.925.146-3.427,2.456-6.034,4.409-8.626.189-.25-.223-.562-.432-.334-2.328,2.528-4.731,5.659-4.744,9.263a5,5,0,0,0,4.985,5.33c3.589.13,7.2-2.421,10.095-4.261a65.166,65.166,0,0,0,9.829-7.709C1207.479,647.919,1206.924,647.365,1206.557,647.713Z" transform="translate(-1137.856 -645.566)" fill="#deb392"/>
                <path id="Path_15319" data-name="Path 15319" d="M1261.468,978.674a.252.252,0,0,0-.193.459c3.47,2.026,6.857,9.824,1.617,11.789a.367.367,0,0,0,.195.707C1269.2,990.66,1265.871,980,1261.468,978.674Z" transform="translate(-1204.231 -925.599)" fill="#deb392"/>
              </g>
            </g>
          </g>
          <path id="Path_15321" data-name="Path 15321" d="M1043.942,846.77a25.776,25.776,0,0,1-1.258-2.972,31.237,31.237,0,0,1-.395-3.2c-.046-.285-.466-.244-.537,0a7.665,7.665,0,0,0,1.705,6.454C1043.647,847.244,1044.055,847.048,1043.942,846.77Z" transform="translate(-1013.814 -774.795)" fill="#deb392"/>
          <path id="Path_15322" data-name="Path 15322" d="M1056.549,842.965a10.346,10.346,0,0,0-.654-1.641c-.256-.591-.495-1.191-.78-1.769-.135-.274-.562-.081-.485.2a11.732,11.732,0,0,0,1.389,3.428A.291.291,0,0,0,1056.549,842.965Z" transform="translate(-1024.781 -773.975)" fill="#deb392"/>
          <g id="Group_4544" data-name="Group 4544" transform="translate(25.043 72.938)">
            <path id="Path_15323" data-name="Path 15323" d="M1024.51,891.451a43.927,43.927,0,0,0,23-5.011l11.719,33.873s-4.3,2.077-13.11,3.033-10,.268-10,.268Z" transform="translate(-1024.51 -886.439)" fill="#dee5f2"/>
            <path id="Path_15324" data-name="Path 15324" d="M1043.968,944.217c-.728-1.125-1.534-2.2-2.322-3.284a12.453,12.453,0,0,1-2.12-3.2.248.248,0,0,0-.479.132,11.135,11.135,0,0,0,1.959,3.154c.839,1.179,1.663,2.374,2.565,3.506C1043.75,944.747,1044.122,944.456,1043.968,944.217Z" transform="translate(-1036.722 -929.413)" fill="#adb8cc"/>
            <path id="Path_15325" data-name="Path 15325" d="M1185.375,980.668a28.782,28.782,0,0,1-1.473-2.75c-.476-1.063-.734-2.178-1.149-3.258-.084-.219-.465-.215-.445.06a12.341,12.341,0,0,0,2.677,6.248C1185.162,981.194,1185.514,980.906,1185.375,980.668Z" transform="translate(-1157.17 -960.475)" fill="#adb8cc"/>
          </g>
          <path id="Path_15326" data-name="Path 15326" d="M1181.018,998.847c-.481.365-5.772,4.626-6.964,3.888s-.876-1.57-.876-1.57a10.88,10.88,0,0,1-2.031-1.427,1.415,1.415,0,0,1-.048-1.235,16.754,16.754,0,0,1-1.628-1.472c-.3-.4.013-1.154.013-1.154s-1.2-.408-1.064-1.395,5.613-3.3,5.665-3.68c.021-.157-.694-2.269-.694-2.269-.708-2.152,2.844-.912,3.379-.182,1.46,1.99,1.484,1.484,1.929,1.67.96.4,3.989-.643,3.989-.643,2.83.328,3.482,2.827,2.373,7.082Z" transform="translate(-1120.443 -898.319)" fill="#fa955a"/>
          <path id="Path_15327" data-name="Path 15327" d="M882.056,886.707c-.36-1.275-1.016-3.711-2.767-3.365-.254.05-.217.409,0,.478,2.241.718,3.308,6.316,1.654,7.852-.291.27.091.779.428.555C883.154,891.047,882.55,888.455,882.056,886.707Z" transform="translate(-877.232 -810.87)" fill="#deb392"/>
        </g>
        <path id="Path_15328" data-name="Path 15328" d="M784.9,882.188c2.585-.862,11.456-2.9,12.189-4.68s.147-8.123-1.159-8.123c-1.613,0-8.94-3.4-9.662-2.985a5.656,5.656,0,0,0-1.368,1.268l-2.77,9.781Z" transform="translate(-725.737 -785.373)" fill="#fa955a"/>
        <path id="Path_15329" data-name="Path 15329" d="M716.885,881.38c4.8-.739,12.413.78,12.608,1.119s11.21,11.437,10.1,12.544-4.247-.554-4.247-.554-1.822,1.962-3.6.935c0,0-3.508.3-5.632.3s-9.187-3.537-9.955-4.305S716.885,881.38,716.885,881.38Z" transform="translate(-670.09 -797.828)" fill="#bd6219"/>
        <path id="Path_15330" data-name="Path 15330" d="M807.071,933.254c-.9-.657-1.877-1.195-2.775-1.857-.98-.723-1.872-1.541-2.817-2.306a.287.287,0,0,0-.406.406,17.535,17.535,0,0,0,5.651,4.35A.344.344,0,0,0,807.071,933.254Z" transform="translate(-741.592 -838.044)" fill="#9c4805"/>
        <path id="Path_15331" data-name="Path 15331" d="M794.684,951.913a16.122,16.122,0,0,0-1.832-1c-.613-.331-1.214-.686-1.833-1a.261.261,0,0,0-.264.451,12.911,12.911,0,0,0,3.7,2.084C794.794,952.541,794.937,952.1,794.684,951.913Z" transform="translate(-732.887 -855.578)" fill="#9c4805"/>
        <path id="Path_15332" data-name="Path 15332" d="M632.489,882.031c.185,0,12.561-.117,12.561-.117l-.769,10.119s-14.395-.573-14.511-.923C629.408,890.021,632.162,881.378,632.489,882.031Z" transform="translate(-597.618 -798.445)" fill="#bd6219"/>
        <path id="Path_15333" data-name="Path 15333" d="M758.95,872.342c1.4-1.4,6.784-5.756,7.831-5.756s1.548,3.409.8,4.71-6.1,2.893-7.4,2.523A1.523,1.523,0,0,1,758.95,872.342Z" transform="translate(-706.246 -785.559)" fill="#fa955a"/>
      </g>
      <g id="Group_4604" data-name="Group 4604" transform="translate(230.427 1019)">
        <g id="Group_4556" data-name="Group 4556" transform="translate(43.203 21.119)">
          <g id="Group_4554" data-name="Group 4554" transform="translate(0)">
            <g id="Group_4547" data-name="Group 4547" transform="translate(3.807 9.7)">
              <path id="Path_15334" data-name="Path 15334" d="M5267.9,930.622c-.839-1.592,1.049-13.088,3.275-12.48,3.368.92,7.186,4.584,7.188,5.729s-4.419,9.324-4.866,9.111S5267.9,930.622,5267.9,930.622Z" transform="translate(-5267.694 -918.118)" fill="#fa955a"/>
            </g>
            <g id="Group_4548" data-name="Group 4548" transform="translate(0 8.724)">
              <path id="Path_15335" data-name="Path 15335" d="M5312.08,913.476a1.094,1.094,0,0,0-.8,1.405c1.705,3.484,2.61,10.487,4.021,11.422,1.494.99,1.431-5.334.9-6.846s-2.579-6.062-4.09-5.985Z" transform="translate(-5311.212 -913.471)" fill="#fa955a"/>
            </g>
            <g id="Group_4549" data-name="Group 4549" transform="translate(6.359)">
              <path id="Path_15336" data-name="Path 15336" d="M5285.429,882.173c.051-1.016,2.622-9.56,3.1-10.052s1.5-.038,1.251,1.351-1.831,9.557-1.831,9.557Z" transform="translate(-5285.429 -871.928)" fill="#fa955a"/>
            </g>
            <g id="Group_4550" data-name="Group 4550" transform="translate(9.039 0.631)">
              <path id="Path_15337" data-name="Path 15337" d="M5263.769,885.817c-.1-.289,2.8-10.974,4.009-10.882,1.292.1.846,1.744.846,1.744s.981-.834,1.383.766c.264,1.051-2.337,10.548-2.756,10.348S5263.769,885.817,5263.769,885.817Z" transform="translate(-5263.766 -874.934)" fill="#fa955a"/>
            </g>
            <g id="Group_4551" data-name="Group 4551" transform="translate(12.742 7.175)">
              <path id="Path_15338" data-name="Path 15338" d="M5259.044,914.371s2.567-7.594,2.129-8.027c-.4-.392-1.079-.691-1.959,2.08a28.006,28.006,0,0,1-1.9,4.615Z" transform="translate(-5257.313 -906.093)" fill="#fa955a"/>
            </g>
            <g id="Group_4552" data-name="Group 4552" transform="translate(5.896 15.859)">
              <path id="Path_15339" data-name="Path 15339" d="M5299.633,947.525a4.877,4.877,0,0,1,1.091,2.072,5.29,5.29,0,0,1,.385,2.308.268.268,0,0,1-.513.052c-.258-.675-.333-1.411-.569-2.1s-.678-1.316-.853-2.007C5299.109,947.594,5299.4,947.31,5299.633,947.525Z" transform="translate(-5299.165 -947.449)" fill="#d66f1a"/>
            </g>
            <g id="Group_4553" data-name="Group 4553" transform="translate(9.21 10.662)">
              <path id="Path_15340" data-name="Path 15340" d="M5278.7,922.708a5.249,5.249,0,0,1,2.643,1.827c.175.2-.143.483-.341.315a10.718,10.718,0,0,0-1.329-.971c-.392-.241-.827-.407-1.2-.675A.284.284,0,0,1,5278.7,922.708Z" transform="translate(-5278.37 -922.703)" fill="#d66f1a"/>
            </g>
          </g>
          <g id="Group_4555" data-name="Group 4555" transform="translate(0.451 21.174)">
            <path id="Path_15341" data-name="Path 15341" d="M5299.321,975.738a48.307,48.307,0,0,1-2.945,6.852,1.755,1.755,0,0,1-1.1.9,7.214,7.214,0,0,1-3.925-.144c-2.114-.632-1.162-4.724-1.162-4.724l3.154-5.858Z" transform="translate(-5289.978 -972.76)" fill="#fa955a"/>
          </g>
        </g>
        <g id="Group_4557" data-name="Group 4557" transform="translate(34.784 12.234)">
          <path id="Path_15342" data-name="Path 15342" d="M5358.41,829.614s3.92,5.69,3.841,6.212c-.141.922-3.629,1.17-3.629,1.17Z" transform="translate(-5358.41 -829.614)" fill="#fa955a"/>
        </g>
        <g id="Group_4558" data-name="Group 4558" transform="translate(34.381 9.456)">
          <path id="Path_15343" data-name="Path 15343" d="M5357,824.382a1.666,1.666,0,0,0,.321-.031c1.382-.273,2.121-2.228,1.683-4.452s-1.864-3.753-3.248-3.481-2.121,2.228-1.682,4.452h0C5354.481,822.922,5355.727,824.382,5357,824.382Zm-.917-7.193c.867,0,1.815,1.248,2.134,2.865.34,1.723-.141,3.33-1.051,3.51s-1.964-1.125-2.3-2.848.141-3.33,1.051-3.51A.878.878,0,0,1,5356.084,817.189Z" transform="translate(-5353.95 -816.387)" fill="#292e4c"/>
        </g>
        <g id="Group_4563" data-name="Group 4563" transform="translate(5.636 226.348)">
          <g id="Group_4559" data-name="Group 4559" transform="translate(0.667 0)">
            <path id="Path_15344" data-name="Path 15344" d="M5456.6,1849.246v11.7l11.37-.86.334-10.627Z" transform="translate(-5456.598 -1849.246)" fill="#fa955a"/>
          </g>
          <g id="Group_4562" data-name="Group 4562" transform="translate(0 6.733)">
            <g id="Group_4560" data-name="Group 4560">
              <path id="Path_15345" data-name="Path 15345" d="M5393.457,1893.636a1.02,1.02,0,0,1-1.021-.955c-.172-2.678-.517-8.392.027-10.269.461-1.59,3.923-1.615,5.39.924s6.354,2.083,6.354,2.083v-2.676s6.02,5.007,7.892,5.743c1.6.629,4.959,1.355,5.9,3.765a1.023,1.023,0,0,1-.959,1.385Z" transform="translate(-5392.169 -1881.307)" fill="#292e4c"/>
            </g>
            <g id="Group_4561" data-name="Group 4561" transform="translate(0.143 8.13)">
              <path id="Path_15346" data-name="Path 15346" d="M5394.565,1921.077c.589-.34,4.147-1.336,5.686-.978a53.892,53.892,0,0,1,5.343,1.955h11.833a3.6,3.6,0,0,1,.43.783,1.023,1.023,0,0,1-.959,1.385h-23.585a1.02,1.02,0,0,1-1.021-.955c-.037-.574-.081-1.291-.123-2.075A6.921,6.921,0,0,0,5394.565,1921.077Z" transform="translate(-5392.169 -1920.022)" fill="#ffdec5"/>
            </g>
          </g>
        </g>
        <g id="Group_4568" data-name="Group 4568" transform="translate(33.808 226.348)">
          <g id="Group_4564" data-name="Group 4564" transform="translate(0.667 0)">
            <path id="Path_15347" data-name="Path 15347" d="M5322.437,1849.246v11.7l11.37-.86.335-10.627Z" transform="translate(-5322.437 -1849.246)" fill="#fa955a"/>
          </g>
          <g id="Group_4567" data-name="Group 4567" transform="translate(0 6.733)">
            <g id="Group_4565" data-name="Group 4565">
              <path id="Path_15348" data-name="Path 15348" d="M5259.295,1893.636a1.021,1.021,0,0,1-1.021-.955c-.172-2.678-.517-8.392.027-10.269.461-1.59,3.923-1.615,5.39.924s6.354,2.083,6.354,2.083v-2.676s6.02,5.007,7.893,5.743c1.6.629,4.959,1.355,5.9,3.765a1.022,1.022,0,0,1-.959,1.385Z" transform="translate(-5258.007 -1881.307)" fill="#292e4c"/>
            </g>
            <g id="Group_4566" data-name="Group 4566" transform="translate(0.143 8.13)">
              <path id="Path_15349" data-name="Path 15349" d="M5260.4,1921.077c.589-.34,4.147-1.336,5.685-.978a53.844,53.844,0,0,1,5.343,1.955h11.834a3.666,3.666,0,0,1,.43.783,1.023,1.023,0,0,1-.959,1.385H5259.15a1.02,1.02,0,0,1-1.021-.955c-.037-.574-.082-1.291-.124-2.075A6.923,6.923,0,0,0,5260.4,1921.077Z" transform="translate(-5258.006 -1920.022)" fill="#ffdec5"/>
            </g>
          </g>
        </g>
        <g id="Group_4569" data-name="Group 4569" transform="translate(29.489 102.067)">
          <path id="Path_15350" data-name="Path 15350" d="M5299.791,1265.832c9.9,30.181-3.756,123.633-3.779,124.435-.073,2.6-16.626,2.092-16.553-.51.022-.8-2.258-122.4-2.258-122.4s23.3-10.153,22.523-9.94C5294.543,1258.825,5299.791,1265.832,5299.791,1265.832Z" transform="translate(-5277.201 -1257.41)" fill="#c55a5a"/>
        </g>
        <g id="Group_4570" data-name="Group 4570" transform="translate(3.32 107.801)">
          <path id="Path_15351" data-name="Path 15351" d="M5376.753,1287.4s-2.708,10.316-2.708,15.559c0,1.3.582,13.911.2,22.911-1.161,27.337-5.144,78.877-6.956,85.841,0,2.968,18.193,2.581,18.193-.386,0,0,14.447-80.233,14.447-85.651s.8-40.962.8-40.962Z" transform="translate(-5367.289 -1284.714)" fill="#c55a5a"/>
        </g>
        <g id="Group_4571" data-name="Group 4571" transform="translate(0 36.038)">
          <path id="Path_15352" data-name="Path 15352" d="M5483.214,942.97s-9.521,1.9-10.556,7.5-1.6,37.67,3.366,40.538,10.716-.379,10.716-.379Z" transform="translate(-5471.958 -942.97)" fill="#dee5f2"/>
        </g>
        <g id="Group_4583" data-name="Group 4583" transform="translate(9.208)">
          <g id="Group_4572" data-name="Group 4572" transform="translate(6.629 21.979)">
            <path id="Path_15353" data-name="Path 15353" d="M5401.331,876.02c.653,3.623-2.194,12.191-2.194,12.191l11.42,1.607s3.43-7.808,2.721-8.3S5401.331,876.02,5401.331,876.02Z" transform="translate(-5399.136 -876.02)" fill="#fa955a"/>
          </g>
          <g id="Group_4573" data-name="Group 4573" transform="translate(1.287 0.474)">
            <path id="Path_15354" data-name="Path 15354" d="M5363.642,788.638c.794,8.97,9.987,14.06,17.32,15.658,2.6.568,6.412-.022,7.944-1.277,3.006-2.46,1.258-7.007.732-12.947a44.158,44.158,0,0,0-1.171-4.554c-1.506-7.629-5.392-12.413-11.577-11.865C5369.415,774.317,5362.847,779.669,5363.642,788.638Z" transform="translate(-5363.576 -773.612)" fill="#fa955a"/>
          </g>
          <g id="Group_4574" data-name="Group 4574" transform="translate(16.625 28.693)">
            <path id="Path_15355" data-name="Path 15355" d="M5374.434,908a38.718,38.718,0,0,0,8.956,1.357s-1.873,1.55-6.322,1.268c-.808,2.173-1.809,4.451-1.809,4.451l-.845.538C5373.1,913,5374.424,908.1,5374.434,908Z" transform="translate(-5373.835 -907.995)" fill="#d66f1a"/>
          </g>
          <g id="Group_4575" data-name="Group 4575" transform="translate(26.4 22.636)">
            <path id="Path_15356" data-name="Path 15356" d="M5365.6,881.261c-1.652-.138-1.91-2.111-1.91-2.111,1.024.051,1.128.43,1.706.083A15.724,15.724,0,0,1,5365.6,881.261Z" transform="translate(-5363.688 -879.15)" fill="#f1f2f2"/>
          </g>
          <g id="Group_4576" data-name="Group 4576" transform="translate(0)">
            <path id="Path_15357" data-name="Path 15357" d="M5409.579,771.418c4.459-.426,7.117,1.457,8.407,1.932a23.318,23.318,0,0,1-2.1,4.836l1.62,7.411-4.176,3.593s.926,7.485-3.378,9.086c-1.775.66-4.36.522-5.422-.312-3.033-2.9-7.354-7.184-7.854-11.332-.6-4.964,1.974-8.248,5.874-11.375C5404.581,773.622,5406.817,771.682,5409.579,771.418Z" transform="translate(-5396.584 -771.355)" fill="#5c6a8c"/>
          </g>
          <g id="Group_4577" data-name="Group 4577" transform="translate(10.898 6.566)">
            <path id="Path_15358" data-name="Path 15358" d="M5409.657,803.953a13.142,13.142,0,0,0,3.688.164,9.321,9.321,0,0,0,3.11-1.25.235.235,0,0,1,.268-.237l.182.036a.3.3,0,0,1,.164.512c-1.809,1.662-5.271,2.5-7.542,1.361C5409.243,804.394,5409.292,803.917,5409.657,803.953Z" transform="translate(-5409.344 -802.625)" fill="#292d4e"/>
          </g>
          <g id="Group_4578" data-name="Group 4578" transform="translate(10.573 18.867)">
            <path id="Path_15359" data-name="Path 15359" d="M5435.4,864.507a1.9,1.9,0,0,0,1.484-2.937c-.147-.281.241-.493.443-.287a2.258,2.258,0,0,1-1.9,3.748A.266.266,0,0,1,5435.4,864.507Z" transform="translate(-5435.195 -861.2)" fill="#292d4e"/>
          </g>
          <g id="Group_4579" data-name="Group 4579" transform="translate(6.051 19.162)">
            <path id="Path_15360" data-name="Path 15360" d="M5453.071,864.883a1.905,1.905,0,0,0,2.6-2.019c-.013-.317.429-.343.523-.069a2.259,2.259,0,0,1-3.323,2.574C5452.636,865.207,5452.769,864.8,5453.071,864.883Z" transform="translate(-5452.751 -862.607)" fill="#292d4e"/>
          </g>
          <g id="Group_4580" data-name="Group 4580" transform="translate(15.687 13.32)">
            <path id="Path_15361" data-name="Path 15361" d="M5397.513,840.484c1.171,1.729,1.789,2.307,3.359,1.243a3.62,3.62,0,0,0,.721-5.056c-1.171-1.729-2.315-2.449-3.885-1.386S5396.342,838.755,5397.513,840.484Z" transform="translate(-5396.583 -834.787)" fill="#fa955a"/>
          </g>
          <g id="Group_4581" data-name="Group 4581" transform="translate(23.466 9.187)">
            <path id="Path_15362" data-name="Path 15362" d="M5377.995,815.244c-.223-.451-1.69.221-2.008,1.411s.351,1,.854.85A1.553,1.553,0,0,0,5377.995,815.244Z" transform="translate(-5375.904 -815.102)" fill="#292e4c"/>
          </g>
          <g id="Group_4582" data-name="Group 4582" transform="translate(25.576 13.333)">
            <path id="Path_15363" data-name="Path 15363" d="M5373.17,835.234c-.458-.869-.671-.107-.644.642,0,.028.02.128.046.254.109.53.468.89.715.672a.377.377,0,0,0,.114-.283A4.382,4.382,0,0,0,5373.17,835.234Z" transform="translate(-5372.524 -834.847)" fill="#292e4c"/>
          </g>
        </g>
        <g id="Group_4584" data-name="Group 4584" transform="translate(1.848 34.798)">
          <path id="Path_15364" data-name="Path 15364" d="M5294.808,939.8c8.9,10.23,26.417,78.681,24.249,77.88-.916-.338-5.992-5.766-9.527-2.232s-7.207,3.844-20.452,3.844-18.947-1.475-18.947-2.477,1.288-4.085,1.288-6.746-9.542-58.173-9.128-62.21,9.971-10.4,11.42-10.4,12.6-.4,12.6-.4Z" transform="translate(-5262.276 -937.066)" fill="#dee5f2"/>
        </g>
        <g id="Group_4590" data-name="Group 4590" transform="translate(66.949 28.274)">
          <g id="Group_4585" data-name="Group 4585" transform="translate(0.485 8.568)">
            <path id="Path_15365" data-name="Path 15365" d="M5164.323,958c-.373-1.76,4.583-12.3,6.558-11.112,2.989,1.8,5.662,6.372,5.351,7.473s-6.013,8.468-6.384,8.14S5164.323,958,5164.323,958Z" transform="translate(-5164.303 -946.799)" fill="#fa955a"/>
          </g>
          <g id="Group_4586" data-name="Group 4586" transform="translate(0 5.944)">
            <path id="Path_15366" data-name="Path 15366" d="M5208.039,934.314a1.093,1.093,0,0,0-1.149,1.134c.689,3.817-.353,10.8.75,12.086,1.167,1.36,2.832-4.74,2.732-6.341s-.826-6.535-2.3-6.874Z" transform="translate(-5206.879 -934.306)" fill="#fa955a"/>
          </g>
          <g id="Group_4587" data-name="Group 4587" transform="translate(6.03 0)">
            <path id="Path_15367" data-name="Path 15367" d="M5162.556,914.909c.327-.964,5.132-8.481,5.725-8.825s1.458.375.835,1.641-4.37,8.694-4.37,8.694Z" transform="translate(-5162.556 -905.998)" fill="#fa955a"/>
          </g>
          <g id="Group_4588" data-name="Group 4588" transform="translate(8.264 1.476)">
            <path id="Path_15368" data-name="Path 15368" d="M5144.716,922.415c-.019-.306,5.693-9.791,6.827-9.375,1.216.447.338,1.909.338,1.909s1.171-.534,1.121,1.114c-.033,1.083-5.128,9.509-5.477,9.2S5144.716,922.415,5144.716,922.415Z" transform="translate(-5144.716 -913.028)" fill="#fa955a"/>
          </g>
          <g id="Group_4589" data-name="Group 4589" transform="translate(11.112 8.602)">
            <path id="Path_15369" data-name="Path 15369" d="M5145.461,954.5s4.543-6.605,4.24-7.141c-.274-.485-.85-.959-2.453,1.466a28,28,0,0,1-3.088,3.921Z" transform="translate(-5144.161 -946.963)" fill="#fa955a"/>
          </g>
        </g>
        <g id="Group_4591" data-name="Group 4591" transform="translate(55.372 47.447)">
          <path id="Path_15370" data-name="Path 15370" d="M5203.426,997.3c-.7,1.71-12.338,19.2-12.338,19.2s4.551,7.16,6.522,7.712,2.223-.4,2.223-.4l9.646-22.791Z" transform="translate(-5191.088 -997.301)" fill="#fa955a"/>
        </g>
        <g id="Group_4592" data-name="Group 4592" transform="translate(31.086 37.475)">
          <path id="Path_15371" data-name="Path 15371" d="M5265.364,984.037c2.482,4.341.62,6.56.62,6.56s.535,2.11-.62,2.777l-1.155.667s-2.26,6.656-7.02,5.53-17.2-18.39-21.834-26.416-2.34-24.4.66-23.281,6.617,2.376,7.958,4.7,12.7,23.091,12.7,23.091.154-2.071,2.276-.845S5265.364,984.037,5265.364,984.037Z" transform="translate(-5232.721 -949.817)" fill="#dee5f2"/>
        </g>
        <g id="Group_4593" data-name="Group 4593" transform="translate(11.982 30.124)">
          <path id="Path_15372" data-name="Path 15372" d="M5395.6,921.083l2.131-6.274s10.936.3,13.694,2.257,3.01,3.11,3.01,3.11l-.251,3.762-12.239-2.458Z" transform="translate(-5395.599 -914.809)" fill="#dee5f2"/>
        </g>
        <g id="Group_4594" data-name="Group 4594" transform="translate(29.317 12.644)">
          <path id="Path_15373" data-name="Path 15373" d="M5354.916,833.917a.407.407,0,0,0,.065-.005l9.326-1.546a.4.4,0,1,0-.132-.792l-9.325,1.546a.4.4,0,0,0,.066.8Z" transform="translate(-5354.514 -831.569)" fill="#292e4c"/>
        </g>
        <g id="Group_4595" data-name="Group 4595" transform="translate(28.552 59.225)">
          <path id="Path_15374" data-name="Path 15374" d="M5294.184,1055.658c1.162,1.247,2.173,2.607,3.406,3.792a33.3,33.3,0,0,0,3.479,2.833,36.146,36.146,0,0,1-3.843-8.408c-.12-.409.508-.694.7-.3,2.354,4.823,4.46,9.487,7.718,13.809a56.3,56.3,0,0,0,5.473,6.241c1.93,1.9,4.124,3.474,6.088,5.318a.338.338,0,0,1-.408.529c-4.5-2.584-8.4-7.058-11.533-11.122-1.184-1.537-2.362-3.175-3.457-4.886a.317.317,0,0,1-.225-.033,20.094,20.094,0,0,1-7.912-7.384C5293.5,1055.737,5293.924,1055.379,5294.184,1055.658Z" transform="translate(-5293.632 -1053.388)" fill="#a9b9d6"/>
        </g>
        <g id="Group_4596" data-name="Group 4596" transform="translate(4.065 60.103)">
          <path id="Path_15375" data-name="Path 15375" d="M5505.3,1057.761c.643,3.909,1.234,7.824,1.8,11.745a105.175,105.175,0,0,1,1.5,11.12.391.391,0,0,1-.764.1,105.294,105.294,0,0,1-1.591-11.107c-.522-3.926-1.021-7.854-1.468-11.79C5504.744,1057.535,5505.256,1057.463,5505.3,1057.761Z" transform="translate(-5504.777 -1057.571)" fill="#a9b9d6"/>
        </g>
        <g id="Group_4597" data-name="Group 4597" transform="translate(55.385 64.709)">
          <path id="Path_15376" data-name="Path 15376" d="M5236.725,1079.653a28.632,28.632,0,0,1,3.416,5.242,33.346,33.346,0,0,1,4.8,8.42c.12.3-.358.485-.517.217-.826-1.394-1.678-2.8-2.516-4.207a22.814,22.814,0,0,1,.972,7.819.326.326,0,0,1-.652,0c-.364-6.268-2.1-11.96-6.109-16.891C5235.783,1079.833,5236.377,1079.229,5236.725,1079.653Z" transform="translate(-5236.022 -1079.508)" fill="#a9b9d6"/>
        </g>
        <g id="Group_4598" data-name="Group 4598" transform="translate(12.951 33.725)">
          <path id="Path_15377" data-name="Path 15377" d="M5400.2,932.1a26.083,26.083,0,0,1,8.208.558c2.729.5,6.07,1.124,8.4,2.7a.217.217,0,0,1-.167.4c-2.609-.479-5.1-1.643-7.733-2.164-2.879-.571-5.733-.493-8.618-.838C5399.952,932.714,5399.789,932.157,5400.2,932.1Z" transform="translate(-5399.956 -931.955)" fill="#a9b9d6"/>
        </g>
        <g id="Group_4599" data-name="Group 4599" transform="translate(16.275 133.991)">
          <path id="Path_15378" data-name="Path 15378" d="M5367.853,1409.443c3.377.787,6.513,1.873,10,2.219a77.577,77.577,0,0,0,9.655-.091.342.342,0,0,1,.09.668,26.066,26.066,0,0,1-8.185.515c1.465,6.961,1.947,14.264,2.429,21.342q.765,11.24.59,22.511a.471.471,0,0,1-.942,0q.156-11.065-.547-22.117c-.473-7.292-1.571-14.511-2.152-21.785-.557-.047-1.109-.1-1.651-.165a28.785,28.785,0,0,1-9.58-2.41C5367.171,1409.932,5367.451,1409.349,5367.853,1409.443Z" transform="translate(-5367.375 -1409.433)" fill="#923333"/>
        </g>
        <g id="Group_4600" data-name="Group 4600" transform="translate(16.505 216.463)">
          <path id="Path_15379" data-name="Path 15379" d="M5447.558,1810.412c.546-2.676.973-5.426,1.74-8.048.083-.284.573-.245.539.073-.273,2.492-.864,4.963-1.34,7.422-.52,2.682-.917,5.441-1.659,8.071-.1.369-.745.315-.7-.094C5446.44,1815.343,5447.056,1812.871,5447.558,1810.412Z" transform="translate(-5446.139 -1802.172)" fill="#923333"/>
        </g>
        <g id="Group_4601" data-name="Group 4601" transform="translate(42.844 216.812)">
          <path id="Path_15380" data-name="Path 15380" d="M5324.565,1804.1c.034-.356.59-.365.564,0-.4,5.64-.986,11.706-2.911,17.055a.306.306,0,0,1-.589-.162C5322.607,1815.334,5324.019,1809.855,5324.565,1804.1Z" transform="translate(-5321.623 -1803.834)" fill="#923333"/>
        </g>
        <g id="Group_4602" data-name="Group 4602" transform="translate(12.46 104.916)">
          <path id="Path_15381" data-name="Path 15381" d="M5342.562,1271.6c9.441-1.378,19.824-.351,29.071,1.838.442.1.253.765-.187.677a107.623,107.623,0,0,0-14.665-2.036c-4.737-.287-9.407,0-14.139.115C5342.311,1272.2,5342.218,1271.649,5342.562,1271.6Z" transform="translate(-5342.344 -1270.974)" fill="#a9b9d6"/>
        </g>
        <g id="Group_4603" data-name="Group 4603" transform="translate(18.52 100.154)">
          <path id="Path_15382" data-name="Path 15382" d="M5396.553,1248.523a38.446,38.446,0,0,1,11.71.583c.336.062.193.571-.141.511a53.877,53.877,0,0,0-11.569-.579C5396.214,1249.049,5396.234,1248.563,5396.553,1248.523Z" transform="translate(-5396.306 -1248.299)" fill="#a9b9d6"/>
        </g>
      </g>
    </g>
    <g id="Group_5908" data-name="Group 5908" transform="translate(96.262 78.227)">
      <g id="Group_4651" data-name="Group 4651" transform="translate(1362.647 775.813)">
        <g id="Group_4611" data-name="Group 4611" transform="translate(14.579 49.217)">
          <g id="Group_4607" data-name="Group 4607" transform="translate(0 7.938)">
            <g id="Group_4606" data-name="Group 4606">
              <g id="Group_4605" data-name="Group 4605">
                <path id="Path_15383" data-name="Path 15383" d="M4768.824,1062.384c5.883.723,10.114.215,10.658-.176.79-.569,2.647-7.11.45-8.376-2.736-1.577-12.075-3.732-13.013-3.564a2.108,2.108,0,0,0-1.356,2.808c.487.842-.49,1.166-.864,2.461-.3,1.048.841,2.345.841,2.345s.544.3.136,2.539C4765.531,1061.221,4768.489,1062.343,4768.824,1062.384Z" transform="translate(-4764.648 -1050.258)" fill="#fa955a"/>
              </g>
            </g>
          </g>
          <g id="Group_4610" data-name="Group 4610" transform="translate(7.672)">
            <g id="Group_4609" data-name="Group 4609">
              <g id="Group_4608" data-name="Group 4608">
                <path id="Path_15384" data-name="Path 15384" d="M4804.887,1020.911a25.49,25.49,0,0,1-.34-9.114c.478-2.519,1.664-3.117,1.966-2.031s.908,4.795,1.33,6.316,4.271,3.589,4.215,4.99C4812.05,1021.284,4804.887,1020.911,4804.887,1020.911Z" transform="translate(-4804.285 -1009.249)" fill="#fa955a"/>
              </g>
            </g>
          </g>
        </g>
        <g id="Group_4612" data-name="Group 4612" transform="translate(28.168 60.545)">
          <path id="Path_15385" data-name="Path 15385" d="M4836.548,1067.96a14.311,14.311,0,0,0-1.065,10.917s12.5,2.219,12.5,1.48,2.508-12.579,2.508-12.579Z" transform="translate(-4834.854 -1067.778)" fill="#292e4c"/>
        </g>
        <g id="Group_4619" data-name="Group 4619" transform="translate(0 55.309)">
          <g id="Group_4615" data-name="Group 4615" transform="translate(0 7.837)">
            <g id="Group_4614" data-name="Group 4614">
              <g id="Group_4613" data-name="Group 4613">
                <path id="Path_15386" data-name="Path 15386" d="M4693.575,1092.64c5.613.427,9.606-.24,10.1-.635.724-.574,2.2-6.862.061-7.967-2.666-1.376-11.621-3.01-12.5-2.81a2,2,0,0,0-1.164,2.723c.5.777-.414,1.128-.711,2.373-.241,1.008.9,2.188.9,2.188s.529.262.242,2.4C4690.4,1091.681,4693.256,1092.616,4693.575,1092.64Z" transform="translate(-4689.328 -1081.211)" fill="#fa955a"/>
              </g>
            </g>
          </g>
          <g id="Group_4618" data-name="Group 4618" transform="translate(6.919)">
            <g id="Group_4617" data-name="Group 4617">
              <g id="Group_4616" data-name="Group 4616">
                <path id="Path_15387" data-name="Path 15387" d="M4725.923,1051.837a24.2,24.2,0,0,1-.723-8.633c.343-2.411,1.442-3.031,1.775-2.013s1.073,4.51,1.54,5.934,4.209,3.218,4.218,4.55C4732.735,1051.877,4725.923,1051.837,4725.923,1051.837Z" transform="translate(-4725.074 -1040.722)" fill="#fa955a"/>
              </g>
            </g>
          </g>
        </g>
        <g id="Group_4645" data-name="Group 4645" transform="translate(12.76 0)">
          <g id="Group_4633" data-name="Group 4633" transform="translate(28.954)">
            <g id="Group_4632" data-name="Group 4632">
              <g id="Group_4627" data-name="Group 4627">
                <g id="Group_4620" data-name="Group 4620" transform="translate(8.911 25.721)">
                  <path id="Path_15388" data-name="Path 15388" d="M4953.785,900.582c.012-4.212-2.906-11-2.906-11l11.958-1.723s1.706,5.8,2.929,6.505S4953.785,900.582,4953.785,900.582Z" transform="translate(-4950.879 -887.86)" fill="#fa955a"/>
                </g>
                <g id="Group_4621" data-name="Group 4621" transform="translate(9.03 26.802)">
                  <path id="Path_15389" data-name="Path 15389" d="M4957.56,893.445c-1.093.864-6.067.926-6.067.926l2.059,6.114s2.971-2.611,3.708-4.475S4957.56,893.445,4957.56,893.445Z" transform="translate(-4951.492 -893.445)" fill="#d66f1a"/>
                </g>
                <g id="Group_4622" data-name="Group 4622" transform="translate(0 11.445)">
                  <path id="Path_15390" data-name="Path 15390" d="M4909.932,814.1s-2.195,2.068-3.845,3.662-1.754,2.159.244,2.779c.588.182,2.279.5,2.279.5Z" transform="translate(-4904.841 -814.101)" fill="#fa955a"/>
                </g>
                <g id="Group_4623" data-name="Group 4623" transform="translate(1.537)">
                  <path id="Path_15391" data-name="Path 15391" d="M4935.5,770.062c-.7,4.1-3.388,10.633-3.581,11.26,0,0-13.083,3.517-18.672.125-1.2-.729.272-9.634.469-10.566.554-2.574.985-6.81,2.329-9.477,1.947-3.862,8.032-9.074,14.291-4.873C4934.582,759.38,4936.893,761.94,4935.5,770.062Z" transform="translate(-4912.781 -754.973)" fill="#fa955a"/>
                </g>
                <g id="Group_4624" data-name="Group 4624" transform="translate(4.457 12.19)">
                  <path id="Path_15392" data-name="Path 15392" d="M4927.917,818.97c-.157.66.083,1.283.535,1.389s.944-.342,1.1-1-.084-1.282-.536-1.389S4928.073,818.309,4927.917,818.97Z" transform="translate(-4927.869 -817.951)" fill="#5c2e0f"/>
                </g>
                <g id="Group_4625" data-name="Group 4625" transform="translate(1.599 20.854)">
                  <path id="Path_15393" data-name="Path 15393" d="M4915.953,862.716c-.291.791-2.853,1.583-2.853,1.583l.169-1.262C4913.791,863.2,4914.924,862.728,4915.953,862.716Z" transform="translate(-4913.1 -862.716)" fill="#f1f2f2"/>
                </g>
                <g id="Group_4626" data-name="Group 4626" transform="translate(3.863 8.367)">
                  <path id="Path_15394" data-name="Path 15394" d="M4925.73,798.629c.138.574.28,1,.279.795,0-.134.008-.387.018-.606a18.622,18.622,0,0,1,1.632,1.141,1.386,1.386,0,0,1,.33,1.733c-.063.223-3.19-1.587-3.19-1.587a9.176,9.176,0,0,1,.233-1.9S4925.324,798.375,4925.73,798.629Z" transform="translate(-4924.797 -798.199)" fill="#292e4c"/>
                </g>
              </g>
              <g id="Group_4628" data-name="Group 4628" transform="translate(3.863 0.058)">
                <path id="Path_15395" data-name="Path 15395" d="M4925.007,758.918c-.865.561,1.013,2.857,4.458,4.9,1.549.919,2.4,7.45,2.711,10.336a2.219,2.219,0,0,0,1.5,1.874,34.241,34.241,0,0,0,13.469,1.624c2.254-.194.84-5.635.747-8.02s-1.082-8.983-2.252-10.1a27.185,27.185,0,0,0-9.638-4.205,11.377,11.377,0,0,0-5.311.823S4925.453,758.629,4925.007,758.918Z" transform="translate(-4924.797 -755.275)" fill="#292e4c"/>
              </g>
              <g id="Group_4629" data-name="Group 4629" transform="translate(12.971 5.828)">
                <path id="Path_15396" data-name="Path 15396" d="M4975.376,800.248c-2.565-4.683-3.638-9.6-2.078-14.825.1-.344-.424-.485-.534-.148-1.647,5.011-1.141,11.053,2.178,15.307C4975.141,800.836,4975.521,800.512,4975.376,800.248Z" transform="translate(-4971.853 -785.082)" fill="#5c6a8c"/>
              </g>
              <g id="Group_4630" data-name="Group 4630" transform="translate(17.642 13.471)">
                <path id="Path_15397" data-name="Path 15397" d="M4998.936,830.3a8.385,8.385,0,0,1-2.409-5.479.263.263,0,0,0-.526,0,7.105,7.105,0,0,0,2.557,5.857A.268.268,0,0,0,4998.936,830.3Z" transform="translate(-4995.99 -824.57)" fill="#5c6a8c"/>
              </g>
              <g id="Group_4631" data-name="Group 4631" transform="translate(21.816 9.69)">
                <path id="Path_15398" data-name="Path 15398" d="M5019.967,813.237a20.259,20.259,0,0,1-1.965-7.99.218.218,0,0,0-.436,0,15.048,15.048,0,0,0,1.931,8.264C5019.682,813.818,5020.1,813.55,5019.967,813.237Z" transform="translate(-5017.554 -805.037)" fill="#5c6a8c"/>
              </g>
            </g>
          </g>
          <g id="Group_4640" data-name="Group 4640" transform="translate(21.727 92.821)">
            <g id="Group_4636" data-name="Group 4636" transform="translate(2.396 121.85)">
              <g id="Group_4634" data-name="Group 4634">
                <path id="Path_15399" data-name="Path 15399" d="M4894.143,1864.994c-2.682,4.646-5.954,7.662-9.1,8.309a7.125,7.125,0,0,0-5.049,3.872,1.107,1.107,0,0,0,1,1.584h27.718a1.11,1.11,0,0,0,1.11-1.109v-7.121l-9.062-6.473Z" transform="translate(-4879.881 -1864.056)" fill="#923333"/>
              </g>
              <g id="Group_4635" data-name="Group 4635" transform="translate(0 9.565)">
                <path id="Path_15400" data-name="Path 15400" d="M4908.717,1918.611H4881a1.107,1.107,0,0,1-1-1.584,7.107,7.107,0,0,1,3.941-3.555,18.349,18.349,0,0,1,6.194,2.93h19.7v1.1A1.11,1.11,0,0,1,4908.717,1918.611Z" transform="translate(-4879.881 -1913.472)" fill="#5c6a8c"/>
              </g>
            </g>
            <g id="Group_4637" data-name="Group 4637">
              <path id="Path_15401" data-name="Path 15401" d="M4899.393,1237.79c1.609,5.067,1.919,6.743,2.92,10.37.935,3.386-3.1,13.432-3.194,15.347-.886,17.724,2.937,101.269.938,101.162-15.467-.832-10.532-7.57-16.451-6.091,0,0-8.282-62.209-8.9-69.36-.4-4.64-6-23.723-7.2-37-.133-1.48,2.216-17.074,2.216-17.074l10.09-.612Z" transform="translate(-4867.505 -1234.527)" fill="#dee5f2"/>
            </g>
            <g id="Group_4638" data-name="Group 4638" transform="translate(14.585 23.038)">
              <path id="Path_15402" data-name="Path 15402" d="M4942.87,1407.815c2.248-8.8,4.766-17.431,6.322-26.4a210.9,210.9,0,0,0,2.88-27.608.265.265,0,0,1,.529,0,191.642,191.642,0,0,1-2.582,27.108c-1.515,9.063-3.383,18.422-6.637,27.04A.266.266,0,0,1,4942.87,1407.815Z" transform="translate(-4942.86 -1353.553)" fill="#deb392"/>
            </g>
            <g id="Group_4639" data-name="Group 4639" transform="translate(14.699 25.539)">
              <path id="Path_15403" data-name="Path 15403" d="M4948.293,1366.711c.027-.311.511-.318.491,0-.674,11.074-1.975,22.472-4.79,33.225-.093.356-.6.2-.543-.15C4945.38,1388.766,4947.318,1377.875,4948.293,1366.711Z" transform="translate(-4943.446 -1366.475)" fill="#deb392"/>
            </g>
          </g>
          <g id="Group_4642" data-name="Group 4642" transform="translate(18.595 25.428)">
            <g id="Group_4641" data-name="Group 4641">
              <path id="Path_15404" data-name="Path 15404" d="M4886.547,890.623c5.554,5.452,6.837,10.609,8.07,16.452.82,3.884-7.714,24.253-7.415,44.136a49.364,49.364,0,0,0,2.9,15.456c0,.121-7.021,4.08-20.07,3.587-14.1-.533-18.707-5.055-18.707-5.055s6.967-41.753,8.732-45.47c2.379-5.013,9.352-17.034,9.352-17.034l1.814-3.952-.324-1.9a1.615,1.615,0,0,1,.562-1.515l11.683-8.772a.931.931,0,0,1,1.411.287Z" transform="translate(-4851.324 -886.345)" fill="#292e4c"/>
            </g>
          </g>
          <g id="Group_4643" data-name="Group 4643" transform="translate(0 36.417)">
            <path id="Path_15405" data-name="Path 15405" d="M4758.858,971.1c-4.435,2.712-4.272,9.4-2.22,11.667,0,0,28.729,6.41,32.094,3.044s19.387-33.364,19.387-33.364-8.281-11.87-10.034-8.834-17.507,27.733-17.507,27.733Z" transform="translate(-4755.252 -943.12)" fill="#292e4c"/>
          </g>
          <g id="Group_4644" data-name="Group 4644" transform="translate(11.604 76.068)">
            <path id="Path_15406" data-name="Path 15406" d="M4815.66,1147.975c.579.031,1.161.056,1.736.128a.442.442,0,0,1,.345.705.435.435,0,0,1-.354.162l.008.011c-.578.011-1.159-.025-1.736-.055C4815.051,1148.893,4815.047,1147.942,4815.66,1147.975Z" transform="translate(-4815.202 -1147.974)" fill="#5c6a8c"/>
          </g>
        </g>
        <g id="Group_4646" data-name="Group 4646" transform="translate(41.523 51.103)">
          <path id="Path_15407" data-name="Path 15407" d="M4927.895,1019.1a130.126,130.126,0,0,1-10.7,16.227c-3.53,4.659-7.152,10.8-13.062,12.615a.4.4,0,0,0,.214.778c5.557-1.559,8.976-7.079,12.276-11.407,4.333-5.684,8.575-11.511,11.636-18C4928.376,1019.071,4928.027,1018.857,4927.895,1019.1Z" transform="translate(-4903.853 -1018.993)" fill="#5c6a8c"/>
        </g>
        <g id="Group_4647" data-name="Group 4647" transform="translate(37.949 65.011)">
          <path id="Path_15408" data-name="Path 15408" d="M4886.378,1092.923a11.075,11.075,0,0,0-.522-1.951c-.1-.236-.469-.106-.465.126a11.189,11.189,0,0,0,.33,2.007,9.508,9.508,0,0,0,.492,1.969c.119.268.532.12.531-.144A9.617,9.617,0,0,0,4886.378,1092.923Z" transform="translate(-4885.391 -1090.847)" fill="#5c6a8c"/>
        </g>
        <g id="Group_4648" data-name="Group 4648" transform="translate(40.046 64.122)">
          <path id="Path_15409" data-name="Path 15409" d="M4896.667,1086.334c-.184-.225-.567.07-.4.312a9.332,9.332,0,0,1,1.132,2.2c.247.723.289,1.476.5,2.2a.293.293,0,0,0,.573-.078A6.971,6.971,0,0,0,4896.667,1086.334Z" transform="translate(-4896.223 -1086.254)" fill="#5c6a8c"/>
        </g>
        <g id="Group_4649" data-name="Group 4649" transform="translate(39.138 33.009)">
          <path id="Path_15410" data-name="Path 15410" d="M4912.513,925.577c-4.687,3.263-8.208,7.735-11.215,12.538a183.807,183.807,0,0,0-9.739,17.394.211.211,0,0,0,.364.213c6.472-10.06,10.757-22.446,20.949-29.531C4913.245,925.931,4912.89,925.315,4912.513,925.577Z" transform="translate(-4891.534 -925.513)" fill="#5c6a8c"/>
        </g>
        <g id="Group_4650" data-name="Group 4650" transform="translate(27.733 63.968)">
          <path id="Path_15411" data-name="Path 15411" d="M4843.534,1085.482c-1.875-.1-3.794.146-5.673.2a40.808,40.808,0,0,0-5.047.2.291.291,0,0,0,0,.557,27.127,27.127,0,0,0,5.4.124,33.464,33.464,0,0,0,5.417-.355C4844.06,1086.127,4843.933,1085.5,4843.534,1085.482Z" transform="translate(-4832.607 -1085.459)" fill="#5c6a8c"/>
        </g>
      </g>
      <g id="Group_4665" data-name="Group 4665" transform="translate(1266.506 1118.5)">
        <g id="Group_4656" data-name="Group 4656" transform="translate(69.003 0)">
          <path id="Path_15412" data-name="Path 15412" d="M-906.428,1278.128c-5.154.754-5.846-.817-7.417.754s-7.89,8.82-5.532,8.82,3.794-5.532,7.052-4.787,7.406,2.161,7.406,0A11.852,11.852,0,0,0-906.428,1278.128Z" transform="translate(1035.974 -1177.004)" fill="#fa955a"/>
          <path id="Path_15413" data-name="Path 15413" d="M-1145.436,936.708c2.263,3.771,8.8,11.315,8.8,12.823s-13.326,6.608-13.326,6.608l-2.011-6.105Z" transform="translate(1316.343 -907.161)" fill="#fa955a"/>
          <path id="Path_15414" data-name="Path 15414" d="M-1027.528,1243.946c-7.214.671-26.2,4.191-26.2,6.37s.048,10.9,2.059,10.9,27.512-3.352,27.512-3.352Z" transform="translate(1183.272 -1149.988)" fill="#cef5f5"/>
          <path id="Path_15415" data-name="Path 15415" d="M-390.71,1366.569c-1.832-1.832-4.034-6.8-5.291-10.886s-1.094-8.384-4.048-8.384c-1.76,0-2.816,5.553-1.81,12.845s.87,23.238,2.974,23.238,10.879-3.03,10.213-6.036S-390.71,1366.569-390.71,1366.569Z" transform="translate(411.168 -1231.674)" fill="#cef5f5"/>
          <path id="Path_15416" data-name="Path 15416" d="M-903.677,1348.441c-20.87-1.257-61.938.964-64.2.964s-71.157,16.972-71.157,19.738.126,5.909,2.263,8.046,33.441,4.777,56.322-3.771,69.4-8.013,69.4-8.013Z" transform="translate(1059.708 -1232.272)" fill="#484878"/>
          <path id="Path_15417" data-name="Path 15417" d="M-973.2,1392.568a85.63,85.63,0,0,1-55.624,8.022c-17.51-3.474-25.432-10.229-25.432-10.229s-16.505,11.757-44.957,7.772c-31.572-4.422-30.589-7.419-30.589-7.419l1.763-8.964,72.326-12.313s75.119-5.868,76.788-.845S-973.2,1392.568-973.2,1392.568Z" transform="translate(1148.266 -1246.896)" fill="#303061"/>
          <path id="Path_15418" data-name="Path 15418" d="M-704.779,1367.079c-2.263,0-74.755,12.261-75.1,16.595-.217,2.757,2.556,7.334,4.693,9.471s43.415,3.52,61.854-11.141C-693.96,1366.6-702.516,1367.079-704.779,1367.079Z" transform="translate(802.645 -1247.306)" fill="#484878"/>
          <path id="Path_15419" data-name="Path 15419" d="M-402.709,1399.889c0,1.44-7.6,5.167-10.193,6.319s-10.6-9.316-14.36-16.745c-3.834-7.575-5.469-11.573-2.682-13.773,1.758-1.388,4.768,2.981,8.891,7.1,7.687,7.687,10.477,6.967,13.375,7.445C-403.61,1390.91-402.709,1399.889-402.709,1399.889Z" transform="translate(431.341 -1253.905)" fill="#e0ffff"/>
          <g id="Group_4655" data-name="Group 4655" transform="translate(73.16 67.823)">
            <g id="Group_4652" data-name="Group 4652" transform="translate(2.985 0.694)">
              <path id="Path_15420" data-name="Path 15420" d="M-750.372,1165.356l-21.425-42.762-3.082.985,20.892,41.777Z" transform="translate(774.879 -1122.594)" fill="#d9faff"/>
            </g>
            <g id="Group_4653" data-name="Group 4653" transform="translate(0 0)">
              <path id="Path_15421" data-name="Path 15421" d="M-745.034,1168.072a2.4,2.4,0,0,0,.247-.105,2.458,2.458,0,0,0,1.129-3.287l-21.52-44.017a2.455,2.455,0,0,0-3.287-1.129,2.458,2.458,0,0,0-1.129,3.288l21.52,44.017A2.458,2.458,0,0,0-745.034,1168.072Z" transform="translate(769.845 -1119.282)" fill="#bfbfbf"/>
            </g>
            <g id="Group_4654" data-name="Group 4654" transform="translate(21.452 43.337)">
              <path id="Rectangle_639" data-name="Rectangle 639" d="M0,0H44.706a4.986,4.986,0,0,1,4.986,4.986V6.415a0,0,0,0,1,0,0H6.415A6.415,6.415,0,0,1,0,0V0A0,0,0,0,1,0,0Z" fill="#bfbfbf"/>
            </g>
          </g>
          <path id="Path_15422" data-name="Path 15422" d="M-1186.81,1017.043c5,13.755,9.315,75.909-23.371,87.22-13.373,7.288-28.971-26.479-28.971-33.52s18.171-20.809,10.478-28.5c-7.208-7.208-5.235-14.248,1.3-26.82s11.674-17.181,11.674-17.181a20.453,20.453,0,0,0,13.821-5.471S-1192.845,1000.445-1186.81,1017.043Z" transform="translate(1381.353 -951.469)" fill="#cef5f5"/>
          <path id="Path_15423" data-name="Path 15423" d="M-1111.433,1007.386c-6.957,4.583-12.54,14.6-17.518,14.066a91.553,91.553,0,0,1,8.943-12.682S-1107.731,1004.947-1111.433,1007.386Z" transform="translate(1285.619 -962.378)" fill="#fa955a"/>
          <path id="Path_15424" data-name="Path 15424" d="M-1089.463,868.629c-1.616,2.99-7.007,9.686-12.042,9.413-8.881-.217-14.276-14.681-14.227-20.426s8.572-18.058,15.347-17.287c9.794,1.115,14.79,9.694,14.555,17.038S-1089.463,868.629-1089.463,868.629Z" transform="translate(1257.932 -830.96)" fill="#fa955a"/>
          <path id="Path_15425" data-name="Path 15425" d="M-1094.1,807.94c4.974.443,11.786-4.833,8.23-7.952s-13.8-6.5-15.151-2.145c-1.265,4.068,1.508,9.614,1.508,9.614Z" transform="translate(1253.981 -795.769)" fill="#301c09"/>
          <path id="Path_15426" data-name="Path 15426" d="M-1113.911,859.144c-4.011-.5-5.183-7.655-3.172-14.067a15.691,15.691,0,0,1,9.8-10.4c2.534-.808,12.521-.032,17.063,4.51,3.55,3.55,5.6,11.585,4.321,15.527-1.1,3.4-9.937-5.28-11.97-5.28S-1106.465,859.144-1113.911,859.144Z" transform="translate(1258.111 -826.3)" fill="#301c09"/>
          <path id="Path_15427" data-name="Path 15427" d="M-1065.168,899.269c4.193-1.657-.086-9.136-2.6-9.136s-2.838,3.136-2.119,6.22S-1065.168,899.269-1065.168,899.269Z" transform="translate(1225.974 -870.35)" fill="#fa955a"/>
          <path id="Path_15428" data-name="Path 15428" d="M-877.363,1298.845c-3.143-.662-4.693-6.026-6.621-5.272s-6.025,3.34-6.873,2.492,6.715-7.748,8.175-7.647c1.8.126,6.351,1.693,7.608,5.213S-877.363,1298.845-877.363,1298.845Z" transform="translate(999.786 -1185.136)" fill="#fa955a"/>
          <path id="Path_15429" data-name="Path 15429" d="M-1116.517,1029.442c13.741,1.742,3.987,59.422-4.73,66.127s-48.042,6.21-51.661-.5c-1.458-2.7,1.776-8.737,2.585-8.737s28.738-9.378,32.908-7.3C-1137.415,1079.031-1132.381,1027.43-1116.517,1029.442Z" transform="translate(1293.843 -980.408)" fill="#e0ffff"/>
          <path id="Path_15430" data-name="Path 15430" d="M-1052.044,906.762c2.484,1.9,6.318,6.241,6.7,7.724,1.2,4.69-1.066,5.322-1.066,5.322s4.894,1.783,3.534-6.1c-.351-2.035-2.865-6.4-4.232-7.278C-1048.792,905.353-1052.044,906.762-1052.044,906.762Z" transform="translate(1201.397 -882.911)" fill="#301c09"/>
        </g>
        <g id="Group_4664" data-name="Group 4664" transform="translate(0 82.576)">
          <g id="Group_4663" data-name="Group 4663" transform="translate(0 0)">
            <g id="Group_4657" data-name="Group 4657" transform="translate(2.58 3.017)">
              <path id="Path_15431" data-name="Path 15431" d="M1375.8,1043.333a10.366,10.366,0,1,1-10.366-10.366C1371.155,1032.967,1375.674,1039.061,1375.8,1043.333Z" transform="translate(-1355.063 -1032.967)" fill="#343469"/>
            </g>
            <g id="Group_4658" data-name="Group 4658" transform="translate(8.343 8.961)">
              <path id="Path_15432" data-name="Path 15432" d="M1409,1081.587c1.364,12.745,1.663,25.238-15.407,25.238-13.015,0-16.485-9.6-15.769-24.276.7-14.411,4.914-29.366,12.78-25.614C1399.314,1061.093,1407.62,1068.725,1409,1081.587Z" transform="translate(-1377.732 -1056.349)" fill="#343469"/>
            </g>
            <g id="Group_4659" data-name="Group 4659" transform="translate(25.245 52.938)">
              <path id="Path_15433" data-name="Path 15433" d="M1468.646,1261.463l-.118,0a2.661,2.661,0,0,1-2.542-2.774c0-.049.211-4.954-.036-10.2-.424-9.009-1.992-10.588-3.2-11.214-1.79-.86-9.1-2-16.095-2.607a2.661,2.661,0,0,1,.46-5.3c3.717.322,16.1,1.511,19.421,3.287,1.745.934,2.916,2.988,3.684,6.464a54.2,54.2,0,0,1,1.013,8.507c.306,5.727.078,11.073.068,11.3A2.661,2.661,0,0,1,1468.646,1261.463Zm-4.619-24.175h0Zm-.105-.015Z" transform="translate(-1444.226 -1229.354)" fill="#343469"/>
            </g>
            <g id="Group_4660" data-name="Group 4660" transform="translate(0 7.591)">
              <path id="Path_15434" data-name="Path 15434" d="M1349.206,1056.279l-4.078-3.827a.681.681,0,0,1,.428-1.177l5.51-.312Z" transform="translate(-1344.912 -1050.962)" fill="#343469"/>
            </g>
            <g id="Group_4661" data-name="Group 4661" transform="translate(11.339)">
              <path id="Path_15435" data-name="Path 15435" d="M1393.984,1025.1l-2.589-3.79a.4.4,0,0,0-.749.123l-1.129,3.953Z" transform="translate(-1389.518 -1021.099)" fill="#343469"/>
            </g>
            <g id="Group_4662" data-name="Group 4662" transform="translate(1.762 23.855)">
              <path id="Path_15436" data-name="Path 15436" d="M1362.436,1127.129a2.661,2.661,0,0,1-2.32-2.75,3.737,3.737,0,0,0-1.71-3.534,2.979,2.979,0,0,0-2.294-.523,2.661,2.661,0,0,1-3.236-4.225c1.907-1.477,4.986-1.541,7.663-.159a9.052,9.052,0,0,1,4.894,8.662,2.661,2.661,0,0,1-2.769,2.548C1362.587,1127.145,1362.511,1127.139,1362.436,1127.129Z" transform="translate(-1351.844 -1114.944)" fill="#343469"/>
            </g>
          </g>
          <path id="Path_15437" data-name="Path 15437" d="M1374.83,1233.172c-.7,0-12.071-.678-12.108,2.42s1.457,2.542,5.623,2.542,10.723.039,10.723.039Z" transform="translate(-1358.194 -1179.217)" fill="#343469"/>
        </g>
      </g>
    </g>
  </g>
</svg>
