<svg xmlns="http://www.w3.org/2000/svg" xmlns:xlink="http://www.w3.org/1999/xlink" width="1920" height="5460" viewBox="0 0 1920 5460">
  <defs>
    <clipPath id="clip-path">
      <rect id="Rectangle_677" data-name="Rectangle 677" width="1920" height="5460" transform="translate(0 5432)" fill="#fff" stroke="#707070" stroke-width="1"/>
    </clipPath>
  </defs>
  <g id="Mask_Group_42" data-name="Mask Group 42" transform="translate(0 -5432)" clip-path="url(#clip-path)">
    <g id="Group_4969" data-name="Group 4969">
      <g id="Group_4968" data-name="Group 4968" transform="translate(-3264.409 10103.883)">
        <g id="Group_4804" data-name="Group 4804" transform="translate(3333.432 657.469)">
          <g id="Group_4784" data-name="Group 4784" transform="translate(0 19.807)">
            <g id="Group_4783" data-name="Group 4783">
              <g id="Group_4782" data-name="Group 4782">
                <path id="Path_15504" data-name="Path 15504" d="M3368.516,793.7a1.5,1.5,0,0,1-1.058-.438l-7.646-7.643-3.595,3.6a8.106,8.106,0,1,1-.023-11.442l3.618,3.615,5.547-5.55a1.5,1.5,0,1,1,2.116,2.116l-5.547,5.55,7.646,7.643a1.5,1.5,0,0,1-1.058,2.554Zm-18.051-15.309a5.11,5.11,0,1,0,3.63,8.707l3.6-3.6-3.618-3.615A5.083,5.083,0,0,0,3350.465,778.388Z" transform="translate(-3342.364 -775.395)" fill="#bd342c"/>
              </g>
            </g>
          </g>
          <g id="Group_4787" data-name="Group 4787" transform="translate(46.078 19.807)">
            <g id="Group_4786" data-name="Group 4786">
              <g id="Group_4785" data-name="Group 4785">
                <path id="Path_15505" data-name="Path 15505" d="M3401.29,793.7a1.5,1.5,0,0,1-1.057-2.554l7.645-7.643-5.552-5.55,2.116-2.116,5.548,5.55,3.617-3.615a8.1,8.1,0,1,1-.023,11.437l-3.589-3.592-7.645,7.646A1.488,1.488,0,0,1,3401.29,793.7Zm10.814-10.2,3.594,3.6a5.113,5.113,0,1,0,.023-7.211Z" transform="translate(-3399.793 -775.395)" fill="#bd342c"/>
              </g>
            </g>
          </g>
          <g id="Group_4789" data-name="Group 4789" transform="translate(25.69 16.742)">
            <g id="Group_4788" data-name="Group 4788">
              <path id="Path_15506" data-name="Path 15506" d="M3395.226,793.915a1.488,1.488,0,0,1-1.058-.438l-19.347-19.348a1.5,1.5,0,1,1,2.116-2.116l19.348,19.348a1.5,1.5,0,0,1-1.058,2.554Z" transform="translate(-3374.382 -771.574)" fill="#bd342c"/>
            </g>
          </g>
          <g id="Group_4791" data-name="Group 4791" transform="translate(25.69 16.742)">
            <g id="Group_4790" data-name="Group 4790">
              <path id="Path_15507" data-name="Path 15507" d="M3375.878,793.915a1.5,1.5,0,0,1-1.058-2.554l19.347-19.348a1.5,1.5,0,0,1,2.116,2.116l-19.348,19.348A1.487,1.487,0,0,1,3375.878,793.915Z" transform="translate(-3374.382 -771.574)" fill="#bd342c"/>
            </g>
          </g>
          <g id="Group_4793" data-name="Group 4793" transform="translate(35.363 7.001)">
            <g id="Group_4792" data-name="Group 4792">
              <path id="Path_15508" data-name="Path 15508" d="M3407.348,781.841a1.487,1.487,0,0,1-1.058-.438l-19.413-19.415a1.5,1.5,0,0,1,2.116-2.116l19.412,19.415a1.5,1.5,0,0,1-1.057,2.554Z" transform="translate(-3386.439 -759.434)" fill="#bd342c"/>
            </g>
          </g>
          <g id="Group_4795" data-name="Group 4795" transform="translate(15.951 7.019)">
            <g id="Group_4794" data-name="Group 4794">
              <path id="Path_15509" data-name="Path 15509" d="M3383.153,801.258a1.489,1.489,0,0,1-1.058-.439l-19.411-19.412a1.5,1.5,0,0,1,0-2.116l19.411-19.415a1.542,1.542,0,0,1,2.116,0l19.412,19.415a1.5,1.5,0,0,1,0,2.116l-19.412,19.412A1.489,1.489,0,0,1,3383.153,801.258Zm-17.3-20.909,17.3,17.3,17.3-17.3-17.3-17.3Z" transform="translate(-3362.245 -759.456)" fill="#bd342c"/>
            </g>
          </g>
          <g id="Group_4797" data-name="Group 4797" transform="translate(18.622 0.005)">
            <g id="Group_4796" data-name="Group 4796">
              <path id="Path_15510" data-name="Path 15510" d="M3374.137,770.412a1.488,1.488,0,0,1-1.052-.433l-5.056-5a8.36,8.36,0,1,1,11.819-11.827l5.05,4.989a1.494,1.494,0,0,1,.006,2.121l-9.708,9.709A1.488,1.488,0,0,1,3374.137,770.412Zm-.2-16.709a5.362,5.362,0,0,0-3.793,9.156l3.992,3.945,7.594-7.593-3.987-3.937A5.367,5.367,0,0,0,3373.933,753.7Z" transform="translate(-3365.574 -750.714)" fill="#bd342c"/>
            </g>
          </g>
          <g id="Group_4799" data-name="Group 4799" transform="translate(35.399)">
            <g id="Group_4798" data-name="Group 4798">
              <path id="Path_15511" data-name="Path 15511" d="M3397.682,770.411a1.488,1.488,0,0,1-1.058-.439l-9.7-9.709a1.5,1.5,0,0,1,.007-2.121l5.055-4.995a8.372,8.372,0,0,1,11.819.006h0a8.376,8.376,0,0,1,0,11.822l-5.067,5A1.491,1.491,0,0,1,3397.682,770.411Zm-7.582-11.2,7.587,7.593,4-3.951a5.368,5.368,0,0,0-7.6-7.584Z" transform="translate(-3386.483 -750.708)" fill="#bd342c"/>
            </g>
          </g>
          <g id="Group_4801" data-name="Group 4801" transform="translate(18.622 36.121)">
            <g id="Group_4800" data-name="Group 4800">
              <path id="Path_15512" data-name="Path 15512" d="M3373.939,815.43a8.346,8.346,0,0,1-5.916-2.446h0a8.357,8.357,0,0,1,0-11.822l5.062-5a1.494,1.494,0,0,1,2.11.006l9.708,9.706a1.494,1.494,0,0,1-.006,2.121l-5.056,5A8.314,8.314,0,0,1,3373.939,815.43Zm.193-16.094-4,3.948a5.365,5.365,0,0,0,.006,7.585h0a5.382,5.382,0,0,0,7.593,0l3.993-3.943Z" transform="translate(-3365.574 -795.728)" fill="#bd342c"/>
            </g>
          </g>
          <g id="Group_4803" data-name="Group 4803" transform="translate(35.399 36.121)">
            <g id="Group_4802" data-name="Group 4802">
              <path id="Path_15513" data-name="Path 15513" d="M3397.887,815.43a8.33,8.33,0,0,1-5.909-2.446l-5.05-4.989a1.5,1.5,0,0,1-.007-2.121l9.7-9.706a1.494,1.494,0,0,1,2.11-.006l5.061,4.995a8.377,8.377,0,0,1,.006,11.827h0A8.334,8.334,0,0,1,3397.887,815.43Zm-7.786-8.5,3.987,3.937a5.368,5.368,0,1,0,7.6-7.585l-4-3.942Zm12.644,5h0Z" transform="translate(-3386.483 -795.728)" fill="#bd342c"/>
            </g>
          </g>
        </g>
        <g id="Group_4818" data-name="Group 4818" transform="translate(3297.174 278.982)">
          <g id="Group_4811" data-name="Group 4811" transform="translate(0 125.227)">
            <g id="Group_4806" data-name="Group 4806">
              <g id="Group_4805" data-name="Group 4805">
                <path id="Path_15514" data-name="Path 15514" d="M3416.329,637.381h-92.067a27.116,27.116,0,0,1-27.087-27.081V462.143a27.117,27.117,0,0,1,27.087-27.085h92.067a27.112,27.112,0,0,1,27.081,27.085V610.3A27.11,27.11,0,0,1,3416.329,637.381Zm-92.067-199.331a24.12,24.12,0,0,0-24.094,24.092V610.3a24.117,24.117,0,0,0,24.094,24.088h92.067a24.115,24.115,0,0,0,24.088-24.088V462.143a24.119,24.119,0,0,0-24.088-24.092Z" transform="translate(-3297.174 -435.058)" fill="#bd342c"/>
              </g>
            </g>
            <g id="Group_4808" data-name="Group 4808" transform="translate(30.799)">
              <g id="Group_4807" data-name="Group 4807">
                <path id="Path_15515" data-name="Path 15515" d="M3393.118,637.381h-30.477A27.111,27.111,0,0,1,3335.56,610.3V462.143a27.112,27.112,0,0,1,27.081-27.085h30.477a27.112,27.112,0,0,1,27.081,27.085V610.3A27.111,27.111,0,0,1,3393.118,637.381Zm-30.477-199.331a24.119,24.119,0,0,0-24.088,24.092V610.3a24.115,24.115,0,0,0,24.088,24.088h30.477a24.116,24.116,0,0,0,24.088-24.088V462.143a24.12,24.12,0,0,0-24.088-24.092Z" transform="translate(-3335.56 -435.058)" fill="#bd342c"/>
              </g>
            </g>
            <g id="Group_4810" data-name="Group 4810" transform="translate(71.621)">
              <g id="Group_4809" data-name="Group 4809">
                <path id="Path_15516" data-name="Path 15516" d="M3387.935,637.381a1.5,1.5,0,0,1-1.5-1.5V436.554a1.5,1.5,0,0,1,2.993,0v199.33A1.5,1.5,0,0,1,3387.935,637.381Z" transform="translate(-3386.439 -435.058)" fill="#bd342c"/>
              </g>
            </g>
          </g>
          <g id="Group_4813" data-name="Group 4813" transform="translate(46.37 104.959)">
            <g id="Group_4812" data-name="Group 4812">
              <path id="Path_15517" data-name="Path 15517" d="M3406.966,432.994h-50.5a1.5,1.5,0,0,1-1.5-1.5v-20.2a1.5,1.5,0,0,1,1.5-1.5h50.5a1.5,1.5,0,0,1,1.5,1.5v20.2A1.5,1.5,0,0,1,3406.966,432.994ZM3357.96,430h47.51V412.79h-47.51Z" transform="translate(-3354.967 -409.797)" fill="#bd342c"/>
            </g>
          </g>
          <g id="Group_4815" data-name="Group 4815" transform="translate(46.37 324.557)">
            <g id="Group_4814" data-name="Group 4814">
              <path id="Path_15518" data-name="Path 15518" d="M3406.966,706.69h-50.5a1.5,1.5,0,0,1-1.5-1.5v-20.2a1.5,1.5,0,0,1,1.5-1.5h50.5a1.5,1.5,0,0,1,1.5,1.5v20.2A1.5,1.5,0,0,1,3406.966,706.69ZM3357.96,703.7h47.51V686.486h-47.51Z" transform="translate(-3354.967 -683.493)" fill="#bd342c"/>
            </g>
          </g>
          <g id="Group_4817" data-name="Group 4817" transform="translate(71.621)">
            <g id="Group_4816" data-name="Group 4816">
              <path id="Path_15519" data-name="Path 15519" d="M3387.935,386.933a1.5,1.5,0,0,1-1.5-1.5V280.478a1.5,1.5,0,1,1,2.993,0V385.437A1.5,1.5,0,0,1,3387.935,386.933Z" transform="translate(-3386.439 -278.982)" fill="#bd342c"/>
            </g>
          </g>
        </g>
        <g id="Group_4820" data-name="Group 4820" transform="translate(3368.831 623.744)">
          <g id="Group_4819" data-name="Group 4819">
            <path id="Path_15520" data-name="Path 15520" d="M3387.979,752.394a1.5,1.5,0,0,1-1.5-1.5V710.171a1.5,1.5,0,1,1,2.993,0V750.9A1.5,1.5,0,0,1,3387.979,752.394Z" transform="translate(-3386.483 -708.675)" fill="#bd342c"/>
          </g>
        </g>
        <g id="Group_4822" data-name="Group 4822" transform="translate(3368.831 703.296)">
          <g id="Group_4821" data-name="Group 4821">
            <path id="Path_15521" data-name="Path 15521" d="M3387.979,841.1a1.5,1.5,0,0,1-1.5-1.5V809.321a1.5,1.5,0,1,1,2.993,0V839.6A1.5,1.5,0,0,1,3387.979,841.1Z" transform="translate(-3386.483 -807.825)" fill="#bd342c"/>
          </g>
        </g>
        <g id="Group_4824" data-name="Group 4824" transform="translate(3362.068 733.578)">
          <g id="Group_4823" data-name="Group 4823">
            <path id="Path_15522" data-name="Path 15522" d="M3386.278,862.015a8.224,8.224,0,1,1,8.224-8.225A8.232,8.232,0,0,1,3386.278,862.015Zm0-13.456a5.231,5.231,0,1,0,5.231,5.231A5.234,5.234,0,0,0,3386.278,848.559Z" transform="translate(-3378.054 -845.566)" fill="#bd342c"/>
          </g>
        </g>
        <g id="Group_4826" data-name="Group 4826" transform="translate(3360.554 747.033)">
          <g id="Group_4825" data-name="Group 4825">
            <path id="Path_15523" data-name="Path 15523" d="M3394.212,874.167h-16.548a1.5,1.5,0,0,1-1.5-1.5v-8.839a1.5,1.5,0,0,1,1.5-1.5h16.548a1.5,1.5,0,0,1,1.5,1.5v8.839A1.5,1.5,0,0,1,3394.212,874.167Zm-15.052-2.993h13.556V865.33H3379.16Z" transform="translate(-3376.167 -862.336)" fill="#bd342c"/>
          </g>
        </g>
        <g id="Group_4830" data-name="Group 4830" transform="translate(3360.554 755.872)">
          <g id="Group_4827" data-name="Group 4827">
            <path id="Path_15524" data-name="Path 15524" d="M3377.663,905.646a1.5,1.5,0,0,1-1.5-1.5v-29.3a1.5,1.5,0,1,1,2.993,0v29.3A1.5,1.5,0,0,1,3377.663,905.646Z" transform="translate(-3376.167 -873.352)" fill="#bd342c"/>
          </g>
          <g id="Group_4828" data-name="Group 4828" transform="translate(8.277)">
            <path id="Path_15525" data-name="Path 15525" d="M3387.979,905.646a1.5,1.5,0,0,1-1.5-1.5v-29.3a1.5,1.5,0,1,1,2.993,0v29.3A1.5,1.5,0,0,1,3387.979,905.646Z" transform="translate(-3386.483 -873.352)" fill="#bd342c"/>
          </g>
          <g id="Group_4829" data-name="Group 4829" transform="translate(16.548)">
            <path id="Path_15526" data-name="Path 15526" d="M3398.288,905.646a1.5,1.5,0,0,1-1.5-1.5v-29.3a1.5,1.5,0,1,1,2.993,0v29.3A1.5,1.5,0,0,1,3398.288,905.646Z" transform="translate(-3396.792 -873.352)" fill="#bd342c"/>
          </g>
        </g>
      </g>
      <g id="Group_4913" data-name="Group 4913" transform="translate(-1556.174 7107.018)">
        <g id="Group_4804-2" data-name="Group 4804" transform="translate(3333.432 657.469)">
          <g id="Group_4784-2" data-name="Group 4784" transform="translate(0 19.807)">
            <g id="Group_4783-2" data-name="Group 4783">
              <g id="Group_4782-2" data-name="Group 4782">
                <path id="Path_15504-2" data-name="Path 15504" d="M3368.516,793.7a1.5,1.5,0,0,1-1.058-.438l-7.646-7.643-3.595,3.6a8.106,8.106,0,1,1-.023-11.442l3.618,3.615,5.547-5.55a1.5,1.5,0,1,1,2.116,2.116l-5.547,5.55,7.646,7.643a1.5,1.5,0,0,1-1.058,2.554Zm-18.051-15.309a5.11,5.11,0,1,0,3.63,8.707l3.6-3.6-3.618-3.615A5.083,5.083,0,0,0,3350.465,778.388Z" transform="translate(-3342.364 -775.395)" fill="#bd342c"/>
              </g>
            </g>
          </g>
          <g id="Group_4787-2" data-name="Group 4787" transform="translate(46.078 19.807)">
            <g id="Group_4786-2" data-name="Group 4786">
              <g id="Group_4785-2" data-name="Group 4785">
                <path id="Path_15505-2" data-name="Path 15505" d="M3401.29,793.7a1.5,1.5,0,0,1-1.057-2.554l7.645-7.643-5.552-5.55,2.116-2.116,5.548,5.55,3.617-3.615a8.1,8.1,0,1,1-.023,11.437l-3.589-3.592-7.645,7.646A1.488,1.488,0,0,1,3401.29,793.7Zm10.814-10.2,3.594,3.6a5.113,5.113,0,1,0,.023-7.211Z" transform="translate(-3399.793 -775.395)" fill="#bd342c"/>
              </g>
            </g>
          </g>
          <g id="Group_4789-2" data-name="Group 4789" transform="translate(25.69 16.742)">
            <g id="Group_4788-2" data-name="Group 4788">
              <path id="Path_15506-2" data-name="Path 15506" d="M3395.226,793.915a1.488,1.488,0,0,1-1.058-.438l-19.347-19.348a1.5,1.5,0,1,1,2.116-2.116l19.348,19.348a1.5,1.5,0,0,1-1.058,2.554Z" transform="translate(-3374.382 -771.574)" fill="#bd342c"/>
            </g>
          </g>
          <g id="Group_4791-2" data-name="Group 4791" transform="translate(25.69 16.742)">
            <g id="Group_4790-2" data-name="Group 4790">
              <path id="Path_15507-2" data-name="Path 15507" d="M3375.878,793.915a1.5,1.5,0,0,1-1.058-2.554l19.347-19.348a1.5,1.5,0,0,1,2.116,2.116l-19.348,19.348A1.487,1.487,0,0,1,3375.878,793.915Z" transform="translate(-3374.382 -771.574)" fill="#bd342c"/>
            </g>
          </g>
          <g id="Group_4793-2" data-name="Group 4793" transform="translate(35.363 7.001)">
            <g id="Group_4792-2" data-name="Group 4792">
              <path id="Path_15508-2" data-name="Path 15508" d="M3407.348,781.841a1.487,1.487,0,0,1-1.058-.438l-19.413-19.415a1.5,1.5,0,0,1,2.116-2.116l19.412,19.415a1.5,1.5,0,0,1-1.057,2.554Z" transform="translate(-3386.439 -759.434)" fill="#bd342c"/>
            </g>
          </g>
          <g id="Group_4795-2" data-name="Group 4795" transform="translate(15.951 7.019)">
            <g id="Group_4794-2" data-name="Group 4794">
              <path id="Path_15509-2" data-name="Path 15509" d="M3383.153,801.258a1.489,1.489,0,0,1-1.058-.439l-19.411-19.412a1.5,1.5,0,0,1,0-2.116l19.411-19.415a1.542,1.542,0,0,1,2.116,0l19.412,19.415a1.5,1.5,0,0,1,0,2.116l-19.412,19.412A1.489,1.489,0,0,1,3383.153,801.258Zm-17.3-20.909,17.3,17.3,17.3-17.3-17.3-17.3Z" transform="translate(-3362.245 -759.456)" fill="#bd342c"/>
            </g>
          </g>
          <g id="Group_4797-2" data-name="Group 4797" transform="translate(18.622 0.005)">
            <g id="Group_4796-2" data-name="Group 4796">
              <path id="Path_15510-2" data-name="Path 15510" d="M3374.137,770.412a1.488,1.488,0,0,1-1.052-.433l-5.056-5a8.36,8.36,0,1,1,11.819-11.827l5.05,4.989a1.494,1.494,0,0,1,.006,2.121l-9.708,9.709A1.488,1.488,0,0,1,3374.137,770.412Zm-.2-16.709a5.362,5.362,0,0,0-3.793,9.156l3.992,3.945,7.594-7.593-3.987-3.937A5.367,5.367,0,0,0,3373.933,753.7Z" transform="translate(-3365.574 -750.714)" fill="#bd342c"/>
            </g>
          </g>
          <g id="Group_4799-2" data-name="Group 4799" transform="translate(35.399)">
            <g id="Group_4798-2" data-name="Group 4798">
              <path id="Path_15511-2" data-name="Path 15511" d="M3397.682,770.411a1.488,1.488,0,0,1-1.058-.439l-9.7-9.709a1.5,1.5,0,0,1,.007-2.121l5.055-4.995a8.372,8.372,0,0,1,11.819.006h0a8.376,8.376,0,0,1,0,11.822l-5.067,5A1.491,1.491,0,0,1,3397.682,770.411Zm-7.582-11.2,7.587,7.593,4-3.951a5.368,5.368,0,0,0-7.6-7.584Z" transform="translate(-3386.483 -750.708)" fill="#bd342c"/>
            </g>
          </g>
          <g id="Group_4801-2" data-name="Group 4801" transform="translate(18.622 36.121)">
            <g id="Group_4800-2" data-name="Group 4800">
              <path id="Path_15512-2" data-name="Path 15512" d="M3373.939,815.43a8.346,8.346,0,0,1-5.916-2.446h0a8.357,8.357,0,0,1,0-11.822l5.062-5a1.494,1.494,0,0,1,2.11.006l9.708,9.706a1.494,1.494,0,0,1-.006,2.121l-5.056,5A8.314,8.314,0,0,1,3373.939,815.43Zm.193-16.094-4,3.948a5.365,5.365,0,0,0,.006,7.585h0a5.382,5.382,0,0,0,7.593,0l3.993-3.943Z" transform="translate(-3365.574 -795.728)" fill="#bd342c"/>
            </g>
          </g>
          <g id="Group_4803-2" data-name="Group 4803" transform="translate(35.399 36.121)">
            <g id="Group_4802-2" data-name="Group 4802">
              <path id="Path_15513-2" data-name="Path 15513" d="M3397.887,815.43a8.33,8.33,0,0,1-5.909-2.446l-5.05-4.989a1.5,1.5,0,0,1-.007-2.121l9.7-9.706a1.494,1.494,0,0,1,2.11-.006l5.061,4.995a8.377,8.377,0,0,1,.006,11.827h0A8.334,8.334,0,0,1,3397.887,815.43Zm-7.786-8.5,3.987,3.937a5.368,5.368,0,1,0,7.6-7.585l-4-3.942Zm12.644,5h0Z" transform="translate(-3386.483 -795.728)" fill="#bd342c"/>
            </g>
          </g>
        </g>
        <g id="Group_4818-2" data-name="Group 4818" transform="translate(3297.174 278.982)">
          <g id="Group_4811-2" data-name="Group 4811" transform="translate(0 125.227)">
            <g id="Group_4806-2" data-name="Group 4806">
              <g id="Group_4805-2" data-name="Group 4805">
                <path id="Path_15514-2" data-name="Path 15514" d="M3416.329,637.381h-92.067a27.116,27.116,0,0,1-27.087-27.081V462.143a27.117,27.117,0,0,1,27.087-27.085h92.067a27.112,27.112,0,0,1,27.081,27.085V610.3A27.11,27.11,0,0,1,3416.329,637.381Zm-92.067-199.331a24.12,24.12,0,0,0-24.094,24.092V610.3a24.117,24.117,0,0,0,24.094,24.088h92.067a24.115,24.115,0,0,0,24.088-24.088V462.143a24.119,24.119,0,0,0-24.088-24.092Z" transform="translate(-3297.174 -435.058)" fill="#bd342c"/>
              </g>
            </g>
            <g id="Group_4808-2" data-name="Group 4808" transform="translate(30.799)">
              <g id="Group_4807-2" data-name="Group 4807">
                <path id="Path_15515-2" data-name="Path 15515" d="M3393.118,637.381h-30.477A27.111,27.111,0,0,1,3335.56,610.3V462.143a27.112,27.112,0,0,1,27.081-27.085h30.477a27.112,27.112,0,0,1,27.081,27.085V610.3A27.111,27.111,0,0,1,3393.118,637.381Zm-30.477-199.331a24.119,24.119,0,0,0-24.088,24.092V610.3a24.115,24.115,0,0,0,24.088,24.088h30.477a24.116,24.116,0,0,0,24.088-24.088V462.143a24.12,24.12,0,0,0-24.088-24.092Z" transform="translate(-3335.56 -435.058)" fill="#bd342c"/>
              </g>
            </g>
            <g id="Group_4810-2" data-name="Group 4810" transform="translate(71.621)">
              <g id="Group_4809-2" data-name="Group 4809">
                <path id="Path_15516-2" data-name="Path 15516" d="M3387.935,637.381a1.5,1.5,0,0,1-1.5-1.5V436.554a1.5,1.5,0,0,1,2.993,0v199.33A1.5,1.5,0,0,1,3387.935,637.381Z" transform="translate(-3386.439 -435.058)" fill="#bd342c"/>
              </g>
            </g>
          </g>
          <g id="Group_4813-2" data-name="Group 4813" transform="translate(46.37 104.959)">
            <g id="Group_4812-2" data-name="Group 4812">
              <path id="Path_15517-2" data-name="Path 15517" d="M3406.966,432.994h-50.5a1.5,1.5,0,0,1-1.5-1.5v-20.2a1.5,1.5,0,0,1,1.5-1.5h50.5a1.5,1.5,0,0,1,1.5,1.5v20.2A1.5,1.5,0,0,1,3406.966,432.994ZM3357.96,430h47.51V412.79h-47.51Z" transform="translate(-3354.967 -409.797)" fill="#bd342c"/>
            </g>
          </g>
          <g id="Group_4815-2" data-name="Group 4815" transform="translate(46.37 324.557)">
            <g id="Group_4814-2" data-name="Group 4814">
              <path id="Path_15518-2" data-name="Path 15518" d="M3406.966,706.69h-50.5a1.5,1.5,0,0,1-1.5-1.5v-20.2a1.5,1.5,0,0,1,1.5-1.5h50.5a1.5,1.5,0,0,1,1.5,1.5v20.2A1.5,1.5,0,0,1,3406.966,706.69ZM3357.96,703.7h47.51V686.486h-47.51Z" transform="translate(-3354.967 -683.493)" fill="#bd342c"/>
            </g>
          </g>
          <g id="Group_4817-2" data-name="Group 4817" transform="translate(71.621)">
            <g id="Group_4816-2" data-name="Group 4816">
              <path id="Path_15519-2" data-name="Path 15519" d="M3387.935,386.933a1.5,1.5,0,0,1-1.5-1.5V280.478a1.5,1.5,0,1,1,2.993,0V385.437A1.5,1.5,0,0,1,3387.935,386.933Z" transform="translate(-3386.439 -278.982)" fill="#bd342c"/>
            </g>
          </g>
        </g>
        <g id="Group_4820-2" data-name="Group 4820" transform="translate(3368.831 623.744)">
          <g id="Group_4819-2" data-name="Group 4819">
            <path id="Path_15520-2" data-name="Path 15520" d="M3387.979,752.394a1.5,1.5,0,0,1-1.5-1.5V710.171a1.5,1.5,0,1,1,2.993,0V750.9A1.5,1.5,0,0,1,3387.979,752.394Z" transform="translate(-3386.483 -708.675)" fill="#bd342c"/>
          </g>
        </g>
        <g id="Group_4822-2" data-name="Group 4822" transform="translate(3368.831 703.296)">
          <g id="Group_4821-2" data-name="Group 4821">
            <path id="Path_15521-2" data-name="Path 15521" d="M3387.979,841.1a1.5,1.5,0,0,1-1.5-1.5V809.321a1.5,1.5,0,1,1,2.993,0V839.6A1.5,1.5,0,0,1,3387.979,841.1Z" transform="translate(-3386.483 -807.825)" fill="#bd342c"/>
          </g>
        </g>
        <g id="Group_4824-2" data-name="Group 4824" transform="translate(3362.068 733.578)">
          <g id="Group_4823-2" data-name="Group 4823">
            <path id="Path_15522-2" data-name="Path 15522" d="M3386.278,862.015a8.224,8.224,0,1,1,8.224-8.225A8.232,8.232,0,0,1,3386.278,862.015Zm0-13.456a5.231,5.231,0,1,0,5.231,5.231A5.234,5.234,0,0,0,3386.278,848.559Z" transform="translate(-3378.054 -845.566)" fill="#bd342c"/>
          </g>
        </g>
        <g id="Group_4826-2" data-name="Group 4826" transform="translate(3360.554 747.033)">
          <g id="Group_4825-2" data-name="Group 4825">
            <path id="Path_15523-2" data-name="Path 15523" d="M3394.212,874.167h-16.548a1.5,1.5,0,0,1-1.5-1.5v-8.839a1.5,1.5,0,0,1,1.5-1.5h16.548a1.5,1.5,0,0,1,1.5,1.5v8.839A1.5,1.5,0,0,1,3394.212,874.167Zm-15.052-2.993h13.556V865.33H3379.16Z" transform="translate(-3376.167 -862.336)" fill="#bd342c"/>
          </g>
        </g>
        <g id="Group_4830-2" data-name="Group 4830" transform="translate(3360.554 755.872)">
          <g id="Group_4827-2" data-name="Group 4827">
            <path id="Path_15524-2" data-name="Path 15524" d="M3377.663,905.646a1.5,1.5,0,0,1-1.5-1.5v-29.3a1.5,1.5,0,1,1,2.993,0v29.3A1.5,1.5,0,0,1,3377.663,905.646Z" transform="translate(-3376.167 -873.352)" fill="#bd342c"/>
          </g>
          <g id="Group_4828-2" data-name="Group 4828" transform="translate(8.277)">
            <path id="Path_15525-2" data-name="Path 15525" d="M3387.979,905.646a1.5,1.5,0,0,1-1.5-1.5v-29.3a1.5,1.5,0,1,1,2.993,0v29.3A1.5,1.5,0,0,1,3387.979,905.646Z" transform="translate(-3386.483 -873.352)" fill="#bd342c"/>
          </g>
          <g id="Group_4829-2" data-name="Group 4829" transform="translate(16.548)">
            <path id="Path_15526-2" data-name="Path 15526" d="M3398.288,905.646a1.5,1.5,0,0,1-1.5-1.5v-29.3a1.5,1.5,0,1,1,2.993,0v29.3A1.5,1.5,0,0,1,3398.288,905.646Z" transform="translate(-3396.792 -873.352)" fill="#bd342c"/>
          </g>
        </g>
      </g>
      <g id="Group_4880" data-name="Group 4880" transform="translate(-1334.767 5352.709)">
        <g id="Group_4845" data-name="Group 4845" transform="translate(3032.767 367.548)">
          <g id="Group_4840" data-name="Group 4840" transform="translate(0 14.175)">
            <g id="Group_4833" data-name="Group 4833">
              <g id="Group_4832" data-name="Group 4832">
                <path id="Path_15527" data-name="Path 15527" d="M3110.115,547.927c-42.648,0-77.347-29.994-77.347-66.861s34.7-66.859,77.347-66.859,77.353,29.992,77.353,66.859S3152.767,547.927,3110.115,547.927Zm0-130.885c-41.087,0-74.513,28.722-74.513,64.025s33.426,64.027,74.513,64.027,74.519-28.722,74.519-64.027S3151.207,417.042,3110.115,417.042Z" transform="translate(-3032.767 -414.208)" fill="#bd342c"/>
              </g>
            </g>
            <g id="Group_4836" data-name="Group 4836" transform="translate(24.985 0)">
              <g id="Group_4835" data-name="Group 4835">
                <g id="Group_4834" data-name="Group 4834">
                  <path id="Path_15528" data-name="Path 15528" d="M3118.014,547.927a1.426,1.426,0,0,1-.4-.058c-.521-.158-51.958-16.129-51.958-66.8,0-47.269,51.354-66.581,51.875-66.772a1.416,1.416,0,0,1,1,.008c.516.2,51.853,20.383,51.853,66.764,0,50.674-51.437,66.645-51.957,66.8A1.433,1.433,0,0,1,3118.014,547.927ZM3118,417.151c-5.225,2.089-49.517,21.1-49.517,63.916,0,46.235,44.756,62.372,49.528,63.955,4.766-1.589,49.527-17.767,49.527-63.955C3167.542,439.053,3123.223,419.323,3118,417.151Z" transform="translate(-3065.652 -414.208)" fill="#bd342c"/>
                </g>
              </g>
            </g>
            <g id="Group_4839" data-name="Group 4839" transform="translate(53.646 0)">
              <g id="Group_4838" data-name="Group 4838">
                <g id="Group_4837" data-name="Group 4837">
                  <path id="Path_15529" data-name="Path 15529" d="M3127.076,547.927a1.416,1.416,0,0,1-.8-.246c-.936-.639-22.9-16.24-22.9-66.615,0-46.949,21.863-65.752,22.793-66.529a1.417,1.417,0,0,1,1.842.022c.931.814,22.766,20.449,22.766,66.507,0,50.375-21.968,65.976-22.9,66.615A1.416,1.416,0,0,1,3127.076,547.927Zm-.017-130.335c-4.163,4.173-20.851,23.425-20.851,63.474,0,43.448,16.937,60.315,20.861,63.637,3.919-3.341,20.872-20.319,20.872-63.637C3147.942,441.715,3131.2,421.891,3127.06,417.593Z" transform="translate(-3103.375 -414.208)" fill="#bd342c"/>
                </g>
              </g>
            </g>
          </g>
          <g id="Group_4842" data-name="Group 4842" transform="translate(59.031 0)">
            <g id="Group_4841" data-name="Group 4841">
              <path id="Path_15530" data-name="Path 15530" d="M3145.677,413.917h-1.434a88.114,88.114,0,0,0-30.675-.023l-1.688.023a1.418,1.418,0,0,1-1.417-1.417V400.641a5.1,5.1,0,0,1,5.092-5.09h26.452a5.093,5.093,0,0,1,5.087,5.09V412.5A1.419,1.419,0,0,1,3145.677,413.917Zm-32.38-2.834h.022a90.585,90.585,0,0,1,30.941-.02V400.641a2.259,2.259,0,0,0-2.253-2.256h-26.452a2.26,2.26,0,0,0-2.258,2.256Z" transform="translate(-3110.463 -395.551)" fill="#bd342c"/>
            </g>
          </g>
          <g id="Group_4844" data-name="Group 4844" transform="translate(59.031 143.702)">
            <g id="Group_4843" data-name="Group 4843">
              <path id="Path_15531" data-name="Path 15531" d="M3142.007,603.057h-26.452a5.1,5.1,0,0,1-5.092-5.09V586.106a1.418,1.418,0,0,1,1.417-1.417h1.439a88.134,88.134,0,0,0,30.676.022l1.682-.022a1.418,1.418,0,0,1,1.417,1.417v11.861A5.093,5.093,0,0,1,3142.007,603.057Zm-28.71-15.515v10.425a2.26,2.26,0,0,0,2.258,2.256h26.452a2.259,2.259,0,0,0,2.253-2.256l-.017-10.444A90.27,90.27,0,0,1,3113.3,587.542Z" transform="translate(-3110.463 -584.689)" fill="#bd342c"/>
            </g>
          </g>
        </g>
        <g id="Group_4847" data-name="Group 4847" transform="translate(3108.697 526.784)">
          <g id="Group_4846" data-name="Group 4846">
            <path id="Path_15532" data-name="Path 15532" d="M3134.122,661.636a1.418,1.418,0,0,1-1.417-1.417V606.551a1.417,1.417,0,1,1,2.834,0v53.668A1.418,1.418,0,0,1,3134.122,661.636Z" transform="translate(-3132.705 -605.134)" fill="#bd342c"/>
          </g>
        </g>
        <g id="Group_4849" data-name="Group 4849" transform="translate(3108.697 278.982)">
          <g id="Group_4848" data-name="Group 4848">
            <path id="Path_15533" data-name="Path 15533" d="M3134.122,357.737a1.418,1.418,0,0,1-1.417-1.417V280.4a1.417,1.417,0,0,1,2.834,0V356.32A1.418,1.418,0,0,1,3134.122,357.737Z" transform="translate(-3132.705 -278.982)" fill="#bd342c"/>
          </g>
        </g>
        <g id="Group_4858" data-name="Group 4858" transform="translate(3032.767 594.622)">
          <g id="Group_4851" data-name="Group 4851" transform="translate(0 0.003)">
            <g id="Group_4850" data-name="Group 4850">
              <path id="Path_15534" data-name="Path 15534" d="M3110.115,828.15c-42.648,0-77.347-30-77.347-66.864s34.7-66.861,77.347-66.861,77.353,29.994,77.353,66.861S3152.767,828.15,3110.115,828.15Zm0-130.892c-41.087,0-74.513,28.722-74.513,64.028s33.426,64.03,74.513,64.03,74.519-28.725,74.519-64.03S3151.207,697.258,3110.115,697.258Z" transform="translate(-3032.767 -694.425)" fill="#bd342c"/>
            </g>
          </g>
          <g id="Group_4854" data-name="Group 4854" transform="translate(24.985)">
            <g id="Group_4853" data-name="Group 4853">
              <g id="Group_4852" data-name="Group 4852">
                <path id="Path_15535" data-name="Path 15535" d="M3118.014,828.149a1.4,1.4,0,0,1-.4-.062c-.521-.155-51.958-16.129-51.958-66.8,0-47.269,51.354-66.584,51.875-66.775a1.387,1.387,0,0,1,1,.008c.516.2,51.853,20.386,51.853,66.767,0,50.673-51.437,66.647-51.957,66.8A1.41,1.41,0,0,1,3118.014,828.149ZM3118,697.366c-5.225,2.089-49.517,21.1-49.517,63.919,0,46.229,44.756,62.369,49.528,63.958,4.766-1.589,49.527-17.773,49.527-63.958C3167.542,719.235,3123.223,699.536,3118,697.366Z" transform="translate(-3065.652 -694.421)" fill="#bd342c"/>
              </g>
            </g>
          </g>
          <g id="Group_4857" data-name="Group 4857" transform="translate(53.646 0.002)">
            <g id="Group_4856" data-name="Group 4856">
              <g id="Group_4855" data-name="Group 4855">
                <path id="Path_15536" data-name="Path 15536" d="M3127.076,828.15a1.432,1.432,0,0,1-.8-.25c-.93-.636-22.9-16.245-22.9-66.614,0-46.949,21.863-65.754,22.793-66.532a1.417,1.417,0,0,1,1.842.022c.931.814,22.766,20.452,22.766,66.51,0,50.368-21.968,65.978-22.9,66.614A1.426,1.426,0,0,1,3127.076,828.15Zm-.017-130.34c-4.163,4.173-20.851,23.427-20.851,63.476,0,43.3,16.942,60.287,20.867,63.637,3.924-3.35,20.866-20.336,20.866-63.637C3147.942,721.934,3131.2,702.108,3127.06,697.81Z" transform="translate(-3103.375 -694.425)" fill="#bd342c"/>
              </g>
            </g>
          </g>
        </g>
        <g id="Group_4860" data-name="Group 4860" transform="translate(3091.798 580.452)">
          <g id="Group_4859" data-name="Group 4859">
            <path id="Path_15537" data-name="Path 15537" d="M3145.677,694.137h-1.434a88.112,88.112,0,0,0-30.675-.023l-1.688.023a1.419,1.419,0,0,1-1.417-1.418V680.861a5.1,5.1,0,0,1,5.092-5.09h26.452a5.093,5.093,0,0,1,5.087,5.09v11.859A1.419,1.419,0,0,1,3145.677,694.137ZM3113.3,691.3h.022a90.111,90.111,0,0,1,30.941-.019V680.861a2.259,2.259,0,0,0-2.253-2.256h-26.452a2.26,2.26,0,0,0-2.258,2.256Z" transform="translate(-3110.463 -675.771)" fill="#bd342c"/>
          </g>
        </g>
        <g id="Group_4862" data-name="Group 4862" transform="translate(3091.798 724.154)">
          <g id="Group_4861" data-name="Group 4861">
            <path id="Path_15538" data-name="Path 15538" d="M3142.007,883.274h-26.452a5.1,5.1,0,0,1-5.092-5.087V866.326a1.419,1.419,0,0,1,1.417-1.417h1.439a87.623,87.623,0,0,0,30.676.022l1.682-.022a1.42,1.42,0,0,1,1.417,1.417v11.861A5.091,5.091,0,0,1,3142.007,883.274Zm-28.71-15.515v10.428a2.26,2.26,0,0,0,2.258,2.253h26.452a2.259,2.259,0,0,0,2.253-2.253l-.017-10.444A89.932,89.932,0,0,1,3113.3,867.759Z" transform="translate(-3110.463 -864.909)" fill="#bd342c"/>
          </g>
        </g>
        <g id="Group_4869" data-name="Group 4869" transform="translate(3095.092 816.528)">
          <g id="Group_4863" data-name="Group 4863">
            <path id="Path_15539" data-name="Path 15539" d="M3116.215,1014.1a1.419,1.419,0,0,1-1.417-1.417V987.907a1.417,1.417,0,0,1,2.834,0v24.775A1.42,1.42,0,0,1,3116.215,1014.1Z" transform="translate(-3114.798 -986.49)" fill="#bd342c"/>
          </g>
          <g id="Group_4864" data-name="Group 4864" transform="translate(5.441)">
            <path id="Path_15540" data-name="Path 15540" d="M3123.376,1014.1a1.42,1.42,0,0,1-1.417-1.417V987.907a1.417,1.417,0,0,1,2.834,0v24.775A1.42,1.42,0,0,1,3123.376,1014.1Z" transform="translate(-3121.959 -986.49)" fill="#bd342c"/>
          </g>
          <g id="Group_4865" data-name="Group 4865" transform="translate(10.887)">
            <path id="Path_15541" data-name="Path 15541" d="M3130.545,1014.1a1.42,1.42,0,0,1-1.418-1.417V987.907a1.417,1.417,0,0,1,2.835,0v24.775A1.42,1.42,0,0,1,3130.545,1014.1Z" transform="translate(-3129.127 -986.49)" fill="#bd342c"/>
          </g>
          <g id="Group_4866" data-name="Group 4866" transform="translate(16.328)">
            <path id="Path_15542" data-name="Path 15542" d="M3137.706,1014.1a1.42,1.42,0,0,1-1.417-1.417V987.907a1.417,1.417,0,1,1,2.834,0v24.775A1.42,1.42,0,0,1,3137.706,1014.1Z" transform="translate(-3136.289 -986.49)" fill="#bd342c"/>
          </g>
          <g id="Group_4867" data-name="Group 4867" transform="translate(21.769)">
            <path id="Path_15543" data-name="Path 15543" d="M3144.867,1014.1a1.42,1.42,0,0,1-1.417-1.417V987.907a1.417,1.417,0,0,1,2.834,0v24.775A1.42,1.42,0,0,1,3144.867,1014.1Z" transform="translate(-3143.45 -986.49)" fill="#bd342c"/>
          </g>
          <g id="Group_4868" data-name="Group 4868" transform="translate(27.211)">
            <path id="Path_15544" data-name="Path 15544" d="M3152.029,1014.1a1.419,1.419,0,0,1-1.417-1.417V987.907a1.417,1.417,0,0,1,2.834,0v24.775A1.42,1.42,0,0,1,3152.029,1014.1Z" transform="translate(-3150.612 -986.49)" fill="#bd342c"/>
          </g>
        </g>
        <g id="Group_4871" data-name="Group 4871" transform="translate(3108.697 739.873)">
          <g id="Group_4870" data-name="Group 4870">
            <path id="Path_15545" data-name="Path 15545" d="M3134.122,928.428a1.419,1.419,0,0,1-1.417-1.417v-40a1.417,1.417,0,0,1,2.834,0v40A1.419,1.419,0,0,1,3134.122,928.428Z" transform="translate(-3132.705 -885.598)" fill="#bd342c"/>
          </g>
        </g>
        <g id="Group_4873" data-name="Group 4873" transform="translate(3095.092 805.159)">
          <g id="Group_4872" data-name="Group 4872">
            <path id="Path_15546" data-name="Path 15546" d="M3143.426,985.729h-27.21a1.419,1.419,0,0,1-1.417-1.417V972.943a1.42,1.42,0,0,1,1.417-1.417h27.21a1.42,1.42,0,0,1,1.417,1.417v11.369A1.42,1.42,0,0,1,3143.426,985.729Zm-25.793-2.834h24.376V974.36h-24.376Z" transform="translate(-3114.798 -971.526)" fill="#bd342c"/>
          </g>
        </g>
        <g id="Group_4875" data-name="Group 4875" transform="translate(3102.376 779.869)">
          <g id="Group_4874" data-name="Group 4874">
            <path id="Path_15547" data-name="Path 15547" d="M3132.124,953.717a7.738,7.738,0,1,1,7.737-7.737A7.746,7.746,0,0,1,3132.124,953.717Zm0-12.643a4.9,4.9,0,1,0,4.9,4.905A4.907,4.907,0,0,0,3132.124,941.074Z" transform="translate(-3124.385 -938.24)" fill="#bd342c"/>
          </g>
        </g>
        <g id="Group_4877" data-name="Group 4877" transform="translate(3102.376 354.903)">
          <g id="Group_4876" data-name="Group 4876" transform="translate(0 0)">
            <path id="Path_15548" data-name="Path 15548" d="M3132.124,394.387a7.739,7.739,0,1,1,7.737-7.738A7.746,7.746,0,0,1,3132.124,394.387Zm0-12.645a4.905,4.905,0,1,0,4.9,4.907A4.909,4.909,0,0,0,3132.124,381.742Z" transform="translate(-3124.385 -378.908)" fill="#bd342c"/>
          </g>
        </g>
        <g id="Group_4879" data-name="Group 4879" transform="translate(3102.376 792.512)">
          <g id="Group_4878" data-name="Group 4878">
            <path id="Path_15549" data-name="Path 15549" d="M3132.124,970.361a7.741,7.741,0,1,1,7.737-7.738A7.745,7.745,0,0,1,3132.124,970.361Zm0-12.647a4.907,4.907,0,1,0,4.9,4.91A4.911,4.911,0,0,0,3132.124,957.714Z" transform="translate(-3124.385 -954.88)" fill="#bd342c"/>
          </g>
        </g>
      </g>
      <g id="Group_4914" data-name="Group 4914" transform="translate(-3072.117 8122.473)">
        <g id="Group_4845-2" data-name="Group 4845" transform="translate(3032.767 383.883)">
          <g id="Group_4840-2" data-name="Group 4840" transform="translate(0 16.79)">
            <g id="Group_4833-2" data-name="Group 4833">
              <g id="Group_4832-2" data-name="Group 4832">
                <path id="Path_15527-2" data-name="Path 15527" d="M3124.38,572.59c-50.514,0-91.613-35.526-91.613-79.193s41.1-79.19,91.613-79.19S3216,449.732,3216,493.4,3174.9,572.59,3124.38,572.59Zm0-155.026c-48.665,0-88.257,34.019-88.257,75.833s39.591,75.836,88.257,75.836,88.262-34.019,88.262-75.836S3173.051,417.565,3124.38,417.565Z" transform="translate(-3032.767 -414.208)" fill="#bd342c"/>
              </g>
            </g>
            <g id="Group_4836-2" data-name="Group 4836" transform="translate(29.593 0)">
              <g id="Group_4835-2" data-name="Group 4835">
                <g id="Group_4834-2" data-name="Group 4834">
                  <path id="Path_15528-2" data-name="Path 15528" d="M3127.672,572.59a1.689,1.689,0,0,1-.479-.068c-.616-.187-61.54-19.1-61.54-79.124,0-55.988,60.826-78.861,61.443-79.087a1.677,1.677,0,0,1,1.179.009c.611.237,61.417,24.143,61.417,79.078,0,60.02-60.924,78.937-61.54,79.124A1.7,1.7,0,0,1,3127.672,572.59Zm-.013-154.9c-6.189,2.475-58.649,24.99-58.649,75.7,0,54.762,53.011,73.876,58.663,75.75,5.645-1.882,58.662-21.044,58.662-75.75C3186.334,443.635,3133.841,420.266,3127.658,417.693Z" transform="translate(-3065.652 -414.208)" fill="#bd342c"/>
                </g>
              </g>
            </g>
            <g id="Group_4839-2" data-name="Group 4839" transform="translate(63.54 0)">
              <g id="Group_4838-2" data-name="Group 4838">
                <g id="Group_4837-2" data-name="Group 4837">
                  <path id="Path_15529-2" data-name="Path 15529" d="M3131.448,572.59a1.676,1.676,0,0,1-.944-.292c-1.109-.757-27.129-19.235-27.129-78.9,0-55.608,25.9-77.879,27-78.8a1.678,1.678,0,0,1,2.182.026c1.1.964,26.964,24.221,26.964,78.773,0,59.666-26.02,78.144-27.127,78.9A1.677,1.677,0,0,1,3131.448,572.59Zm-.02-154.373c-4.93,4.943-24.7,27.745-24.7,75.181,0,51.461,20.061,71.44,24.709,75.374,4.642-3.957,24.722-24.067,24.722-75.374C3156.162,446.788,3136.332,423.308,3131.428,418.217Z" transform="translate(-3103.375 -414.208)" fill="#bd342c"/>
                </g>
              </g>
            </g>
          </g>
          <g id="Group_4842-2" data-name="Group 4842" transform="translate(69.919 0)">
            <g id="Group_4841-2" data-name="Group 4841">
              <path id="Path_15530-2" data-name="Path 15530" d="M3152.172,417.3h-1.7a104.366,104.366,0,0,0-36.333-.027l-2,.027a1.68,1.68,0,0,1-1.679-1.678V401.579a6.039,6.039,0,0,1,6.031-6.029h31.331a6.033,6.033,0,0,1,6.025,6.029v14.047A1.68,1.68,0,0,1,3152.172,417.3Zm-38.352-3.357h.026a107.292,107.292,0,0,1,36.648-.023V401.579a2.676,2.676,0,0,0-2.668-2.672h-31.331a2.677,2.677,0,0,0-2.674,2.672Z" transform="translate(-3110.463 -395.551)" fill="#bd342c"/>
            </g>
          </g>
          <g id="Group_4844-2" data-name="Group 4844" transform="translate(69.919 170.206)">
            <g id="Group_4843-2" data-name="Group 4843">
              <path id="Path_15531-2" data-name="Path 15531" d="M3147.825,606.444h-31.331a6.038,6.038,0,0,1-6.031-6.029V586.367a1.68,1.68,0,0,1,1.679-1.678h1.7a104.389,104.389,0,0,0,36.333.026l1.993-.026a1.68,1.68,0,0,1,1.678,1.678v14.048A6.032,6.032,0,0,1,3147.825,606.444Zm-34.005-18.376v12.348a2.676,2.676,0,0,0,2.674,2.672h31.331a2.676,2.676,0,0,0,2.668-2.672l-.02-12.37A106.921,106.921,0,0,1,3113.82,588.068Z" transform="translate(-3110.463 -584.689)" fill="#bd342c"/>
            </g>
          </g>
        </g>
        <g id="Group_4847-2" data-name="Group 4847" transform="translate(3122.702 572.488)">
          <g id="Group_4846-2" data-name="Group 4846">
            <path id="Path_15532-2" data-name="Path 15532" d="M3134.383,672.057a1.679,1.679,0,0,1-1.678-1.678V606.812a1.678,1.678,0,1,1,3.356,0v63.567A1.679,1.679,0,0,1,3134.383,672.057Z" transform="translate(-3132.705 -605.134)" fill="#bd342c"/>
          </g>
        </g>
        <g id="Group_4849-2" data-name="Group 4849" transform="translate(3122.702 278.982)">
          <g id="Group_4848-2" data-name="Group 4848">
            <path id="Path_15533-2" data-name="Path 15533" d="M3134.383,372.263a1.679,1.679,0,0,1-1.678-1.678V280.66a1.678,1.678,0,1,1,3.356,0v89.924A1.679,1.679,0,0,1,3134.383,372.263Z" transform="translate(-3132.705 -278.982)" fill="#bd342c"/>
          </g>
        </g>
        <g id="Group_4858-2" data-name="Group 4858" transform="translate(3032.767 652.838)">
          <g id="Group_4851-2" data-name="Group 4851" transform="translate(0 0.003)">
            <g id="Group_4850-2" data-name="Group 4850">
              <path id="Path_15534-2" data-name="Path 15534" d="M3124.38,852.814c-50.514,0-91.613-35.527-91.613-79.2s41.1-79.193,91.613-79.193S3216,729.952,3216,773.618,3174.9,852.814,3124.38,852.814Zm0-155.033c-48.665,0-88.257,34.019-88.257,75.837s39.591,75.839,88.257,75.839,88.262-34.023,88.262-75.839S3173.051,697.781,3124.38,697.781Z" transform="translate(-3032.767 -694.425)" fill="#bd342c"/>
            </g>
          </g>
          <g id="Group_4854-2" data-name="Group 4854" transform="translate(29.593)">
            <g id="Group_4853-2" data-name="Group 4853">
              <g id="Group_4852-2" data-name="Group 4852">
                <path id="Path_15535-2" data-name="Path 15535" d="M3127.672,852.813a1.66,1.66,0,0,1-.479-.073c-.616-.184-61.54-19.1-61.54-79.123,0-55.988,60.826-78.865,61.443-79.091a1.643,1.643,0,0,1,1.179.009c.611.237,61.417,24.146,61.417,79.082,0,60.019-60.924,78.94-61.54,79.123A1.668,1.668,0,0,1,3127.672,852.813Zm-.013-154.9c-6.189,2.475-58.649,24.994-58.649,75.708,0,54.756,53.011,73.872,58.663,75.754,5.645-1.882,58.662-21.052,58.662-75.754C3186.334,723.812,3133.841,700.479,3127.658,697.909Z" transform="translate(-3065.652 -694.421)" fill="#bd342c"/>
              </g>
            </g>
          </g>
          <g id="Group_4857-2" data-name="Group 4857" transform="translate(63.54 0.003)">
            <g id="Group_4856-2" data-name="Group 4856">
              <g id="Group_4855-2" data-name="Group 4855">
                <path id="Path_15536-2" data-name="Path 15536" d="M3131.448,852.814a1.7,1.7,0,0,1-.951-.3c-1.1-.753-27.121-19.242-27.121-78.9,0-55.608,25.9-77.881,27-78.8a1.679,1.679,0,0,1,2.182.026c1.1.964,26.964,24.225,26.964,78.777,0,59.658-26.02,78.147-27.121,78.9A1.69,1.69,0,0,1,3131.448,852.814Zm-.02-154.38c-4.93,4.943-24.7,27.748-24.7,75.183,0,51.287,20.067,71.407,24.716,75.374,4.648-3.968,24.715-24.087,24.715-75.374C3156.162,727.008,3136.332,703.525,3131.428,698.434Z" transform="translate(-3103.375 -694.425)" fill="#bd342c"/>
              </g>
            </g>
          </g>
        </g>
        <g id="Group_4860-2" data-name="Group 4860" transform="translate(3102.686 636.054)">
          <g id="Group_4859-2" data-name="Group 4859">
            <path id="Path_15537-2" data-name="Path 15537" d="M3152.172,697.524h-1.7a104.363,104.363,0,0,0-36.333-.027l-2,.027a1.681,1.681,0,0,1-1.679-1.679V681.8a6.038,6.038,0,0,1,6.031-6.028h31.331a6.032,6.032,0,0,1,6.025,6.028v14.046A1.68,1.68,0,0,1,3152.172,697.524Zm-38.352-3.358h.026a106.731,106.731,0,0,1,36.648-.023V681.8a2.675,2.675,0,0,0-2.668-2.672h-31.331a2.676,2.676,0,0,0-2.674,2.672Z" transform="translate(-3110.463 -675.771)" fill="#bd342c"/>
          </g>
        </g>
        <g id="Group_4862-2" data-name="Group 4862" transform="translate(3102.686 806.261)">
          <g id="Group_4861-2" data-name="Group 4861">
            <path id="Path_15538-2" data-name="Path 15538" d="M3147.825,886.662h-31.331a6.036,6.036,0,0,1-6.031-6.026V866.587a1.681,1.681,0,0,1,1.679-1.678h1.7a103.782,103.782,0,0,0,36.333.026l1.993-.026a1.681,1.681,0,0,1,1.678,1.678v14.048A6.03,6.03,0,0,1,3147.825,886.662Zm-34.005-18.377v12.351a2.676,2.676,0,0,0,2.674,2.669h31.331a2.676,2.676,0,0,0,2.668-2.669l-.02-12.37A106.518,106.518,0,0,1,3113.82,868.284Z" transform="translate(-3110.463 -864.909)" fill="#bd342c"/>
          </g>
        </g>
        <g id="Group_4869-2" data-name="Group 4869" transform="translate(3106.587 915.672)">
          <g id="Group_4863-2" data-name="Group 4863">
            <path id="Path_15539-2" data-name="Path 15539" d="M3116.477,1019.192a1.681,1.681,0,0,1-1.678-1.678V988.168a1.678,1.678,0,1,1,3.357,0v29.345A1.682,1.682,0,0,1,3116.477,1019.192Z" transform="translate(-3114.798 -986.49)" fill="#bd342c"/>
          </g>
          <g id="Group_4864-2" data-name="Group 4864" transform="translate(6.444)">
            <path id="Path_15540-2" data-name="Path 15540" d="M3123.637,1019.192a1.682,1.682,0,0,1-1.678-1.678V988.168a1.678,1.678,0,1,1,3.357,0v29.345A1.682,1.682,0,0,1,3123.637,1019.192Z" transform="translate(-3121.959 -986.49)" fill="#bd342c"/>
          </g>
          <g id="Group_4865-2" data-name="Group 4865" transform="translate(12.895)">
            <path id="Path_15541-2" data-name="Path 15541" d="M3130.806,1019.192a1.682,1.682,0,0,1-1.679-1.678V988.168a1.679,1.679,0,0,1,3.358,0v29.345A1.682,1.682,0,0,1,3130.806,1019.192Z" transform="translate(-3129.127 -986.49)" fill="#bd342c"/>
          </g>
          <g id="Group_4866-2" data-name="Group 4866" transform="translate(19.34)">
            <path id="Path_15542-2" data-name="Path 15542" d="M3137.967,1019.192a1.682,1.682,0,0,1-1.678-1.678V988.168a1.678,1.678,0,1,1,3.356,0v29.345A1.682,1.682,0,0,1,3137.967,1019.192Z" transform="translate(-3136.289 -986.49)" fill="#bd342c"/>
          </g>
          <g id="Group_4867-2" data-name="Group 4867" transform="translate(25.784)">
            <path id="Path_15543-2" data-name="Path 15543" d="M3145.128,1019.192a1.682,1.682,0,0,1-1.678-1.678V988.168a1.678,1.678,0,1,1,3.357,0v29.345A1.682,1.682,0,0,1,3145.128,1019.192Z" transform="translate(-3143.45 -986.49)" fill="#bd342c"/>
          </g>
          <g id="Group_4868-2" data-name="Group 4868" transform="translate(32.229)">
            <path id="Path_15544-2" data-name="Path 15544" d="M3152.291,1019.192a1.681,1.681,0,0,1-1.679-1.678V988.168a1.678,1.678,0,0,1,3.357,0v29.345A1.682,1.682,0,0,1,3152.291,1019.192Z" transform="translate(-3150.612 -986.49)" fill="#bd342c"/>
          </g>
        </g>
        <g id="Group_4871-2" data-name="Group 4871" transform="translate(3122.702 824.879)">
          <g id="Group_4870-2" data-name="Group 4870">
            <path id="Path_15545-2" data-name="Path 15545" d="M3134.383,936.327a1.681,1.681,0,0,1-1.678-1.678V887.276a1.678,1.678,0,0,1,3.356,0v47.373A1.681,1.681,0,0,1,3134.383,936.327Z" transform="translate(-3132.705 -885.598)" fill="#bd342c"/>
          </g>
        </g>
        <g id="Group_4873-2" data-name="Group 4873" transform="translate(3106.587 902.206)">
          <g id="Group_4872-2" data-name="Group 4872">
            <path id="Path_15546-2" data-name="Path 15546" d="M3148.706,988.349h-32.229a1.681,1.681,0,0,1-1.678-1.678V973.2a1.682,1.682,0,0,1,1.678-1.678h32.229a1.682,1.682,0,0,1,1.678,1.678V986.67A1.682,1.682,0,0,1,3148.706,988.349Zm-30.551-3.357h28.873V974.883h-28.873Z" transform="translate(-3114.798 -971.526)" fill="#bd342c"/>
          </g>
        </g>
        <g id="Group_4875-2" data-name="Group 4875" transform="translate(3115.215 872.252)">
          <g id="Group_4874-2" data-name="Group 4874">
            <path id="Path_15547-2" data-name="Path 15547" d="M3133.551,956.571a9.165,9.165,0,1,1,9.164-9.165A9.174,9.174,0,0,1,3133.551,956.571Zm0-14.974a5.809,5.809,0,1,0,5.808,5.81A5.812,5.812,0,0,0,3133.551,941.6Z" transform="translate(-3124.385 -938.24)" fill="#bd342c"/>
          </g>
        </g>
        <g id="Group_4877-2" data-name="Group 4877" transform="translate(3115.215 368.906)">
          <g id="Group_4876-2" data-name="Group 4876" transform="translate(0 0)">
            <path id="Path_15548-2" data-name="Path 15548" d="M3133.551,397.242a9.167,9.167,0,1,1,9.164-9.166A9.174,9.174,0,0,1,3133.551,397.242Zm0-14.977a5.81,5.81,0,1,0,5.808,5.812A5.814,5.814,0,0,0,3133.551,382.265Z" transform="translate(-3124.385 -378.908)" fill="#bd342c"/>
          </g>
        </g>
        <g id="Group_4879-2" data-name="Group 4879" transform="translate(3115.215 887.226)">
          <g id="Group_4878-2" data-name="Group 4878">
            <path id="Path_15549-2" data-name="Path 15549" d="M3133.551,973.216a9.168,9.168,0,1,1,9.164-9.165A9.173,9.173,0,0,1,3133.551,973.216Zm0-14.98a5.812,5.812,0,1,0,5.808,5.815A5.817,5.817,0,0,0,3133.551,958.237Z" transform="translate(-3124.385 -954.88)" fill="#bd342c"/>
          </g>
        </g>
      </g>
      <g id="Group_4912" data-name="Group 4912" transform="translate(559.554 6249.419)">
        <g id="Group_4881" data-name="Group 4881">
          <path id="Path_15550" data-name="Path 15550" d="M-314.568,579.35h4.235c-6.516-8.68-13.9-46.027-13.9-102.3s7.386-93.626,13.9-102.3h-4.234c-8.822,15.252-13.4,58.987-13.4,102.3S-323.389,564.1-314.568,579.35Z" fill="#bc322a"/>
          <path id="Path_15551" data-name="Path 15551" d="M-304.727,579.35h4.234c8.821-15.253,13.4-58.986,13.4-102.3s-4.577-87.053-13.4-102.3h-4.235c6.516,8.679,13.9,46.027,13.9,102.3S-298.212,570.67-304.727,579.35Z" fill="#bc322a"/>
          <path id="Path_15552" data-name="Path 15552" d="M-336.165,579.35h16.043c-30.134-9.365-52.949-51.67-52.949-102.3s22.816-92.941,52.952-102.3h-16.046v-1.811a108.168,108.168,0,0,0-79.342,104.116,108.167,108.167,0,0,0,79.342,104.115Zm-75.612-102.3A104.429,104.429,0,0,1-331.028,375.47C-357.693,390.5-376.8,430.361-376.8,477.047s19.108,86.542,45.773,101.576A104.428,104.428,0,0,1-411.777,477.047Z" fill="#bc322a"/>
          <path id="Path_15553" data-name="Path 15553" d="M-278.893,372.932v1.81H-294.94c30.138,9.364,52.954,51.67,52.954,102.3s-22.815,92.938-52.952,102.3h16.045v1.811a108.166,108.166,0,0,0,79.339-104.114A108.168,108.168,0,0,0-278.893,372.932Zm-5.136,205.69c26.665-15.034,45.773-54.89,45.773-101.575s-19.108-86.542-45.773-101.577a104.43,104.43,0,0,1,80.745,101.577A104.427,104.427,0,0,1-284.029,578.622Z" fill="#bc322a"/>
        </g>
        <g id="Group_4883" data-name="Group 4883">
          <g id="Group_4882" data-name="Group 4882">
            <path id="Path_15554" data-name="Path 15554" d="M-278.892,376.606h-57.273a1.864,1.864,0,0,1-1.865-1.865v-18.9a4.935,4.935,0,0,1,4.932-4.932h51.138a4.935,4.935,0,0,1,4.933,4.932v18.9A1.864,1.864,0,0,1-278.892,376.606Zm-55.408-3.73h53.543V355.844a1.2,1.2,0,0,0-1.2-1.2H-333.1a1.2,1.2,0,0,0-1.2,1.2Z" fill="#bc322a"/>
          </g>
        </g>
        <g id="Group_4885" data-name="Group 4885">
          <g id="Group_4884" data-name="Group 4884">
            <path id="Path_15555" data-name="Path 15555" d="M-281.96,603.182H-333.1a4.939,4.939,0,0,1-4.932-4.936v-18.9a1.864,1.864,0,0,1,1.865-1.865h57.273a1.865,1.865,0,0,1,1.865,1.865v18.9A4.939,4.939,0,0,1-281.96,603.182Zm-52.34-21.969v17.033a1.2,1.2,0,0,0,1.2,1.206h51.138a1.2,1.2,0,0,0,1.2-1.206V581.213Z" fill="#bc322a"/>
          </g>
        </g>
        <g id="Group_4887" data-name="Group 4887">
          <g id="Group_4886" data-name="Group 4886">
            <rect id="Rectangle_673" data-name="Rectangle 673" width="3.73" height="56.879" transform="translate(-309.395 614.386)" fill="#bc322a"/>
          </g>
        </g>
        <g id="Group_4889" data-name="Group 4889">
          <g id="Group_4888" data-name="Group 4888">
            <path id="Path_15556" data-name="Path 15556" d="M-307.53,706.97a1.863,1.863,0,0,1-1.319-.547L-325.765,689.5a1.864,1.864,0,0,1,0-2.638l16.916-16.919a1.918,1.918,0,0,1,2.637,0l16.92,16.919a1.864,1.864,0,0,1,0,2.638l-16.92,16.919A1.861,1.861,0,0,1-307.53,706.97Zm-14.279-18.785,14.279,14.283,14.282-14.283L-307.53,673.9Z" fill="#bc322a"/>
          </g>
        </g>
        <g id="Group_4891" data-name="Group 4891">
          <g id="Group_4890" data-name="Group 4890">
            <rect id="Rectangle_674" data-name="Rectangle 674" width="3.73" height="62.044" transform="translate(-309.414 705.105)" fill="#bc322a"/>
          </g>
        </g>
        <g id="Group_4893" data-name="Group 4893">
          <g id="Group_4892" data-name="Group 4892">
            <path id="Path_15557" data-name="Path 15557" d="M-293.856,703.724a1.86,1.86,0,0,1-1.319-.546l-27.348-27.348a1.864,1.864,0,0,1,0-2.638,1.865,1.865,0,0,1,2.637,0l27.349,27.349a1.865,1.865,0,0,1,0,2.637A1.862,1.862,0,0,1-293.856,703.724Z" fill="#bc322a"/>
          </g>
        </g>
        <g id="Group_4895" data-name="Group 4895">
          <g id="Group_4894" data-name="Group 4894">
            <path id="Path_15558" data-name="Path 15558" d="M-321.2,703.724a1.858,1.858,0,0,1-1.318-.546,1.863,1.863,0,0,1,0-2.637l27.348-27.349a1.866,1.866,0,0,1,2.638,0,1.866,1.866,0,0,1,0,2.638l-27.349,27.348A1.86,1.86,0,0,1-321.2,703.724Z" fill="#bc322a"/>
          </g>
        </g>
        <g id="Group_4897" data-name="Group 4897">
          <g id="Group_4896" data-name="Group 4896">
            <path id="Path_15559" data-name="Path 15559" d="M-296.118,807.476h-22.821a1.864,1.864,0,0,1-1.865-1.865V791.634a13.29,13.29,0,0,1,13.274-13.277,13.291,13.291,0,0,1,13.277,13.277v13.977A1.864,1.864,0,0,1-296.118,807.476Zm-20.956-3.73h19.091V791.634a9.559,9.559,0,0,0-9.547-9.547,9.556,9.556,0,0,0-9.544,9.547Z" fill="#bc322a"/>
          </g>
        </g>
        <g id="Group_4899" data-name="Group 4899">
          <g id="Group_4898" data-name="Group 4898">
            <path id="Path_15560" data-name="Path 15560" d="M-318.939,840.018a1.864,1.864,0,0,1-1.865-1.865V805.611a1.864,1.864,0,0,1,1.865-1.865,1.864,1.864,0,0,1,1.865,1.865v32.542A1.864,1.864,0,0,1-318.939,840.018Z" fill="#bc322a"/>
          </g>
        </g>
        <g id="Group_4901" data-name="Group 4901">
          <g id="Group_4900" data-name="Group 4900">
            <path id="Path_15561" data-name="Path 15561" d="M-307.53,840.018a1.864,1.864,0,0,1-1.865-1.865V805.611a1.864,1.864,0,0,1,1.865-1.865,1.864,1.864,0,0,1,1.865,1.865v32.542A1.864,1.864,0,0,1-307.53,840.018Z" fill="#bc322a"/>
          </g>
        </g>
        <g id="Group_4903" data-name="Group 4903">
          <g id="Group_4902" data-name="Group 4902">
            <path id="Path_15562" data-name="Path 15562" d="M-296.118,840.018a1.864,1.864,0,0,1-1.865-1.865V805.611a1.864,1.864,0,0,1,1.865-1.865,1.864,1.864,0,0,1,1.865,1.865v32.542A1.864,1.864,0,0,1-296.118,840.018Z" fill="#bc322a"/>
          </g>
        </g>
        <g id="Group_4905" data-name="Group 4905">
          <g id="Group_4904" data-name="Group 4904">
            <path id="Path_15563" data-name="Path 15563" d="M-307.574,782.087a8.407,8.407,0,0,1-8.4-8.4,8.41,8.41,0,0,1,8.4-8.4,8.41,8.41,0,0,1,8.4,8.4A8.407,8.407,0,0,1-307.574,782.087Zm0-13.073a4.677,4.677,0,0,0-4.67,4.673,4.675,4.675,0,0,0,4.67,4.67,4.674,4.674,0,0,0,4.669-4.67A4.677,4.677,0,0,0-307.574,769.014Z" fill="#bc322a"/>
          </g>
        </g>
        <g id="Group_4907" data-name="Group 4907">
          <g id="Group_4906" data-name="Group 4906">
            <path id="Path_15564" data-name="Path 15564" d="M-307.567,354.642a10.788,10.788,0,0,1-10.775-10.775,10.787,10.787,0,0,1,10.775-10.775,10.787,10.787,0,0,1,10.778,10.775A10.788,10.788,0,0,1-307.567,354.642Zm0-17.82a7.055,7.055,0,0,0-7.045,7.045,7.056,7.056,0,0,0,7.045,7.045,7.056,7.056,0,0,0,7.048-7.045A7.055,7.055,0,0,0-307.567,336.822Z" fill="#bc322a"/>
          </g>
        </g>
        <g id="Group_4909" data-name="Group 4909">
          <g id="Group_4908" data-name="Group 4908">
            <path id="Path_15565" data-name="Path 15565" d="M-307.567,336.822a1.864,1.864,0,0,1-1.865-1.865V280.446a1.864,1.864,0,0,1,1.865-1.865,1.864,1.864,0,0,1,1.865,1.865v54.511A1.864,1.864,0,0,1-307.567,336.822Z" fill="#bc322a"/>
          </g>
        </g>
        <g id="Group_4911" data-name="Group 4911">
          <g id="Group_4910" data-name="Group 4910">
            <path id="Path_15566" data-name="Path 15566" d="M-307.574,616.251a8.407,8.407,0,0,1-8.4-8.4,8.407,8.407,0,0,1,8.4-8.4,8.407,8.407,0,0,1,8.4,8.4A8.406,8.406,0,0,1-307.574,616.251Zm0-13.069a4.674,4.674,0,0,0-4.67,4.669,4.674,4.674,0,0,0,4.67,4.67,4.674,4.674,0,0,0,4.669-4.67A4.674,4.674,0,0,0-307.574,603.182Z" fill="#bc322a"/>
          </g>
        </g>
      </g>
      <g id="Group_4967" data-name="Group 4967" transform="translate(-856.18 8977.585)">
        <g id="Group_4921" data-name="Group 4921">
          <g id="Group_4916" data-name="Group 4916">
            <g id="Group_4915" data-name="Group 4915">
              <path id="Path_15567" data-name="Path 15567" d="M2619.1,548.743h-43.834a1.862,1.862,0,0,1-1.436-.673c-.772-.933-77.237-94.208-81.514-179.226-1.165-23.3,5.537-42.786,19.933-57.921C2530.339,291.9,2555.276,286,2562.313,286h69.734c7.037,0,31.982,5.908,50.071,24.93,14.388,15.135,21.1,34.619,19.924,57.917-4.276,85.018-80.734,178.293-81.506,179.226A1.861,1.861,0,0,1,2619.1,548.743Zm0-1.865h0Zm-42.946-1.865h42.057c6.907-8.57,76.086-96.372,80.1-176.358,1.121-22.235-5.238-40.794-18.9-55.157-17.251-18.136-40.753-23.771-47.368-23.771h-69.734c-6.607,0-30.117,5.632-47.361,23.768-13.66,14.362-20.027,32.921-18.9,55.16C2500.061,448.641,2569.249,536.443,2576.155,545.013Z" fill="#b92f28"/>
            </g>
          </g>
          <g id="Group_4918" data-name="Group 4918">
            <g id="Group_4917" data-name="Group 4917">
              <path id="Path_15568" data-name="Path 15568" d="M2608.144,548.743h-21.921a1.869,1.869,0,0,1-1.726-1.151c-.379-.932-38.546-94.047-40.681-178.8-1.115-44.37,12.757-65.391,21.127-73.977,5.915-6.061,11.817-8.822,14.8-8.822h34.868c2.987,0,8.9,2.761,14.8,8.822,8.37,8.582,22.241,29.607,21.127,73.977-2.128,84.749-40.294,177.864-40.674,178.8A1.868,1.868,0,0,1,2608.144,548.743Zm-20.66-3.73h19.4c4.378-10.942,37.949-97.355,39.93-176.311,1.085-43-12.108-63.115-20.07-71.278-5.669-5.817-10.623-7.7-12.13-7.7h-34.868c-1.507,0-6.462,1.883-12.129,7.7-7.963,8.163-21.157,28.277-20.071,71.278C2549.535,447.658,2583.1,534.071,2587.484,545.013Z" fill="#b92f28"/>
            </g>
          </g>
          <g id="Group_4920" data-name="Group 4920">
            <g id="Group_4919" data-name="Group 4919">
              <path id="Path_15569" data-name="Path 15569" d="M2597.18,548.743a1.866,1.866,0,0,1-1.865-1.865V287.862a1.865,1.865,0,1,1,3.73,0V546.878A1.866,1.866,0,0,1,2597.18,548.743Z" fill="#b92f28"/>
            </g>
          </g>
        </g>
        <g id="Group_4923" data-name="Group 4923">
          <g id="Group_4922" data-name="Group 4922">
            <path id="Path_15570" data-name="Path 15570" d="M2619.414,572.977h-44.147a1.866,1.866,0,0,1-1.865-1.865V546.878a1.866,1.866,0,0,1,1.865-1.865h44.147a1.867,1.867,0,0,1,1.865,1.865v24.234A1.866,1.866,0,0,1,2619.414,572.977Zm-42.282-3.73h40.417v-20.5h-40.417Z" fill="#b92f28"/>
          </g>
        </g>
        <g id="Group_4925" data-name="Group 4925">
          <g id="Group_4924" data-name="Group 4924">
            <path id="Path_15571" data-name="Path 15571" d="M2631.493,289.7h-68.626A1.866,1.866,0,0,1,2561,287.84V264.062a1.866,1.866,0,0,1,1.865-1.865h68.626a1.866,1.866,0,0,1,1.865,1.865V287.84A1.866,1.866,0,0,1,2631.493,289.7Zm-66.761-3.73h64.9V265.927h-64.9Z" fill="#b92f28"/>
          </g>
        </g>
        <g id="Group_4927" data-name="Group 4927">
          <g id="Group_4926" data-name="Group 4926">
            <path id="Path_15572" data-name="Path 15572" d="M2609.462,586.284h-24.245a1.867,1.867,0,0,1-1.865-1.865V571.112a1.867,1.867,0,0,1,1.865-1.865h24.245a1.866,1.866,0,0,1,1.865,1.865v13.307A1.866,1.866,0,0,1,2609.462,586.284Zm-22.38-3.73H2607.6v-9.577h-20.515Z" fill="#b92f28"/>
          </g>
        </g>
        <g id="Group_4929" data-name="Group 4929">
          <g id="Group_4928" data-name="Group 4928">
            <rect id="Rectangle_675" data-name="Rectangle 675" width="3.73" height="52.628" transform="translate(2595.475 584.186)" fill="#b92f28"/>
          </g>
        </g>
        <g id="Group_4931" data-name="Group 4931">
          <g id="Group_4930" data-name="Group 4930">
            <rect id="Rectangle_676" data-name="Rectangle 676" width="3.73" height="50.34" transform="translate(2595.457 679.148)" fill="#b92f28"/>
          </g>
        </g>
        <g id="Group_4954" data-name="Group 4954">
          <g id="Group_4933" data-name="Group 4933">
            <g id="Group_4932" data-name="Group 4932">
              <path id="Path_15573" data-name="Path 15573" d="M2597.34,681.013a1.863,1.863,0,0,1-1.318-.547L2574.851,659.3a1.865,1.865,0,0,1,0-2.637l21.171-21.167a1.862,1.862,0,0,1,1.318-.546h0a1.862,1.862,0,0,1,1.319.546l21.163,21.167a1.863,1.863,0,0,1,0,2.637l-21.163,21.167A1.863,1.863,0,0,1,2597.34,681.013Zm-18.533-23.032,18.533,18.53,18.526-18.53-18.526-18.53Z" fill="#b92f28"/>
            </g>
          </g>
          <g id="Group_4935" data-name="Group 4935">
            <g id="Group_4934" data-name="Group 4934">
              <path id="Path_15574" data-name="Path 15574" d="M2607.926,649.246a1.865,1.865,0,0,1-1.319-3.184,5.62,5.62,0,0,0-7.948-7.948,1.865,1.865,0,0,1-2.637-2.637,9.349,9.349,0,0,1,13.222,13.222A1.849,1.849,0,0,1,2607.926,649.246Z" fill="#b92f28"/>
            </g>
          </g>
          <g id="Group_4937" data-name="Group 4937">
            <g id="Group_4936" data-name="Group 4936">
              <path id="Path_15575" data-name="Path 15575" d="M2602.629,683.217a9.308,9.308,0,0,1-6.607-2.732,1.865,1.865,0,0,1,2.637-2.637,5.619,5.619,0,0,0,7.948-7.945,1.865,1.865,0,0,1,2.637-2.637,9.342,9.342,0,0,1-6.615,15.951Z" fill="#b92f28"/>
            </g>
          </g>
          <g id="Group_4939" data-name="Group 4939">
            <g id="Group_4938" data-name="Group 4938">
              <path id="Path_15576" data-name="Path 15576" d="M2576.155,659.846a1.852,1.852,0,0,1-1.319-.547,9.361,9.361,0,0,1,0-13.218,9.57,9.57,0,0,1,13.223,0,1.865,1.865,0,0,1-2.637,2.637,5.753,5.753,0,0,0-7.948,0,5.618,5.618,0,0,0,0,7.944,1.866,1.866,0,0,1-1.319,3.184Z" fill="#b92f28"/>
            </g>
          </g>
          <g id="Group_4941" data-name="Group 4941">
            <g id="Group_4940" data-name="Group 4940">
              <path id="Path_15577" data-name="Path 15577" d="M2618.526,659.846a1.866,1.866,0,0,1-1.319-3.184,5.619,5.619,0,0,0,0-7.944,5.753,5.753,0,0,0-7.948,0,1.865,1.865,0,0,1-2.637-2.637,9.569,9.569,0,0,1,13.222,0,9.361,9.361,0,0,1,0,13.218A1.85,1.85,0,0,1,2618.526,659.846Z" fill="#b92f28"/>
            </g>
          </g>
          <g id="Group_4943" data-name="Group 4943">
            <g id="Group_4942" data-name="Group 4942">
              <path id="Path_15578" data-name="Path 15578" d="M2592.044,683.22a9.344,9.344,0,0,1-6.608-15.954,1.865,1.865,0,0,1,2.638,2.637,5.619,5.619,0,0,0,7.948,7.945,1.865,1.865,0,0,1,2.637,2.637A9.33,9.33,0,0,1,2592.044,683.22Z" fill="#b92f28"/>
            </g>
          </g>
          <g id="Group_4945" data-name="Group 4945">
            <g id="Group_4944" data-name="Group 4944">
              <path id="Path_15579" data-name="Path 15579" d="M2586.755,649.246a1.852,1.852,0,0,1-1.319-.547,9.35,9.35,0,1,1,13.223-13.222,1.865,1.865,0,0,1-2.637,2.637,5.62,5.62,0,0,0-7.948,7.948,1.865,1.865,0,0,1-1.319,3.184Z" fill="#b92f28"/>
            </g>
          </g>
          <g id="Group_4947" data-name="Group 4947">
            <g id="Group_4946" data-name="Group 4946">
              <path id="Path_15580" data-name="Path 15580" d="M2613.229,672.621a9.326,9.326,0,0,1-6.607-2.736,1.865,1.865,0,0,1,2.637-2.637,5.62,5.62,0,0,0,7.948-7.949,1.865,1.865,0,0,1,2.637-2.637,9.347,9.347,0,0,1-6.615,15.959Z" fill="#b92f28"/>
            </g>
          </g>
          <g id="Group_4949" data-name="Group 4949">
            <g id="Group_4948" data-name="Group 4948">
              <path id="Path_15581" data-name="Path 15581" d="M2581.444,672.621a9.347,9.347,0,0,1-6.608-15.959,1.865,1.865,0,0,1,2.638,2.637,5.62,5.62,0,0,0,7.948,7.949,1.865,1.865,0,0,1,2.637,2.637A9.331,9.331,0,0,1,2581.444,672.621Z" fill="#b92f28"/>
            </g>
          </g>
          <g id="Group_4951" data-name="Group 4951">
            <g id="Group_4950" data-name="Group 4950">
              <path id="Path_15582" data-name="Path 15582" d="M2607.248,669.754a1.854,1.854,0,0,1-1.319-.546L2586.114,649.4a1.865,1.865,0,0,1,2.637-2.637l19.815,19.812a1.865,1.865,0,0,1-1.318,3.184Z" fill="#b92f28"/>
            </g>
          </g>
          <g id="Group_4953" data-name="Group 4953">
            <g id="Group_4952" data-name="Group 4952">
              <path id="Path_15583" data-name="Path 15583" d="M2587.432,669.754a1.865,1.865,0,0,1-1.318-3.184l19.815-19.812a1.865,1.865,0,0,1,2.637,2.637l-19.815,19.813A1.853,1.853,0,0,1,2587.432,669.754Z" fill="#b92f28"/>
            </g>
          </g>
        </g>
        <g id="Group_4956" data-name="Group 4956">
          <g id="Group_4955" data-name="Group 4955">
            <path id="Path_15584" data-name="Path 15584" d="M2608.748,769.812h-22.817a1.867,1.867,0,0,1-1.865-1.865V753.97a13.274,13.274,0,1,1,26.547,0v13.977A1.866,1.866,0,0,1,2608.748,769.812Zm-20.952-3.73h19.088V753.97a9.544,9.544,0,1,0-19.088,0Z" fill="#b92f28"/>
          </g>
        </g>
        <g id="Group_4958" data-name="Group 4958">
          <g id="Group_4957" data-name="Group 4957">
            <path id="Path_15585" data-name="Path 15585" d="M2585.931,802.354a1.867,1.867,0,0,1-1.865-1.865V767.947a1.865,1.865,0,1,1,3.73,0v32.542A1.866,1.866,0,0,1,2585.931,802.354Z" fill="#b92f28"/>
          </g>
        </g>
        <g id="Group_4960" data-name="Group 4960">
          <g id="Group_4959" data-name="Group 4959">
            <path id="Path_15586" data-name="Path 15586" d="M2597.34,802.354a1.866,1.866,0,0,1-1.865-1.865V767.947a1.865,1.865,0,1,1,3.73,0v32.542A1.866,1.866,0,0,1,2597.34,802.354Z" fill="#b92f28"/>
          </g>
        </g>
        <g id="Group_4962" data-name="Group 4962">
          <g id="Group_4961" data-name="Group 4961">
            <path id="Path_15587" data-name="Path 15587" d="M2608.748,802.354a1.865,1.865,0,0,1-1.864-1.865V767.947a1.865,1.865,0,1,1,3.729,0v32.542A1.866,1.866,0,0,1,2608.748,802.354Z" fill="#b92f28"/>
          </g>
        </g>
        <g id="Group_4964" data-name="Group 4964">
          <g id="Group_4963" data-name="Group 4963">
            <path id="Path_15588" data-name="Path 15588" d="M2597.3,744.423a8.4,8.4,0,1,1,8.4-8.4A8.407,8.407,0,0,1,2597.3,744.423Zm0-13.07a4.67,4.67,0,1,0,4.67,4.67A4.677,4.677,0,0,0,2597.3,731.353Z" fill="#b92f28"/>
          </g>
        </g>
        <g id="Group_4966" data-name="Group 4966">
          <g id="Group_4965" data-name="Group 4965">
            <path id="Path_15589" data-name="Path 15589" d="M2597.34,265.927a1.866,1.866,0,0,1-1.865-1.865V134.28a1.865,1.865,0,1,1,3.73,0V264.062A1.866,1.866,0,0,1,2597.34,265.927Z" fill="#b92f28"/>
          </g>
        </g>
      </g>
    </g>
  </g>
</svg>
