<svg xmlns="http://www.w3.org/2000/svg" width="786" height="100" viewBox="0 0 786 100">
  <g id="service" transform="translate(-6093 388)">
    <g id="Union_28" data-name="Union 28" transform="translate(6093 -388)" fill="#ffd1c0">
      <path d="M 740.999755859375 97.99995422363281 L 45.00004577636719 97.99995422363281 C 39.28734588623047 97.99995422363281 33.7928466796875 96.29084777832031 29.11054801940918 93.05744934082031 C 26.85304832458496 91.49845123291016 24.83864784240723 89.620849609375 23.12334823608398 87.47675323486328 C 21.39424705505371 85.31545257568359 20.00014686584473 82.9217529296875 18.97964668273926 80.36205291748047 L 18.6893482208252 79.63375091552734 L 17.98144721984863 79.2967529296875 C 13.26874732971191 77.05355072021484 9.279747009277344 73.54325103759766 6.445547580718994 69.14534759521484 C 3.5372474193573 64.63245391845703 2.000047445297241 59.3952522277832 2.000047445297241 53.99995040893555 L 2.000047445297241 45.99995040893555 C 2.000047445297241 40.60464859008789 3.5372474193573 35.36745071411133 6.445547580718994 30.85455131530762 C 9.279747009277344 26.45664978027344 13.26874732971191 22.94625091552734 17.98144721984863 20.70294952392578 L 18.6893482208252 20.36605072021484 L 18.97964668273926 19.63775062561035 C 20.00014686584473 17.07805061340332 21.39424705505371 14.68435001373291 23.12334823608398 12.52315044403076 C 24.83864784240723 10.37905025482178 26.85304832458496 8.501450538635254 29.11054801940918 6.942550182342529 C 33.7928466796875 3.709150314331055 39.28734588623047 2.00005030632019 45.00004577636719 2.00005030632019 L 740.999755859375 2.00005030632019 C 746.7134399414062 2.00005030632019 752.2084350585938 3.709050416946411 756.890625 6.94225025177002 C 759.1481323242188 8.501150131225586 761.1625366210938 10.37875080108643 762.8777465820312 12.52295017242432 C 764.6067504882812 14.684250831604 766.000732421875 17.07814979553223 767.0210571289062 19.63825035095215 L 767.3113403320312 20.36655044555664 L 768.0193481445312 20.70364952087402 C 772.73193359375 22.94684982299805 776.7208251953125 26.45705032348633 779.5547485351562 30.85474967956543 C 782.462646484375 35.36745071411133 783.999755859375 40.60454940795898 783.999755859375 45.99995040893555 L 783.999755859375 53.99995040893555 C 783.999755859375 59.39535140991211 782.462646484375 64.63245391845703 779.5547485351562 69.14514923095703 C 776.7208251953125 73.5428466796875 772.73193359375 77.05304718017578 768.0193481445312 79.29624938964844 L 767.3113403320312 79.63324737548828 L 767.0210571289062 80.36164855957031 C 766.000732421875 82.92165374755859 764.6067504882812 85.31565093994141 762.8777465820312 87.47695159912109 C 761.1625366210938 89.62114715576172 759.1481323242188 91.49874877929688 756.890625 93.05764770507812 C 752.2084350585938 96.29094696044922 746.7134399414062 97.99995422363281 740.999755859375 97.99995422363281 Z" stroke="none"/>
      <path d="M 740.999755859375 95.99995422363281 C 746.3055419921875 95.99995422363281 751.4075317382812 94.4134521484375 755.754150390625 91.41194915771484 C 757.8512573242188 89.96375274658203 759.7225341796875 88.21955108642578 761.31591796875 86.22765350341797 C 762.921630859375 84.22045135498047 764.216064453125 81.99774932861328 765.1631469726562 79.62125396728516 L 765.7438354492188 78.16445159912109 L 767.1597290039062 77.49044799804688 C 771.5364379882812 75.40715026855469 775.2411499023438 72.14675140380859 777.87353515625 68.06175231933594 C 780.5729370117188 63.87274932861328 781.999755859375 59.01025009155273 781.999755859375 53.99995040893555 L 781.999755859375 45.99995040893555 C 781.999755859375 40.98965072631836 780.5729370117188 36.12715148925781 777.87353515625 31.93815040588379 C 775.2411499023438 27.85315132141113 771.5364379882812 24.59275054931641 767.1597290039062 22.50945091247559 L 765.7437744140625 21.83545112609863 L 765.1631469726562 20.3786506652832 C 764.216064453125 18.00214958190918 762.921630859375 15.77935028076172 761.31591796875 13.77225017547607 C 759.7225341796875 11.78035068511963 757.8512573242188 10.0361499786377 755.7542724609375 8.588050842285156 C 751.4076538085938 5.586550235748291 746.3056640625 4.00005054473877 740.999755859375 4.00005054473877 L 45.00004577636719 4.00005054473877 C 39.69514846801758 4.00005054473877 34.59364700317383 5.586650371551514 30.24704742431641 8.588250160217285 C 28.14994812011719 10.03645038604736 26.27864646911621 11.78065013885498 24.6850471496582 13.77255058288574 C 23.07934761047363 15.77955055236816 21.78484725952148 18.00214958190918 20.83744812011719 20.37845039367676 L 20.2568473815918 21.8349494934082 L 18.8410472869873 22.50885009765625 C 14.46424770355225 24.59225082397461 10.7593469619751 27.85275077819824 8.126747131347656 31.93795013427734 C 5.427047252655029 36.12715148925781 4.000047206878662 40.98974990844727 4.000047206878662 45.99995040893555 L 4.000047206878662 53.99995040893555 C 4.000047206878662 59.01015090942383 5.427047252655029 63.87274932861328 8.126747131347656 68.06195068359375 C 10.7593469619751 72.14714813232422 14.46424770355225 75.40754699707031 18.8410472869873 77.49095153808594 L 20.2568473815918 78.16484832763672 L 20.83744812011719 79.62135314941406 C 21.78484725952148 81.99765014648438 23.07934761047363 84.22025299072266 24.6850471496582 86.22734832763672 C 26.27864646911621 88.21925354003906 28.14994812011719 89.96354675292969 30.24704742431641 91.41175079345703 C 34.59364700317383 94.41335296630859 39.69514846801758 95.99995422363281 45.00004577636719 95.99995422363281 L 740.999755859375 95.99995422363281 M 740.999755859375 99.99995422363281 L 45.00004577636719 99.99995422363281 C 32.35454559326172 99.99995422363281 21.53564834594727 92.17424774169922 17.12184715270996 81.10265350341797 C 6.997747421264648 76.28355407714844 4.741210796055384e-05 65.95884704589844 4.741210796055384e-05 53.99995040893555 L 4.741210796055384e-05 45.99995040893555 C 4.741210796055384e-05 34.04104995727539 6.997747421264648 23.71635055541992 17.12184715270996 18.89715003967285 C 21.53564834594727 7.825650215148926 32.35454559326172 5.040893665864132e-05 45.00004577636719 5.040893665864132e-05 L 740.999755859375 5.040893665864132e-05 C 753.64697265625 5.040893665864132e-05 764.4657592773438 7.824750423431396 768.8789672851562 18.89775085449219 C 779.0030517578125 23.71685028076172 785.999755859375 34.04104995727539 785.999755859375 45.99995040893555 L 785.999755859375 53.99995040893555 C 785.999755859375 65.95884704589844 779.0030517578125 76.28305053710938 768.8789672851562 81.10214996337891 C 764.4657592773438 92.175048828125 753.64697265625 99.99995422363281 740.999755859375 99.99995422363281 Z" stroke="none" fill="#a11010"/>
    </g>
    <g id="Group_5930" data-name="Group 5930" transform="translate(-15 -42)">
      <text id="客戶服務_事事都如意_虎虎有生氣" data-name="客戶服務｜事事都如意，虎虎有生氣" transform="translate(6501 -276)" fill="#a11010" font-size="45" font-family="NotoSerifCJKtc-Black, Noto Serif CJK TC" font-weight="800"><tspan x="-360" y="0">客戶服務｜事事都如意，虎虎有生氣</tspan></text>
    </g>
  </g>
</svg>
