<?xml version="1.0" encoding="utf-8"?>
<!-- Generator: Adobe Illustrator 23.0.3, SVG Export Plug-In . SVG Version: 6.00 Build 0)  -->
<svg version="1.1" id="圖層_1" xmlns="http://www.w3.org/2000/svg" xmlns:xlink="http://www.w3.org/1999/xlink" x="0px" y="0px"
	 viewBox="0 0 364.2 123" style="enable-background:new 0 0 364.2 123;" xml:space="preserve">
<style type="text/css">
	.st0{fill:#FFD400;}
</style>
<g>
	<polygon class="st0" points="82.3,58.2 86.6,52 106.1,52 112.1,44 92.1,44 98.4,34.8 87.3,34.8 81,44 50.6,44 56.8,35.2 45.9,35.2 
		39.8,44 23.7,44 17.7,52 34.3,52 8.6,89.2 19.5,89.2 38.8,60.7 55.4,78.2 60.8,70.3 44.3,52.9 44.9,52 75.5,52 50.3,88.8 
		61.2,88.8 76.9,66.1 99.2,88.8 112.4,88.8 	"/>
	<path class="st0" d="M78.7,89.3c-0.4,0.2-0.6,0.6-0.6,1.1v27.9c0,0.7,0.9,1.3,1.6,1.3s1.4-0.6,1.4-1.3V93.8L98.2,104l-12.9,8.2
		c-0.6,0.4-0.9,1.6-0.5,2.1c0.4,0.6,1.6,0.9,2.2,0.5l15.5-10c0.4-0.2,0.6-0.7,0.6-1.1s-0.2-0.8-0.6-1.1L80,89.3
		C79.6,89.1,79.1,89.1,78.7,89.3L78.7,89.3z"/>
	<g>
		<path class="st0" d="M60.9,122.6c-8.2,0-16.2-1.6-23.7-4.8c-7.2-3.1-13.7-7.4-19.3-13S8,92.7,4.9,85.4C1.7,77.9,0.1,70,0.1,61.8
			s1.6-16.2,4.8-23.7c3.1-7.2,7.4-13.7,13-19.3s12.1-10,19.3-13C44.7,2.6,52.7,1,60.9,1s16.2,1.6,23.7,4.8c7.2,3.1,13.7,7.4,19.3,13
			s10,12.1,13,19.3c3.2,7.5,4.8,15.5,4.8,23.7c0,14.9-5.4,29.2-15.3,40.3c-0.3,0.4-0.9,0.4-1.3,0.1s-0.4-0.9-0.1-1.3
			c9.5-10.8,14.8-24.6,14.8-39C119.8,29.4,93.4,3,60.9,3S2,29.3,2,61.8s26.4,58.9,58.9,58.9c3.9,0,7.7-0.4,11.5-1.1
			c0.5-0.1,1,0.2,1.1,0.7s-0.2,1-0.7,1.1C68.9,122.2,64.9,122.6,60.9,122.6z"/>
	</g>
</g>
<g>
	<path class="st0" d="M172.6,53.5c1.9,10.2,8.7,20,23.8,25.6l-0.1,0.7c-4.1,0.8-6.5,3.5-7.2,8.2c-11.7-7.5-15.8-21.2-17.2-32.4
		c-1.8,13.5-7.5,24.7-28.4,32.4l-0.4-0.7c15.2-9.8,19.3-20.9,20.4-33.7H144l-0.4-1.6h20c0.3-5.3,0.3-10.9,0.3-16.8l11.1,1
		c-0.2,0.9-0.7,1.4-2.1,1.6c-0.1,4.9-0.2,9.7-0.6,14.2h10.8l4.6-5.9c0,0,5.2,3.9,8.3,6.5c-0.2,0.6-0.8,0.9-1.7,0.9H172.6z"/>
	<path class="st0" d="M228.5,53.5c1.9,10.2,8.7,20,23.8,25.6l-0.1,0.7c-4.1,0.8-6.5,3.5-7.2,8.2c-11.7-7.5-15.8-21.2-17.2-32.4
		c-1.8,13.5-7.5,24.7-28.4,32.4l-0.4-0.7c15.2-9.8,19.3-20.9,20.4-33.7h-19.4l-0.4-1.6h20c0.3-5.3,0.3-10.9,0.3-16.8l11.1,1
		c-0.2,0.9-0.7,1.4-2.1,1.6c-0.1,4.9-0.2,9.7-0.6,14.2H239l4.6-5.9c0,0,5.2,3.9,8.3,6.5c-0.2,0.6-0.8,0.9-1.7,0.9H228.5z"/>
	<path class="st0" d="M271.8,42.5c0,0,3.2,2.5,5,4.3c-0.1,0.6-0.7,0.9-1.5,0.9h-19.8l-0.4-1.6h14L271.8,42.5z M267.8,53.2l2.6-3.5
		c0,0,3,2.4,4.7,4.1c-0.1,0.6-0.7,0.9-1.5,0.9h-16.3l-0.4-1.6H267.8z M257.4,62l-0.4-1.6h10.8l2.6-3.5c0,0,3,2.4,4.7,4.1
		c-0.1,0.6-0.7,0.9-1.5,0.9H257.4z M273.8,82.8c-0.1,0.5-3.4,2-5.7,2h-1.2v-2.9h-3v3.6c0,0.6-2.9,2.1-5.8,2.1h-0.9V64.9l6.9,2.7h2.3
		l3-3.2l6.1,4.6c-0.3,0.3-0.9,0.8-1.8,0.9V82.8z M259.2,36.3c16.3-0.6,10.1,12.2,3.2,7.7c-0.4-2.7-2-5.6-3.6-7.4L259.2,36.3z
		 M266.9,80.3V69.2h-3v11.1H266.9z M295,66.4c2.9,4.8,8.1,8.4,13.2,10.1l-0.1,0.6c-2.7,0.7-4.6,3.1-5.6,6.9
		c-4.5-3.7-6.9-9.2-8.5-16.6v18.8c-0.1,0.4-2.2,1.9-5.8,1.9H287V73.8c-3.2,4.3-7.5,7.8-12.9,10.6l-0.5-0.7
		c4.6-4.5,7.7-10.8,9.3-17.3h-7.7l-0.4-1.6H287v-6h-2.7v0.7c0,0.5-2.1,2-5.5,2h-1.2V36.1l7.4,2.8h11l3.2-3.5l6.6,5.1
		c-0.3,0.4-1.1,0.9-2.2,1.2v17.5c-0.1,0.2-0.6,0.4-1.4,0.7c0.7,0.6,4.1,3.6,6.1,5.6c-0.2,0.6-0.7,0.9-1.5,0.9H295z M284.3,40.5V48
		h3.2v-7.5H284.3z M284.3,57.3h3.2v-7.7h-3.2V57.3z M293.6,40.5V48h3v-7.5H293.6z M296.6,49.6h-3v7.7h3V49.6z M294.1,58.8v6h4.4
		l3.4-4.9c-1.2,0.4-2.8,0.8-4.1,0.8h-1.2v-1.9H294.1z"/>
	<path class="st0" d="M325.9,57.5c13.7,5.3,7,15.8,1.7,10.7c-0.1-2.7-0.8-5.6-1.7-8.2v25.9c0,0.4-2.4,2.1-6.1,2.1h-1.4V70.2
		c-2.1,3-4.7,5.7-7.5,8.1l-0.6-0.6c3.7-6.2,6.1-15,7.4-23.1h-6.5l-0.4-1.6h7.8v-8.9c-2.5,0.3-5.1,0.5-7.5,0.6l-0.2-0.6
		c5.4-2.3,12-6.5,15.2-9.4l8.4,7.2c-0.8,0.6-2.1,0.7-4,0.1c-1.3,0.3-2.7,0.6-4.4,0.9v9.2l2.6-3.9c0,0,3.6,3.2,5.6,5.3
		c-0.2,0.6-0.7,0.9-1.5,0.9h-6.8V57.5z M358.1,78.6c0,0,3.9,3.3,6.1,5.5c-0.2,0.6-0.7,0.9-1.6,0.9h-32.4l-0.4-1.6h13.2V73h-8.8
		l-0.4-1.6h9.2v-9.8h-9.7l-0.4-1.6h21l3.4-4.7c0,0,3.8,3.2,6,5.4c-0.1,0.6-0.7,0.9-1.5,0.9h-11.2v9.8h1.7l3.5-4.8
		c0,0,4.1,3.2,6.4,5.5c-0.2,0.6-0.7,0.9-1.6,0.9h-10.1v10.4h4.2L358.1,78.6z M342.1,54.9c0,0.7-3.2,2.3-6.3,2.3h-1.1V36.6l7.6,2.9
		h9.3l3.4-3.6l7,5.3c-0.3,0.4-1.1,0.9-2.2,1.2v11.5c-0.1,0.4-3.8,1.7-6.3,1.7h-1.3v-2.1h-10.1V54.9z M342.1,41v10.7h10.1V41H342.1z"
		/>
</g>
</svg>
