<?xml version="1.0" encoding="utf-8"?>
<!-- Generator: Adobe Illustrator 23.0.3, SVG Export Plug-In . SVG Version: 6.00 Build 0)  -->
<svg version="1.1" id="圖層_1" xmlns="http://www.w3.org/2000/svg" xmlns:xlink="http://www.w3.org/1999/xlink" x="0px" y="0px"
	 viewBox="0 0 80 17" style="enable-background:new 0 0 80 17;" xml:space="preserve">
<style type="text/css">
	.st0{fill:#FF8F1C;}
</style>
<path class="st0" d="M47.8,7c-0.1-0.4-0.3-0.8-0.5-1.2C46.7,4.9,46,4,45.2,3.3c-0.8-0.8-1.6-1.5-2.5-2.1c-0.8-0.5-1.7-0.7-2.7-0.7
	c-1,0-1.9,0.3-2.7,0.7c-0.9,0.6-1.8,1.3-2.5,2.1C34,4,33.3,4.9,32.7,5.8c-0.2,0.4-0.4,0.8-0.5,1.2H0v3h32.2c0.1,0.4,0.3,0.8,0.5,1.2
	c0.6,0.9,1.3,1.8,2.1,2.5c0.8,0.8,1.6,1.5,2.5,2.1c0.8,0.5,1.7,0.7,2.7,0.7c1,0,1.9-0.3,2.7-0.7c0.9-0.6,1.8-1.3,2.5-2.1
	c0.8-0.8,1.5-1.6,2.1-2.5c0.2-0.4,0.4-0.8,0.5-1.2H80V7H47.8z M44.4,10.1c-0.3,0.6-0.8,1.1-1.2,1.5c-0.5,0.5-1,0.9-1.5,1.2
	c-0.5,0.3-1,0.4-1.6,0.4c-0.6,0-1.1-0.2-1.6-0.4c-0.6-0.3-1.1-0.8-1.5-1.2c-0.5-0.5-0.9-1-1.2-1.5c0,0,0-0.1-0.1-0.1
	c-0.3-0.5-0.4-1-0.4-1.5c0-0.5,0.1-1,0.4-1.5c0,0,0-0.1,0.1-0.1c0.3-0.6,0.8-1.1,1.2-1.5c0.5-0.5,1-0.9,1.5-1.2
	c0.5-0.3,1-0.4,1.6-0.4c0.6,0,1.1,0.2,1.6,0.4c0.6,0.3,1.1,0.8,1.5,1.2c0.5,0.5,0.9,1,1.2,1.5c0,0,0,0.1,0.1,0.1
	c0.3,0.5,0.4,1,0.4,1.5c0,0.5-0.1,1-0.4,1.5C44.4,10,44.4,10.1,44.4,10.1z"/>
</svg>
