<?xml version="1.0" encoding="utf-8"?>
<!-- Generator: Adobe Illustrator 26.0.3, SVG Export Plug-In . SVG Version: 6.00 Build 0)  -->
<svg version="1.1" id="圖層_1" xmlns="http://www.w3.org/2000/svg" xmlns:xlink="http://www.w3.org/1999/xlink" x="0px" y="0px"
	 viewBox="0 0 640 512" style="enable-background:new 0 0 640 512;" xml:space="preserve">
<style type="text/css">
	.st0{fill:#FFFFFF;}
</style>
<path class="st0" d="M319.9,320c57.4,0,103.1-46.6,103.1-104s-46.5-104-103.1-104c-57.4,0-103.1,46.6-103.1,104
	C215.9,273.4,262.5,320,319.9,320z M369.9,352h-99.8C191.6,352,128,411.7,128,485.3c0,14.8,12.7,26.7,28.4,26.7h327.2
	c15.7,0,28.4-11.9,28.4-26.7C512,411.7,448.4,352,369.9,352z M512,160c44.2,0,80-35.8,80-80S556.2,0,512,0c-44.2,0-80,35.8-80,80
	S467.8,160,512,160z M183.9,216c0-5.4,1-10.6,1.6-15.9c-10.9-6-22.9-8.1-35.6-8.1H88.1C39.4,192,0,233.8,0,285.3
	C0,295.6,7.9,304,17.6,304h199.5C196.7,280.2,183.9,249.7,183.9,216z M128,160c44.2,0,80-35.8,80-80S172.2,0,128,0
	C83.8,0,48,35.8,48,80S83.8,160,128,160z M551.9,192h-61.8c-12.8,0-24.9,3-35.9,8.2c0.6,5.3,1.6,10.4,1.6,15.8
	c0,33.7-12.8,64.2-33.2,88h199.7c9.8,0,17.7-8.4,17.7-18.7C640,233.8,600.6,192,551.9,192z"/>
</svg>
